<?xml version="1.0" standalone="no"?>
<!DOCTYPE svg PUBLIC "-//W3C//DTD SVG 1.1//EN" "http://www.w3.org/Graphics/SVG/1.1/DTD/svg11.dtd" >
<svg xmlns="http://www.w3.org/2000/svg" xmlns:xlink="http://www.w3.org/1999/xlink" version="1.1">
<metadata>
Created by FontForge 20201107 at Tue Dec 20 14:25:42 2016
 By 
Copyright 2016 by URW++ Design &#38; Development GmbH
</metadata>
<defs>
<font id="URWDIN-Regular" horiz-adv-x="540" >
  <font-face 
    font-family="URW DIN"
    font-weight="400"
    font-stretch="normal"
    units-per-em="1000"
    panose-1="0 0 5 0 0 0 0 0 0 0"
    ascent="714"
    descent="-286"
    x-height="502"
    cap-height="714"
    bbox="-102 -243 1202 1015"
    underline-thickness="59"
    underline-position="-260"
    unicode-range="U+0020-FB04"
  />
<missing-glyph horiz-adv-x="200" 
 />
    <glyph glyph-name="ff" unicode="ff" horiz-adv-x="637" 
d="M110 436h-62v66h62v81q0 76 30.5 104.5t110.5 26.5h42v-65h-25q-47 2 -63 -13.5t-16 -62.5v-71h100v-66h-100v-436h-79v436zM416 436h-63v66h63v81q0 76 30.5 104.5t110.5 26.5h45v-65h-28q-48 1 -63.5 -14t-15.5 -62v-71h113v-66h-113v-436h-79v436z" />
    <glyph glyph-name="fi" unicode="fi" horiz-adv-x="587" 
d="M110 436h-62v66h62v81q0 76 30.5 104.5t110.5 26.5h46v-65h-29q-47 2 -63 -13.5t-16 -62.5v-71h114v-66h-114v-436h-79v436zM420 611v106h79v-106h-79zM420 0v502h79v-502h-79z" />
    <glyph glyph-name="fl" unicode="fl" horiz-adv-x="624" 
d="M110 436h-62v66h62v81q0 76 30.5 104.5t110.5 26.5h46v-65h-29q-47 2 -63 -13.5t-16 -62.5v-71h114v-66h-114v-436h-79v436zM419 714h79v-554q0 -54 18 -74t67 -19h26v-67h-29q-95 0 -128 34t-33 133v547z" />
    <glyph glyph-name="ffi" unicode="ffi" horiz-adv-x="892" 
d="M110 436h-62v66h62v81q0 76 30.5 104.5t110.5 26.5h42v-65h-25q-47 2 -63 -13.5t-16 -62.5v-71h100v-66h-100v-436h-79v436zM415 436h-62v66h62v81q0 76 30.5 104.5t110.5 26.5h46v-65h-29q-47 2 -63 -13.5t-16 -62.5v-71h114v-66h-114v-436h-79v436zM725 611v106h79
v-106h-79zM725 0v502h79v-502h-79z" />
    <glyph glyph-name="ffl" unicode="ffl" horiz-adv-x="928" 
d="M110 436h-62v66h62v81q0 76 30.5 104.5t110.5 26.5h42v-65h-25q-47 2 -63 -13.5t-16 -62.5v-71h100v-66h-100v-436h-79v436zM415 436h-62v66h62v81q0 76 30.5 104.5t110.5 26.5h46v-65h-29q-47 2 -63 -13.5t-16 -62.5v-71h114v-66h-114v-436h-79v436zM724 714h79v-554
q0 -54 18 -74t67 -19h26v-67h-29q-95 0 -128 34t-33 133v547z" />
    <glyph glyph-name=".notdef" horiz-adv-x="200" 
 />
    <glyph glyph-name=".null" horiz-adv-x="0" 
 />
    <glyph glyph-name="nonmarkingreturn" horiz-adv-x="333" 
 />
    <glyph glyph-name="space" unicode=" " horiz-adv-x="200" 
 />
    <glyph glyph-name="exclam" unicode="!" horiz-adv-x="310" 
d="M122 191l-12 523h90l-12 -523h-66zM116 0v100h80v-100h-80z" />
    <glyph glyph-name="quotedbl" unicode="&#x22;" horiz-adv-x="410" 
d="M87 450l-6 264h83l-6 -264h-71zM251 450l-5 264h82l-5 -264h-72z" />
    <glyph glyph-name="numbersign" unicode="#" 
d="M140 287l15 117h-112l9 55h113l26 186h69l-27 -186h107l27 186h69l-27 -186h114l-9 -55h-114l-15 -117h112l-9 -55h-113l-24 -190h-69l25 190h-107l-25 -190h-69l25 190h-114l9 55h114zM209 287h107l15 117h-107z" />
    <glyph glyph-name="dollar" unicode="$" 
d="M23 112l64 42q48 -77 178 -77q78 0 120.5 31t42.5 87q0 59 -44 87q-20 13 -37 18.5t-96 24.5q-109 25 -157.5 71.5t-48.5 124.5q0 52 23 93.5t64 63.5q35 20 101 26v108h79v-110q119 -13 162 -86l-63 -41q-44 62 -148 62q-64 0 -100.5 -29t-36.5 -81t37 -81t129 -51
q70 -16 96.5 -25.5t52.5 -26.5q68 -45 68 -141q0 -170 -197 -191v-144h-79v142q-74 4 -129 31t-81 72z" />
    <glyph glyph-name="percent" unicode="%" horiz-adv-x="883" 
d="M44 476v89q0 82 36 120t113 38q78 0 114 -38t36 -120v-89q0 -82 -36 -119.5t-114 -37.5q-77 0 -113 37.5t-36 119.5zM275 484v73q0 113 -81 113q-82 0 -82 -113v-73q0 -112 82 -112q81 0 81 112zM539 149v89q0 82 36 119.5t114 37.5t114 -37.5t36 -119.5v-89
q0 -82 -36 -120t-114 -38t-114 38t-36 120zM771 157v73q0 112 -82 112t-82 -112v-73q0 -113 82 -113t82 113zM292 0l224 714h75l-224 -714h-75z" />
    <glyph glyph-name="ampersand" unicode="&#x26;" horiz-adv-x="814" 
d="M602 0l-58 76q-48 -49 -115 -78t-133 -29q-92 0 -144 49t-52 135q0 101 94 175q32 25 101 64q-57 76 -75 111.5t-18 72.5q0 70 49.5 113.5t129.5 43.5q83 0 134 -44t51 -116q0 -57 -35.5 -103.5t-119.5 -100.5l141 -187q51 68 71 146h79q-34 -117 -103 -202l100 -126h-97
zM363 427q66 37 95 70.5t29 73.5q0 43 -28 69.5t-75 26.5q-46 0 -74.5 -25t-28.5 -66q0 -25 16.5 -55t65.5 -94zM499 129l-154 204q-65 -36 -89 -54q-73 -51 -73 -125q0 -54 33.5 -84.5t92.5 -30.5q97 0 190 90z" />
    <glyph glyph-name="quotesingle" unicode="'" horiz-adv-x="245" 
d="M87 450l-6 264h83l-6 -264h-71z" />
    <glyph glyph-name="parenleft" unicode="(" horiz-adv-x="434" 
d="M354 -84l-59 -37q-82 119 -117.5 227.5t-35.5 238.5q0 131 35.5 239t117.5 226l59 -37q-48 -83 -74 -144q-55 -128 -55 -285q0 -163 63 -301q30 -66 66 -127z" />
    <glyph glyph-name="parenright" unicode=")" horiz-adv-x="434" 
d="M80 773l59 37q82 -118 117.5 -226.5t35.5 -238.5q0 -131 -35.5 -239.5t-117.5 -226.5l-59 37q42 72 74 144q55 128 55 285q0 163 -63 301q-25 55 -66 127z" />
    <glyph glyph-name="asterisk" unicode="*" 
d="M270 516l-91 -150l-67 46l106 142l-165 35l20 75l163 -52l-7 164h82l-7 -164l162 52l21 -75l-165 -35l106 -142l-67 -46z" />
    <glyph glyph-name="plus" unicode="+" 
d="M35 330v66h200v204h71v-204h199v-66h-199v-203h-71v203h-200z" />
    <glyph glyph-name="comma" unicode="," horiz-adv-x="281" 
d="M57 -188l47 287h90l-68 -287h-69z" />
    <glyph glyph-name="hyphen" unicode="-" horiz-adv-x="476" 
d="M97 328v70h281v-70h-281z" />
    <glyph glyph-name="period" unicode="." horiz-adv-x="282" 
d="M100 0v100h83v-100h-83z" />
    <glyph glyph-name="slash" unicode="/" horiz-adv-x="409" 
d="M46 -22l238 758h80l-238 -758h-80z" />
    <glyph glyph-name="zero" unicode="0" 
d="M69 252v210q0 135 44 192q53 69 157 69q111 0 164 -81q36 -57 36 -180v-210q0 -135 -44 -192q-53 -69 -156 -69q-112 0 -165 81q-36 57 -36 180zM388 260v194q0 106 -27.5 152.5t-90.5 46.5q-64 0 -91.5 -46t-27.5 -153v-194q0 -107 27.5 -153t91.5 -46q63 0 90.5 46.5
t27.5 152.5z" />
    <glyph glyph-name="one" unicode="1" 
d="M244 0v626l-123 -54l-26 66l175 76h57v-714h-83z" />
    <glyph glyph-name="two" unicode="2" 
d="M55 0v55l198 257q108 141 108 237q0 104 -107 104q-96 0 -120 -107l-75 7q8 81 60.5 125.5t139.5 44.5q89 0 137 -46t48 -132q0 -65 -27.5 -123t-108.5 -165l-143 -187h284v-70h-394z" />
    <glyph glyph-name="three" unicode="3" 
d="M170 343v67h60q59 0 95 33.5t36 88.5q0 57 -29.5 89t-81.5 32q-44 0 -73 -22.5t-38 -62.5l-74 7q20 148 189 148q92 0 141 -48.5t49 -140.5q0 -59 -21 -94.5t-72 -62.5q59 -27 85 -70t26 -112q0 -100 -54 -152t-158 -52q-92 0 -144.5 39.5t-60.5 113.5l79 10
q18 -93 124 -93q62 0 96.5 35.5t34.5 100.5t-40 105.5t-104 40.5h-65z" />
    <glyph glyph-name="four" unicode="4" 
d="M341 0v132h-290v52l228 530h88l-222 -513h196v219h76v-219h71v-70h-71v-131h-76z" />
    <glyph glyph-name="five" unicode="5" 
d="M91 344l34 370h322v-70h-253l-24 -227q50 27 107 27q103 0 153 -69q38 -51 38 -157q0 -112 -46 -162q-56 -65 -166 -65q-176 0 -196 153l79 10q8 -45 39 -69t80 -24q62 0 94.5 39t32.5 113q0 84 -29.5 123.5t-91.5 39.5q-65 0 -113 -45z" />
    <glyph glyph-name="six" unicode="6" 
d="M379 714l-160 -290q28 18 74 18q92 0 141 -68q35 -50 35 -156q0 -122 -48 -173q-52 -54 -150 -54q-108 0 -159 65q-39 48 -39 162q0 58 10.5 97.5t42.5 99.5l160 299h93zM273 376q-61 0 -89 -37.5t-28 -119.5t28 -120t87 -38t87 38t28 119t-27.5 119.5t-85.5 38.5z" />
    <glyph glyph-name="seven" unicode="7" 
d="M145 0l227 644h-289v70h376v-50l-226 -664h-88z" />
    <glyph glyph-name="eight" unicode="8" 
d="M150 378q-39 28 -54 62t-15 92q0 97 46.5 144t142.5 47q188 0 188 -191q0 -58 -15 -92t-54 -62q47 -23 68 -64.5t21 -112.5q0 -108 -50.5 -159t-157.5 -51t-158 51t-51 159q0 71 21 112.5t68 64.5zM271 657q-58 0 -84.5 -30t-26.5 -95t26.5 -95.5t83.5 -30.5
q56 0 82.5 30.5t26.5 95.5q0 125 -108 125zM271 340q-66 0 -96.5 -33.5t-30.5 -106.5q0 -71 30.5 -105t95.5 -34q64 0 94.5 34t30.5 105q0 140 -124 140z" />
    <glyph glyph-name="nine" unicode="9" 
d="M162 0l161 313q-39 -12 -76 -12q-72 0 -118 38q-58 48 -58 170q0 111 48 162.5t151 51.5q106 0 157 -60q40 -49 40 -151q0 -54 -8 -87.5t-32 -81.5l-172 -343h-93zM271 653q-117 0 -117 -143q0 -144 115 -144t115 143q0 144 -113 144z" />
    <glyph glyph-name="colon" unicode=":" horiz-adv-x="282" 
d="M100 0v100h83v-100h-83zM100 403v100h83v-100h-83z" />
    <glyph glyph-name="semicolon" unicode=";" horiz-adv-x="282" 
d="M57 -188l47 287h90l-68 -287h-69zM107 403v100h83v-100h-83z" />
    <glyph glyph-name="less" unicode="&#x3c;" 
d="M142 366l316 -157v-76l-409 207v51l409 208v-76z" />
    <glyph glyph-name="equal" unicode="=" 
d="M49 252v63h443v-63h-443zM49 412v63h443v-63h-443z" />
    <glyph glyph-name="greater" unicode="&#x3e;" 
d="M398 366l-316 157v76l409 -208v-51l-409 -207v76z" />
    <glyph glyph-name="question" unicode="?" horiz-adv-x="584" 
d="M254 190v35q-1 58 18 93.5t76 84.5q43 38 57 57q28 38 28 80q0 50 -36 82t-92 32q-74 0 -115 -55q-19 -27 -34 -85l-77 13q40 197 228 197q95 0 152 -51t57 -136q0 -73 -54 -133q-21 -21 -81 -72q-62 -55 -61 -114v-28h-66zM248 0v100h80v-100h-80z" />
    <glyph glyph-name="at" unicode="@" horiz-adv-x="898" 
d="M599 516h54l-52 -243q-7 -35 -7 -53q0 -43 46 -43q58 0 97.5 60.5t39.5 148.5q0 116 -63 189q-39 44 -106.5 69.5t-146.5 25.5q-155 0 -247 -100.5t-92 -270.5q0 -174 98 -254q89 -72 245 -72q130 0 246 53l22 -50q-122 -61 -268 -61q-200 0 -304.5 97t-104.5 283
q0 199 110 315.5t298 116.5q172 0 274.5 -92.5t102.5 -248.5q0 -115 -59 -190.5t-149 -75.5q-46 0 -67 19t-25 63q-58 -84 -141 -84q-62 0 -95.5 36t-33.5 103q0 114 65 198q55 72 141 72q75 0 108 -67zM481 470q-60 0 -99 -65q-41 -66 -41 -145q0 -83 70 -83q63 0 106 72
q42 68 42 138q0 38 -21.5 60.5t-56.5 22.5z" />
    <glyph glyph-name="A" unicode="A" horiz-adv-x="600" 
d="M457 156h-313l-54 -156h-90l261 714h79l261 -714h-90zM436 225l-135 383l-135 -383h270z" />
    <glyph glyph-name="B" unicode="B" horiz-adv-x="639" 
d="M104 0v714h263q99 0 148 -43q55 -52 55 -142q0 -107 -84 -156l9 -6q27 -16 37.5 -25.5t20.5 -26.5q31 -49 31 -122q0 -104 -63 -155q-46 -38 -140 -38h-277zM187 401h174q60 0 90 26q36 33 36 96q0 69 -41 100q-30 22 -85 22h-174v-244zM187 69h189q58 0 89 28
q36 33 36 102q0 74 -41 108q-31 25 -84 25h-189v-263z" />
    <glyph glyph-name="C" unicode="C" horiz-adv-x="632" 
d="M481 177l77 -9q-5 -85 -65.5 -131t-166.5 -46q-136 0 -196 90q-43 64 -43 202v147q0 81 12 130.5t41 84.5q62 77 187 77q103 0 161.5 -47t62.5 -133l-76 -6q-7 56 -45.5 86t-101.5 30q-84 0 -121 -52.5t-37 -173.5v-138q0 -122 36.5 -174.5t122.5 -52.5q64 0 104 30
t48 86z" />
    <glyph glyph-name="D" unicode="D" horiz-adv-x="678" 
d="M104 0v714h228q130 2 196.5 -67.5t62.5 -204.5v-170q4 -135 -62 -204.5t-197 -67.5h-228zM187 69h131q98 -2 144 49t46 162v154q0 111 -46 162t-144 49h-131v-576z" />
    <glyph glyph-name="E" unicode="E" horiz-adv-x="579" 
d="M104 0v714h417v-70h-335v-248h286v-70h-286v-256h336v-70h-418z" />
    <glyph glyph-name="F" unicode="F" horiz-adv-x="546" 
d="M104 0v714h414v-70h-331v-253h281v-70h-281v-321h-83z" />
    <glyph glyph-name="G" unicode="G" horiz-adv-x="663" 
d="M356 308v67h231v-112q0 -72 -12 -116t-41 -79q-65 -77 -196 -77q-142 0 -207 90q-44 63 -44 202v146q0 83 12.5 132t42.5 84q64 77 190 77q106 0 166.5 -47t65.5 -133l-77 -6q-8 56 -47.5 86t-105.5 30q-88 0 -126 -53t-38 -174v-138q0 -121 39 -173.5t128 -52.5
q93 0 135 59q33 44 33 126v62h-149z" />
    <glyph glyph-name="H" unicode="H" horiz-adv-x="681" 
d="M104 0v714h83v-318h306v318h83v-714h-83v326h-306v-326h-83z" />
    <glyph glyph-name="I" unicode="I" horiz-adv-x="291" 
d="M104 0v714h83v-714h-83z" />
    <glyph glyph-name="J" unicode="J" horiz-adv-x="465" 
d="M283 714h83v-435q0 -91 -5 -131t-21 -69q-47 -88 -172 -88q-101 0 -177 69l46 57q56 -56 126 -56q82 0 108 75q12 35 12 141v437z" />
    <glyph glyph-name="K" unicode="K" horiz-adv-x="618" 
d="M105 0v714h82v-391l306 391h98l-232 -288l256 -426h-95l-214 368l-119 -148v-220h-82z" />
    <glyph glyph-name="L" unicode="L" horiz-adv-x="533" 
d="M104 0v714h83v-644h336v-70h-419z" />
    <glyph glyph-name="M" unicode="M" horiz-adv-x="816" 
d="M104 0v714h80l224 -467l224 467h80v-714h-80v551l-197 -405h-53l-198 405v-551h-80z" />
    <glyph glyph-name="N" unicode="N" horiz-adv-x="721" 
d="M104 0v714h80l352 -572v572h81v-714h-80l-352 572v-572h-81z" />
    <glyph glyph-name="O" unicode="O" horiz-adv-x="676" 
d="M87 269v176q0 75 13.5 122t45.5 82q67 74 192 74q136 0 203 -86q48 -64 48 -192v-176q0 -76 -13.5 -122.5t-45.5 -81.5q-67 -74 -192 -74q-136 0 -202 86q-49 63 -49 192zM506 277v160q0 109 -39 159q-42 57 -129 57q-93 0 -136 -66q-32 -51 -32 -150v-160
q0 -109 39 -159q42 -57 129 -57q93 0 136 66q32 51 32 150z" />
    <glyph glyph-name="P" unicode="P" horiz-adv-x="607" 
d="M188 278v-278h-83v714h230q67 0 108 -13t69 -44q52 -55 52 -161q0 -115 -61 -170q-52 -48 -168 -48h-147zM187 347h148q75 0 110.5 36t35.5 113t-35.5 113t-110.5 36h-148v-298z" />
    <glyph glyph-name="Q" unicode="Q" horiz-adv-x="676" 
d="M594 -18l-81 65q-65 -56 -175 -56q-136 0 -202 86q-49 63 -49 192v176q0 75 13.5 122t45.5 82q67 74 192 74q136 0 203 -86q48 -64 48 -192v-176q0 -110 -35 -171l82 -66zM450 98l-107 86l43 49l101 -81q19 46 19 125v160q0 109 -39 159q-42 57 -129 57q-93 0 -136 -66
q-32 -51 -32 -150v-160q0 -109 39 -159q42 -57 129 -57q71 0 112 37z" />
    <glyph glyph-name="R" unicode="R" horiz-adv-x="646" 
d="M188 308v-308h-83v714h245q118 0 170 -52q51 -52 51 -147q0 -88 -36 -136t-111 -62l157 -317h-92l-147 308h-154zM187 377h164q137 0 137 134q0 69 -35.5 101.5t-110.5 32.5h-155v-268z" />
    <glyph glyph-name="S" unicode="S" horiz-adv-x="579" 
d="M45 96l65 42q46 -77 176 -77q78 0 121 33.5t43 94.5q0 62 -43 92q-20 14 -36.5 19.5t-95.5 25.5q-110 28 -157 74.5t-47 128.5q0 91 58 142.5t161 51.5q147 0 206 -90l-63 -41q-45 62 -146 62q-63 0 -99 -32t-36 -88q0 -55 36.5 -86t127.5 -54q71 -17 96 -26.5t52 -27.5
q67 -46 67 -147q0 -98 -63.5 -150t-181.5 -52q-175 0 -241 105z" />
    <glyph glyph-name="T" unicode="T" horiz-adv-x="554" 
d="M237 0v644h-206v70h493v-70h-204v-644h-83z" />
    <glyph glyph-name="U" unicode="U" horiz-adv-x="690" 
d="M101 714h83v-452q0 -96 26 -138q42 -63 135 -63q102 0 141 73q20 40 20 128v452h83v-452q0 -76 -9 -116.5t-34 -71.5q-63 -83 -201 -83q-149 0 -210 95q-19 30 -26.5 68t-7.5 108v452z" />
    <glyph glyph-name="V" unicode="V" horiz-adv-x="568" 
d="M249 0l-238 714h84l189 -593l189 593h84l-238 -714h-70z" />
    <glyph glyph-name="W" unicode="W" horiz-adv-x="876" 
d="M208 0l-180 714h84l135 -586l161 586h59l161 -586l136 586h84l-180 -714h-71l-159 569l-159 -569h-71z" />
    <glyph glyph-name="X" unicode="X" horiz-adv-x="564" 
d="M234 376l-193 338h91l158 -277l151 277h88l-196 -350l209 -364h-91l-174 303l-165 -303h-88z" />
    <glyph glyph-name="Y" unicode="Y" horiz-adv-x="532" 
d="M225 0v258l-225 456h88l179 -371l178 371h88l-225 -456v-258h-83z" />
    <glyph glyph-name="Z" unicode="Z" horiz-adv-x="543" 
d="M51 0v59l330 585h-312v70h405v-59l-330 -585h346v-70h-439z" />
    <glyph glyph-name="bracketleft" unicode="[" horiz-adv-x="434" 
d="M162 -98v885h191v-60h-111v-765h111v-60h-191z" />
    <glyph glyph-name="backslash" unicode="\" horiz-adv-x="409" 
d="M362 -22h-80l-238 758h80z" />
    <glyph glyph-name="bracketright" unicode="]" horiz-adv-x="434" 
d="M272 787v-885h-191v60h110v765h-110v60h191z" />
    <glyph glyph-name="asciicircum" unicode="^" 
d="M270 625l-141 -244h-92l210 338h45l210 -338h-92z" />
    <glyph glyph-name="underscore" unicode="_" horiz-adv-x="470" 
d="M-25 -175v59h520v-59h-520z" />
    <glyph glyph-name="grave" unicode="`" horiz-adv-x="500" 
d="M303 582h-61l-111 142h97z" />
    <glyph glyph-name="a" unicode="a" horiz-adv-x="525" 
d="M361 295v35q0 54 -18 80q-27 36 -92 36q-75 0 -120 -51l-55 42q65 75 182 75q118 0 161 -73q21 -38 21 -121v-318h-63l-6 36q-24 -25 -56.5 -35t-89.5 -10q-97 0 -136.5 33.5t-39.5 115.5q0 87 42 121t149 34h121zM361 235h-113q-67 0 -95 -21.5t-28 -71.5
q0 -48 25.5 -66.5t92.5 -18.5q78 0 104 33q14 18 14 67v78z" />
    <glyph glyph-name="b" unicode="b" horiz-adv-x="565" 
d="M89 0v714h79v-250q52 48 137 48q97 0 143 -54t46 -169v-76q0 -116 -46 -169.5t-145 -53.5q-75 0 -118 29q-7 4 -29 24l-5 -43h-62zM415 218v66q0 162 -122 162q-125 0 -125 -154v-82q0 -154 125 -154q122 0 122 162z" />
    <glyph glyph-name="c" unicode="c" horiz-adv-x="475" 
d="M386 106l59 -36q-56 -79 -172 -79q-202 0 -202 234v41q0 125 49 185.5t150 60.5q115 0 166 -82l-61 -35q-22 29 -44 40t-56 11q-125 0 -125 -174v-55q0 -160 127 -160q70 0 109 49z" />
    <glyph glyph-name="d" unicode="d" horiz-adv-x="565" 
d="M414 0l-5 43l-3 -3l-2 -1q-9 -9 -14 -13q-37 -35 -129 -35q-98 0 -144 54t-46 168v76q0 115 45.5 169t142.5 54q66 0 110 -25q17 -13 28 -23v250h79v-714h-62zM150 284v-66q0 -161 122 -161q125 0 125 153v82q0 154 -125 154q-122 0 -122 -162z" />
    <glyph glyph-name="e" unicode="e" horiz-adv-x="543" 
d="M151 235v-21q0 -77 36 -117t104 -40q74 0 115 49l59 -38q-57 -77 -182 -77q-108 0 -160 58t-52 179v43q0 125 49 183t155 58t155 -58t49 -183v-36h-328zM151 295h252v8q0 62 -27 100q-30 43 -98 43q-76 0 -106 -51q-21 -39 -21 -92v-8z" />
    <glyph glyph-name="f" unicode="f" horiz-adv-x="332" 
d="M110 436h-62v66h62v81q0 76 30.5 104.5t110.5 26.5h46v-65h-29q-47 2 -63 -13.5t-16 -62.5v-71h114v-66h-114v-436h-79v436z" />
    <glyph glyph-name="g" unicode="g" horiz-adv-x="565" 
d="M397 -8l1 47q-47 -48 -139 -48q-97 0 -142.5 54t-45.5 168v76q0 115 46 169t144 54t147 -55l6 45h62v-502q0 -234 -214 -234q-120 0 -175 79l59 36q41 -51 113 -51q70 0 103 39t35 123zM150 284v-66q0 -161 122 -161q125 0 125 153v82q0 154 -125 154q-122 0 -122 -162z
" />
    <glyph glyph-name="h" unicode="h" horiz-adv-x="565" 
d="M88 0v714h79v-252q44 50 132 50q132 0 167 -97q15 -43 15 -127v-288h-79v281q0 88 -26.5 125.5t-87.5 37.5q-64 0 -92.5 -43.5t-28.5 -141.5v-259h-79z" />
    <glyph glyph-name="i" unicode="i" horiz-adv-x="255" 
d="M88 611v106h79v-106h-79zM88 0v502h79v-502h-79z" />
    <glyph glyph-name="j" unicode="j" horiz-adv-x="261" 
d="M93 502h79v-514q2 -125 -41.5 -172t-161.5 -46v67q68 -3 97 30.5t27 112.5v522zM93 611v106h79v-106h-79z" />
    <glyph glyph-name="k" unicode="k" horiz-adv-x="511" 
d="M88 0v714h79v-497l223 285h91l-171 -213l190 -289h-88l-150 230l-95 -118v-112h-79z" />
    <glyph glyph-name="l" unicode="l" horiz-adv-x="292" 
d="M87 714h79v-554q0 -54 18 -74t67 -19h26v-67h-29q-95 0 -128 34t-33 133v547z" />
    <glyph glyph-name="m" unicode="m" horiz-adv-x="841" 
d="M88 0v502h61l6 -56q42 66 132 66q107 0 144 -82q43 82 150 82q128 0 161 -97q14 -41 14 -127v-288h-79v281q0 65 -12 101q-24 62 -93 62q-59 0 -85 -43.5t-26 -141.5v-259h-79v281q0 88 -24 125.5t-80 37.5q-60 0 -85.5 -43.5t-25.5 -145.5v-255h-79z" />
    <glyph glyph-name="n" unicode="n" horiz-adv-x="565" 
d="M88 0v502h61l6 -56q43 66 142 66q135 0 169 -97q15 -43 15 -127v-288h-79v281q0 88 -26.5 125.5t-87.5 37.5q-65 0 -93 -43.5t-28 -145.5v-255h-79z" />
    <glyph glyph-name="o" unicode="o" horiz-adv-x="557" 
d="M71 212v78q0 113 50 167.5t156 54.5q108 0 158.5 -53.5t50.5 -168.5v-78q0 -114 -50.5 -167.5t-158.5 -53.5q-106 0 -156 54t-50 167zM407 217v68q0 82 -31.5 121.5t-97.5 39.5q-65 0 -96.5 -39.5t-31.5 -121.5v-68q0 -82 31.5 -121t96.5 -39q66 0 97.5 39t31.5 121z" />
    <glyph glyph-name="p" unicode="p" horiz-adv-x="565" 
d="M89 -225v727h62l8 -42q49 52 146 52t143 -54t46 -169v-76q0 -114 -46 -168t-143 -54q-85 0 -137 46v-262h-79zM415 218v66q0 162 -122 162q-125 0 -125 -154v-82q0 -153 125 -153q122 0 122 161z" />
    <glyph glyph-name="q" unicode="q" horiz-adv-x="565" 
d="M397 -225l1 262q-52 -46 -138 -46q-97 0 -143 54t-46 168v76q0 115 46 169t143 54t146 -52l8 42h62v-727h-79zM150 284v-66q0 -161 122 -161q125 0 125 153v82q0 154 -125 154q-122 0 -122 -162z" />
    <glyph glyph-name="r" unicode="r" horiz-adv-x="375" 
d="M88 0v502h62l8 -47q40 57 120 57q50 0 97 -26l-33 -68q-36 24 -71 24q-55 0 -79.5 -46.5t-24.5 -150.5v-245h-79z" />
    <glyph glyph-name="s" unicode="s" horiz-adv-x="473" 
d="M29 69l58 37q26 -27 56 -38t79 -11q127 0 127 84q0 45 -34 62q-23 12 -93 21q-94 14 -125 41q-40 34 -40 98q0 72 43 110.5t123 38.5q125 0 182 -80l-60 -37q-23 28 -49.5 39.5t-66.5 11.5q-96 0 -96 -79q0 -39 31 -58q21 -11 79 -19q103 -15 137 -40q45 -33 45 -111
q0 -148 -200 -148q-142 0 -196 78z" />
    <glyph glyph-name="t" unicode="t" horiz-adv-x="334" 
d="M105 436h-61v66h61l4 161h75v-161h99v-66h-99v-277q0 -53 18 -73t67 -19h17v-67h-18q-98 0 -130.5 33t-32.5 134v269z" />
    <glyph glyph-name="u" unicode="u" horiz-adv-x="555" 
d="M84 502h79v-280q0 -66 13 -101q24 -62 96 -62q62 0 89 43.5t27 144.5v255h79v-502h-61l-6 56q-42 -65 -138 -65q-130 0 -163 97q-15 42 -15 126v288z" />
    <glyph glyph-name="v" unicode="v" horiz-adv-x="488" 
d="M208 0l-182 502h81l137 -398l137 398h81l-182 -502h-72z" />
    <glyph glyph-name="w" unicode="w" horiz-adv-x="771" 
d="M193 0l-155 502h81l110 -394l129 394h55l129 -394l111 394h81l-155 -502h-65l-128 378l-129 -378h-64z" />
    <glyph glyph-name="x" unicode="x" horiz-adv-x="464" 
d="M187 257l-151 245h90l113 -184l112 184h87l-160 -248l157 -254h-90l-118 192l-117 -192h-87z" />
    <glyph glyph-name="y" unicode="y" horiz-adv-x="488" 
d="M207 1l-185 501h80l147 -412l131 412h80l-197 -583q-35 -96 -70.5 -122t-132.5 -27v67q56 0 78 16t44 74z" />
    <glyph glyph-name="z" unicode="z" horiz-adv-x="475" 
d="M45 0v51l255 385h-235v66h334v-51l-255 -385h271v-66h-370z" />
    <glyph glyph-name="braceleft" unicode="{" horiz-adv-x="434" 
d="M242 571v-51q2 -79 -10 -108.5t-55 -46.5q42 -18 54.5 -48t10.5 -107v-92q-1 -98 17 -128t79 -31h20v-57h-36q-98 0 -130.5 39t-29.5 155v113q2 80 -13 104.5t-70 26.5h-8v50h8q55 2 70 26t13 104v73q-3 116 29.5 155t130.5 39h36v-57h-20q-61 -1 -79 -31t-17 -128z" />
    <glyph glyph-name="bar" unicode="|" 
d="M235 -98v885h71v-885h-71z" />
    <glyph glyph-name="braceright" unicode="}" horiz-adv-x="434" 
d="M192 118v92q-2 77 10.5 107t54.5 48q-43 17 -55 46.5t-10 108.5v51q1 98 -17 128t-78 31h-20v57h36q98 0 130 -39t29 -155v-73q-2 -80 13 -104t71 -26h8v-50h-8q-55 -2 -70.5 -26.5t-13.5 -104.5v-113q3 -116 -29 -155t-130 -39h-36v57h20q60 1 78 31t17 128z" />
    <glyph glyph-name="asciitilde" unicode="~" 
d="M96 298l-52 12q21 68 51 96.5t79 28.5q29 0 51.5 -8.5t58.5 -33.5q56 -38 84 -38q49 0 77 71l51 -15q-21 -63 -51.5 -91t-79.5 -28q-27 0 -48.5 8.5t-56.5 32.5q-36 25 -51.5 32t-34.5 7q-51 0 -78 -74z" />
    <glyph glyph-name="uni00A0" unicode="&#xa0;" horiz-adv-x="200" 
 />
    <glyph glyph-name="exclamdown" unicode="&#xa1;" horiz-adv-x="310" 
d="M188 311l12 -523h-90l12 523h66zM194 502v-100h-80v100h80z" />
    <glyph glyph-name="cent" unicode="&#xa2;" 
d="M254 32v115q-81 7 -124 67t-41 163v42q-3 221 165 242v109h79v-111q81 -14 120 -76l-60 -34q-37 51 -100 51q-64 0 -95 -43t-31 -132v-56q0 -79 32.5 -120t94.5 -41q73 0 110 49l59 -34q-43 -62 -130 -75v-116h-79z" />
    <glyph glyph-name="sterling" unicode="&#xa3;" 
d="M61 0v60q50 18 82.5 66t32.5 104q0 32 -14 75h-103v70h71q-31 58 -40.5 86.5t-9.5 64.5q0 92 53 144.5t145 52.5t144 -43t74 -137l-70 -19q-13 51 -33 79q-40 52 -110 52q-55 0 -87.5 -33t-32.5 -89q0 -32 12 -65t46 -93h171v-70h-148q11 -41 11 -70q0 -97 -78 -165h330
v-70h-446z" />
    <glyph glyph-name="currency" unicode="&#xa4;" 
d="M62 79l-42 39l86 89q-43 59 -43 127q0 69 43 128l-86 89l42 38l84 -87q58 40 124 40q65 0 123 -40l84 87l42 -38l-86 -89q43 -60 43 -128t-43 -127l86 -89l-42 -39l-84 87q-57 -40 -123 -40q-67 0 -124 40zM271 482q-62 0 -100.5 -40.5t-38.5 -107.5q0 -65 38.5 -106.5
t99.5 -41.5t99 41.5t38 106.5t-38 106.5t-98 41.5z" />
    <glyph glyph-name="yen" unicode="&#xa5;" 
d="M230 0v151h-154v58h154v51h-154v58h130l-195 396h88l173 -361l171 361h89l-195 -396h129v-58h-153v-51h153v-58h-153v-151h-83z" />
    <glyph glyph-name="brokenbar" unicode="&#xa6;" horiz-adv-x="500" 
d="M211 453v261h77v-261h-77zM211 0v251h77v-251h-77z" />
    <glyph glyph-name="section" unicode="&#xa7;" 
d="M70 -29l54 44q52 -51 123 -51q50 0 80 23t30 62q0 34 -19 56q-13 14 -33 23t-75 25q-94 27 -128.5 59.5t-34.5 93.5q0 72 48 112q9 8 39 27q-32 21 -45.5 47.5t-13.5 67.5q0 76 46 119.5t127 43.5q68 0 118 -29q10 -6 44 -35l-54 -44q-41 40 -101 40q-45 0 -72 -23
t-27 -62q0 -35 19 -56q20 -21 108 -49q95 -29 127 -59q36 -34 36 -97q0 -47 -19 -77t-68 -60q32 -21 45 -46t13 -66q0 -77 -48.5 -120.5t-134.5 -43.5q-58 0 -98.5 16.5t-85.5 58.5zM267 401l-55 18q-42 -24 -55 -42t-13 -52q0 -44 22.5 -64t99.5 -45l55 -18l6 4
q18 10 19 11q43 26 43 76q0 41 -20 63q-21 22 -102 49z" />
    <glyph glyph-name="dieresis" unicode="&#xa8;" horiz-adv-x="500" 
d="M117 590v104h72v-104h-72zM310 590v104h72v-104h-72z" />
    <glyph glyph-name="copyright" unicode="&#xa9;" horiz-adv-x="822" 
d="M499 280l60 -6q-6 -93 -143 -93q-82 0 -120 45q-26 33 -26 104v54q0 78 33 110q38 39 113 39q132 0 139 -95l-59 -3q-8 49 -78 49q-44 0 -64 -22.5t-20 -72.5v-64q0 -50 20 -72.5t64 -22.5q72 0 81 50zM416 727q158 0 263.5 -106t105.5 -264q0 -160 -106.5 -265
t-267.5 -105q-162 0 -268.5 105t-106.5 264q0 162 106 265q107 106 274 106zM415 671q-142 0 -233 -95q-82 -90 -82 -220q0 -135 88 -224t223 -89q134 0 222 89t88 225q0 134 -87.5 224t-218.5 90z" />
    <glyph glyph-name="ordfeminine" unicode="&#xaa;" horiz-adv-x="340" 
d="M227 583v25q0 62 -65 62q-43 0 -78 -30l-38 32q44 48 121 48q79 0 108 -44q14 -25 14 -75v-202h-51l-3 20q-29 -25 -90 -25q-65 0 -91 20.5t-26 71.5q0 54 30 75.5t105 21.5h64zM229 537h-65q-43 0 -60 -10.5t-17 -37.5q0 -25 15.5 -35t55.5 -10q39 0 55 10.5t16 35.5v47
z" />
    <glyph glyph-name="guillemotleft" unicode="&#xab;" horiz-adv-x="430" 
d="M305 295l89 -124l-48 -35l-129 159l129 159l48 -35zM125 295l88 -124l-47 -35l-130 159l130 159l47 -35z" />
    <glyph glyph-name="logicalnot" unicode="&#xac;" 
d="M46 330v66h416v-281h-77v215h-339z" />
    <glyph glyph-name="uni00AD" unicode="&#xad;" horiz-adv-x="476" 
d="M97 328v70h281v-70h-281z" />
    <glyph glyph-name="registered" unicode="&#xae;" horiz-adv-x="667" 
d="M281 553v-111h-55v274h123q59 0 85.5 -19t26.5 -62q0 -32 -14.5 -50t-47.5 -27l71 -116h-61l-64 111h-64zM280 588h69q57 0 57 44t-61 44h-65v-88zM337 861q120 0 201 -81t81 -201q0 -121 -81.5 -201.5t-204.5 -80.5t-204.5 80t-81.5 201q0 124 81.5 203.5t208.5 79.5z
M336 808q-104 0 -166 -63q-64 -67 -64 -166t64 -166q60 -63 163 -63t163 63q64 67 64 166t-64 166q-61 63 -160 63z" />
    <glyph glyph-name="macron" unicode="&#xaf;" horiz-adv-x="500" 
d="M122 619v58h257v-58h-257z" />
    <glyph glyph-name="degree" unicode="&#xb0;" horiz-adv-x="401" 
d="M203 744q77 0 122.5 -46t45.5 -122q0 -77 -46 -122.5t-124 -45.5q-79 0 -125 45t-46 122q0 79 46.5 124t126.5 45zM202 686q-51 0 -78.5 -28.5t-27.5 -81.5q0 -52 28 -81t77 -29t76.5 29t27.5 81q0 51 -27.5 80.5t-75.5 29.5z" />
    <glyph glyph-name="plusminus" unicode="&#xb1;" 
d="M35 341v66h200v199h71v-199h199v-66h-199v-198h-71v198h-200zM35 0v66h470v-66h-470z" />
    <glyph glyph-name="twosuperior" unicode="&#xb2;" horiz-adv-x="342" 
d="M42 386v42l126 150q64 75 64 125q0 30 -17 47t-47 17q-59 0 -73 -63l-61 7q9 51 31 74q37 35 105 35q128 0 128 -119q0 -40 -17 -74t-66 -91l-81 -97h163v-53h-255z" />
    <glyph glyph-name="threesuperior" unicode="&#xb3;" horiz-adv-x="342" 
d="M105 587v47h44q32 0 54.5 20t22.5 48q0 29 -18.5 46.5t-48.5 17.5q-55 0 -69 -50l-59 7q8 50 38.5 73t91.5 23q131 0 131 -115q0 -35 -12.5 -56t-41.5 -37q66 -32 66 -107q0 -123 -145 -123q-82 0 -118 39q-15 16 -23 57l62 11q13 -54 77 -54q38 0 59.5 19.5t21.5 53.5
q0 35 -24 57.5t-62 22.5h-47z" />
    <glyph glyph-name="acute" unicode="&#xb4;" horiz-adv-x="500" 
d="M200 582l75 142h97l-112 -142h-60z" />
    <glyph glyph-name="mu" unicode="&#xb5;" 
d="M80 502h78v-283q0 -83 26 -121.5t83 -38.5q63 0 89.5 43t26.5 145v255h78v-502h-55l-11 68q-36 -77 -133 -77q-64 0 -104 43v-259h-78v727z" />
    <glyph glyph-name="paragraph" unicode="&#xb6;" horiz-adv-x="597" 
d="M233 -136v477h-28q-46 0 -69 4.5t-45 17.5q-38 22 -60 66.5t-22 99.5q0 57 22.5 102t62.5 64q26 13 51 16t114 3h235v-850h-76v783h-110v-783h-75z" />
    <glyph glyph-name="periodcentered" unicode="&#xb7;" horiz-adv-x="281" 
d="M100 314v99h83v-99h-83z" />
    <glyph glyph-name="cedilla" unicode="&#xb8;" horiz-adv-x="500" 
d="M185 -222l52 153h83l-79 -153h-56z" />
    <glyph glyph-name="onesuperior" unicode="&#xb9;" horiz-adv-x="236" 
d="M97 386v363l-77 -30l-18 49l115 46h46v-428h-66z" />
    <glyph glyph-name="ordmasculine" unicode="&#xba;" horiz-adv-x="357" 
d="M41 528v56q0 71 33 103.5t105 32.5t105 -32.5t33 -103.5v-56q0 -70 -33 -102.5t-105 -32.5t-105 32.5t-33 102.5zM255 531v51q0 88 -76 88t-76 -88v-51q0 -88 76 -88t76 88z" />
    <glyph glyph-name="guillemotright" unicode="&#xbb;" horiz-adv-x="430" 
d="M124 295l-89 124l48 35l129 -159l-129 -159l-48 35zM304 295l-88 124l47 35l130 -159l-130 -159l-47 35z" />
    <glyph glyph-name="onequarter" unicode="&#xbc;" horiz-adv-x="860" 
d="M151 286v363l-77 -30l-18 49l115 46h46v-428h-66zM237 0l224 714h75l-224 -714h-75zM672 0v80h-187v39l147 309h70l-141 -296h111v93h59v-93h45v-53h-45v-79h-59z" />
    <glyph glyph-name="onehalf" unicode="&#xbd;" horiz-adv-x="860" 
d="M149 286v363l-77 -30l-18 49l115 46h46v-428h-66zM226 0l224 714h75l-224 -714h-75zM517 0v42l126 150q64 75 64 125q0 30 -17 47t-47 17q-59 0 -73 -63l-61 7q10 58 42 83.5t94 25.5q128 0 128 -119q0 -40 -17 -74t-65 -91l-82 -97h163v-53h-255z" />
    <glyph glyph-name="threequarters" unicode="&#xbe;" horiz-adv-x="860" 
d="M113 487v47h44q32 0 54.5 20t22.5 48q0 29 -18.5 46.5t-48.5 17.5q-55 0 -69 -50l-59 7q8 50 38.5 73t91.5 23q131 0 131 -115q0 -35 -12.5 -56t-41.5 -37q66 -32 66 -107q0 -123 -145 -123q-82 0 -118 39q-15 16 -23 57l62 11q13 -54 77 -54q38 0 59.5 19.5t21.5 53.5
q0 35 -24 57.5t-62 22.5h-47zM699 0v80h-186v39l146 309h70l-141 -296h111v93h60v-93h45v-53h-45v-79h-60zM283 0l225 714h75l-224 -714h-76z" />
    <glyph glyph-name="questiondown" unicode="&#xbf;" horiz-adv-x="584" 
d="M337 312v-35q1 -59 -18 -94.5t-76 -83.5q-44 -37 -57 -57q-28 -38 -28 -80q0 -50 36 -82t92 -32q74 0 114 55q20 26 35 85l77 -13q-40 -197 -229 -197q-94 0 -151 51t-57 136q0 75 54 133q14 15 80 72q63 55 62 114v28h66zM343 502v-100h-80v100h80z" />
    <glyph glyph-name="Agrave" unicode="&#xc0;" horiz-adv-x="600" 
d="M457 156h-313l-54 -156h-90l261 714h79l261 -714h-90zM436 225l-135 383l-135 -383h270zM348 789h-61l-111 142h97z" />
    <glyph glyph-name="Aacute" unicode="&#xc1;" horiz-adv-x="600" 
d="M457 156h-313l-54 -156h-90l261 714h79l261 -714h-90zM436 225l-135 383l-135 -383h270zM256 789l75 142h97l-112 -142h-60z" />
    <glyph glyph-name="Acircumflex" unicode="&#xc2;" horiz-adv-x="600" 
d="M457 156h-313l-54 -156h-90l261 714h79l261 -714h-90zM436 225l-135 383l-135 -383h270zM300 874l-68 -80h-84l127 133h51l127 -133h-84z" />
    <glyph glyph-name="Atilde" unicode="&#xc3;" horiz-adv-x="600" 
d="M457 156h-313l-54 -156h-90l261 714h79l261 -714h-90zM436 225l-135 383l-135 -383h270zM193 804h-51q13 52 25 71q25 43 72 43q37 0 73 -32t53 -32q27 0 41 56h51q-12 -50 -23 -73q-23 -41 -71 -41q-38 0 -75 34q-34 30 -52 30q-29 0 -43 -56z" />
    <glyph glyph-name="Adieresis" unicode="&#xc4;" horiz-adv-x="600" 
d="M457 156h-313l-54 -156h-90l261 714h79l261 -714h-90zM436 225l-135 383l-135 -383h270zM166 797v104h72v-104h-72zM361 797v104h72v-104h-72z" />
    <glyph glyph-name="Aring" unicode="&#xc5;" horiz-adv-x="600" 
d="M457 156h-313l-54 -156h-90l261 714h79l261 -714h-90zM436 225l-135 383l-135 -383h270zM302 984q47 0 75 -27.5t28 -73.5t-29 -74t-76 -28t-76 28t-29 74q0 47 29 74t78 27zM301 942q-51 0 -51 -60q0 -59 50 -59t50 59q0 60 -49 60z" />
    <glyph glyph-name="AE" unicode="&#xc6;" horiz-adv-x="950" 
d="M476 165h-316l-105 -165h-96l469 714h465v-70h-335v-248h285v-70h-285v-256h335v-70h-417v165zM476 234v410h-11l-265 -410h276z" />
    <glyph glyph-name="Ccedilla" unicode="&#xc7;" horiz-adv-x="632" 
d="M481 177l77 -9q-5 -85 -65.5 -131t-166.5 -46q-136 0 -196 90q-43 64 -43 202v147q0 81 12 130.5t41 84.5q62 77 187 77q103 0 161.5 -47t62.5 -133l-76 -6q-7 56 -45.5 86t-101.5 30q-84 0 -121 -52.5t-37 -173.5v-138q0 -122 36.5 -174.5t122.5 -52.5q64 0 104 30
t48 86zM236 -222l52 153h83l-79 -153h-56z" />
    <glyph glyph-name="Egrave" unicode="&#xc8;" horiz-adv-x="579" 
d="M104 0v714h417v-70h-335v-248h286v-70h-286v-256h336v-70h-418zM372 789h-61l-111 142h97z" />
    <glyph glyph-name="Eacute" unicode="&#xc9;" horiz-adv-x="579" 
d="M104 0v714h417v-70h-335v-248h286v-70h-286v-256h336v-70h-418zM270 789l75 142h97l-112 -142h-60z" />
    <glyph glyph-name="Ecircumflex" unicode="&#xca;" horiz-adv-x="579" 
d="M104 0v714h417v-70h-335v-248h286v-70h-286v-256h336v-70h-418zM315 874l-68 -80h-84l127 133h51l127 -133h-84z" />
    <glyph glyph-name="Edieresis" unicode="&#xcb;" horiz-adv-x="579" 
d="M104 0v714h417v-70h-335v-248h286v-70h-286v-256h336v-70h-418zM183 797v104h72v-104h-72zM378 797v104h72v-104h-72z" />
    <glyph glyph-name="Igrave" unicode="&#xcc;" horiz-adv-x="291" 
d="M105 0v714h83v-714h-83zM195 789h-61l-111 142h97z" />
    <glyph glyph-name="Iacute" unicode="&#xcd;" horiz-adv-x="291" 
d="M100 0v714h83v-714h-83zM95 789l75 142h97l-112 -142h-60z" />
    <glyph glyph-name="Icircumflex" unicode="&#xce;" horiz-adv-x="291" 
d="M104 0v714h83v-714h-83zM145 874l-68 -80h-84l127 133h51l127 -133h-84z" />
    <glyph glyph-name="Idieresis" unicode="&#xcf;" horiz-adv-x="291" 
d="M104 0v714h83v-714h-83zM12 797v104h72v-104h-72zM207 797v104h72v-104h-72z" />
    <glyph glyph-name="Eth" unicode="&#xd0;" horiz-adv-x="678" 
d="M104 396v318h227q130 2 196.5 -67.5t62.5 -203.5v-171q4 -135 -62 -204.5t-197 -67.5h-227v327h-84v69h84zM187 396h170v-69h-170v-258h131q97 -2 143 49t46 162v154q0 111 -46 162t-143 49h-131v-249z" />
    <glyph glyph-name="Ntilde" unicode="&#xd1;" horiz-adv-x="721" 
d="M104 0v714h80l352 -572v572h81v-714h-80l-352 572v-572h-81zM258 804h-51q13 52 25 71q25 43 72 43q37 0 73 -32t53 -32q27 0 41 56h51q-12 -50 -23 -73q-23 -41 -71 -41q-38 0 -75 34q-34 30 -52 30q-29 0 -43 -56z" />
    <glyph glyph-name="Ograve" unicode="&#xd2;" horiz-adv-x="676" 
d="M87 269v176q0 75 13.5 122t45.5 82q67 74 192 74q136 0 203 -86q48 -64 48 -192v-176q0 -76 -13.5 -122.5t-45.5 -81.5q-67 -74 -192 -74q-136 0 -202 86q-49 63 -49 192zM506 277v160q0 109 -39 159q-42 57 -129 57q-93 0 -136 -66q-32 -51 -32 -150v-160
q0 -109 39 -159q42 -57 129 -57q93 0 136 66q32 51 32 150zM391 789h-61l-111 142h97z" />
    <glyph glyph-name="Oacute" unicode="&#xd3;" horiz-adv-x="676" 
d="M87 269v176q0 75 13.5 122t45.5 82q67 74 192 74q136 0 203 -86q48 -64 48 -192v-176q0 -76 -13.5 -122.5t-45.5 -81.5q-67 -74 -192 -74q-136 0 -202 86q-49 63 -49 192zM506 277v160q0 109 -39 159q-42 57 -129 57q-93 0 -136 -66q-32 -51 -32 -150v-160
q0 -109 39 -159q42 -57 129 -57q93 0 136 66q32 51 32 150zM288 789l75 142h97l-112 -142h-60z" />
    <glyph glyph-name="Ocircumflex" unicode="&#xd4;" horiz-adv-x="676" 
d="M87 269v176q0 75 13.5 122t45.5 82q67 74 192 74q136 0 203 -86q48 -64 48 -192v-176q0 -76 -13.5 -122.5t-45.5 -81.5q-67 -74 -192 -74q-136 0 -202 86q-49 63 -49 192zM506 277v160q0 109 -39 159q-42 57 -129 57q-93 0 -136 -66q-32 -51 -32 -150v-160
q0 -109 39 -159q42 -57 129 -57q93 0 136 66q32 51 32 150zM338 874l-68 -80h-84l127 133h51l127 -133h-84z" />
    <glyph glyph-name="Otilde" unicode="&#xd5;" horiz-adv-x="676" 
d="M87 269v176q0 75 13.5 122t45.5 82q67 74 192 74q136 0 203 -86q48 -64 48 -192v-176q0 -76 -13.5 -122.5t-45.5 -81.5q-67 -74 -192 -74q-136 0 -202 86q-49 63 -49 192zM506 277v160q0 109 -39 159q-42 57 -129 57q-93 0 -136 -66q-32 -51 -32 -150v-160
q0 -109 39 -159q42 -57 129 -57q93 0 136 66q32 51 32 150zM231 804h-51q13 52 25 71q25 43 72 43q37 0 73 -32t53 -32q27 0 41 56h51q-12 -50 -23 -73q-23 -41 -71 -41q-38 0 -75 34q-34 30 -52 30q-29 0 -43 -56z" />
    <glyph glyph-name="Odieresis" unicode="&#xd6;" horiz-adv-x="676" 
d="M87 269v176q0 75 13.5 122t45.5 82q67 74 192 74q136 0 203 -86q48 -64 48 -192v-176q0 -76 -13.5 -122.5t-45.5 -81.5q-67 -74 -192 -74q-136 0 -202 86q-49 63 -49 192zM506 277v160q0 109 -39 159q-42 57 -129 57q-93 0 -136 -66q-32 -51 -32 -150v-160
q0 -109 39 -159q42 -57 129 -57q93 0 136 66q32 51 32 150zM204 797v104h72v-104h-72zM399 797v104h72v-104h-72z" />
    <glyph glyph-name="multiply" unicode="&#xd7;" 
d="M225 363l-159 159l46 46l158 -159l159 159l45 -46l-158 -159l158 -158l-45 -46l-159 158l-158 -158l-46 46z" />
    <glyph glyph-name="Oslash" unicode="&#xd8;" horiz-adv-x="675" 
d="M601 692l-49 -73q36 -63 36 -174v-176q0 -76 -13.5 -122.5t-45.5 -81.5q-65 -74 -195 -74q-105 0 -165 51l-41 -62l-54 39l49 74q-37 63 -37 176v176q0 75 13.5 122t45.5 82q67 74 192 74q107 0 170 -52l40 60zM496 534l-282 -425q44 -48 123 -48q93 0 136 66
q32 51 32 150v160q0 65 -9 97zM179 177l283 426q-43 50 -125 50q-93 0 -136 -66q-32 -51 -32 -150v-160q0 -66 10 -100z" />
    <glyph glyph-name="Ugrave" unicode="&#xd9;" horiz-adv-x="690" 
d="M101 714h83v-452q0 -96 26 -138q42 -63 135 -63q102 0 141 73q20 40 20 128v452h83v-452q0 -76 -9 -116.5t-34 -71.5q-63 -83 -201 -83q-149 0 -210 95q-19 30 -26.5 68t-7.5 108v452zM408 789h-61l-111 142h97z" />
    <glyph glyph-name="Uacute" unicode="&#xda;" horiz-adv-x="690" 
d="M101 714h83v-452q0 -96 26 -138q42 -63 135 -63q102 0 141 73q20 40 20 128v452h83v-452q0 -76 -9 -116.5t-34 -71.5q-63 -83 -201 -83q-149 0 -210 95q-19 30 -26.5 68t-7.5 108v452zM302 789l75 142h97l-112 -142h-60z" />
    <glyph glyph-name="Ucircumflex" unicode="&#xdb;" horiz-adv-x="690" 
d="M101 714h83v-452q0 -96 26 -138q42 -63 135 -63q102 0 141 73q20 40 20 128v452h83v-452q0 -76 -9 -116.5t-34 -71.5q-63 -83 -201 -83q-149 0 -210 95q-19 30 -26.5 68t-7.5 108v452zM344 874l-68 -80h-84l127 133h51l127 -133h-84z" />
    <glyph glyph-name="Udieresis" unicode="&#xdc;" horiz-adv-x="690" 
d="M101 714h83v-452q0 -96 26 -138q42 -63 135 -63q102 0 141 73q20 40 20 128v452h83v-452q0 -76 -9 -116.5t-34 -71.5q-63 -83 -201 -83q-149 0 -210 95q-19 30 -26.5 68t-7.5 108v452zM211 797v104h72v-104h-72zM406 797v104h72v-104h-72z" />
    <glyph glyph-name="Yacute" unicode="&#xdd;" horiz-adv-x="532" 
d="M225 0v258l-225 456h88l179 -371l178 371h88l-225 -456v-258h-83zM227 789l75 142h97l-112 -142h-60z" />
    <glyph glyph-name="Thorn" unicode="&#xde;" horiz-adv-x="607" 
d="M188 162v-162h-83v714h83v-115h147q67 0 108 -13t69 -44q52 -55 52 -161q0 -116 -61 -171q-52 -48 -168 -48h-147zM188 231h147q75 0 110.5 36.5t35.5 113.5t-35.5 113t-110.5 36h-147v-299z" />
    <glyph glyph-name="germandbls" unicode="&#xdf;" horiz-adv-x="569" 
d="M88 0v536q0 95 46 140.5t141 45.5q92 0 140.5 -40t48.5 -117q0 -39 -10 -63t-40 -56q46 -20 66.5 -66.5t19.5 -130.5v-37q1 -116 -40 -164.5t-140 -47.5h-48v66h40q64 -1 86.5 28.5t22.5 112.5v46q0 90 -22 121t-83 29h-19v60h17q75 0 75 93q0 102 -111 102
q-58 0 -84.5 -28.5t-26.5 -92.5v-537h-79z" />
    <glyph glyph-name="agrave" unicode="&#xe0;" horiz-adv-x="525" 
d="M361 295v35q0 54 -18 80q-27 36 -92 36q-75 0 -120 -51l-55 42q65 75 182 75q118 0 161 -73q21 -38 21 -121v-318h-63l-6 36q-24 -25 -56.5 -35t-89.5 -10q-97 0 -136.5 33.5t-39.5 115.5q0 87 42 121t149 34h121zM361 235h-113q-67 0 -95 -21.5t-28 -71.5
q0 -48 25.5 -66.5t92.5 -18.5q78 0 104 33q14 18 14 67v78zM326 582h-61l-111 142h97z" />
    <glyph glyph-name="aacute" unicode="&#xe1;" horiz-adv-x="525" 
d="M361 295v35q0 54 -18 80q-27 36 -92 36q-75 0 -120 -51l-55 42q65 75 182 75q118 0 161 -73q21 -38 21 -121v-318h-63l-6 36q-24 -25 -56.5 -35t-89.5 -10q-97 0 -136.5 33.5t-39.5 115.5q0 87 42 121t149 34h121zM361 235h-113q-67 0 -95 -21.5t-28 -71.5
q0 -48 25.5 -66.5t92.5 -18.5q78 0 104 33q14 18 14 67v78zM220 582l75 142h97l-112 -142h-60z" />
    <glyph glyph-name="acircumflex" unicode="&#xe2;" horiz-adv-x="525" 
d="M361 295v35q0 54 -18 80q-27 36 -92 36q-75 0 -120 -51l-55 42q65 75 182 75q118 0 161 -73q21 -38 21 -121v-318h-63l-6 36q-24 -25 -56.5 -35t-89.5 -10q-97 0 -136.5 33.5t-39.5 115.5q0 87 42 121t149 34h121zM361 235h-113q-67 0 -95 -21.5t-28 -71.5
q0 -48 25.5 -66.5t92.5 -18.5q78 0 104 33q14 18 14 67v78zM262 667l-68 -81h-84l127 134h51l127 -134h-84z" />
    <glyph glyph-name="atilde" unicode="&#xe3;" horiz-adv-x="525" 
d="M361 295v35q0 54 -18 80q-27 36 -92 36q-75 0 -120 -51l-55 42q65 75 182 75q118 0 161 -73q21 -38 21 -121v-318h-63l-6 36q-24 -25 -56.5 -35t-89.5 -10q-97 0 -136.5 33.5t-39.5 115.5q0 87 42 121t149 34h121zM361 235h-113q-67 0 -95 -21.5t-28 -71.5
q0 -48 25.5 -66.5t92.5 -18.5q78 0 104 33q14 18 14 67v78zM156 596h-51q13 52 25 72q25 43 72 43q37 0 73 -32t53 -32q27 0 41 56h51q-12 -52 -23 -73q-23 -42 -71 -42q-38 0 -75 34q-34 30 -51 30q-30 0 -44 -56z" />
    <glyph glyph-name="adieresis" unicode="&#xe4;" horiz-adv-x="525" 
d="M361 295v35q0 54 -18 80q-27 36 -92 36q-75 0 -120 -51l-55 42q65 75 182 75q118 0 161 -73q21 -38 21 -121v-318h-63l-6 36q-24 -25 -56.5 -35t-89.5 -10q-97 0 -136.5 33.5t-39.5 115.5q0 87 42 121t149 34h121zM361 235h-113q-67 0 -95 -21.5t-28 -71.5
q0 -48 25.5 -66.5t92.5 -18.5q78 0 104 33q14 18 14 67v78zM130 590v104h72v-104h-72zM323 590v104h72v-104h-72z" />
    <glyph glyph-name="aring" unicode="&#xe5;" horiz-adv-x="525" 
d="M361 295v35q0 54 -18 80q-27 36 -92 36q-75 0 -120 -51l-55 42q65 75 182 75q118 0 161 -73q21 -38 21 -121v-318h-63l-6 36q-24 -25 -56.5 -35t-89.5 -10q-97 0 -136.5 33.5t-39.5 115.5q0 87 42 121t149 34h121zM361 235h-113q-67 0 -95 -21.5t-28 -71.5
q0 -48 25.5 -66.5t92.5 -18.5q78 0 104 33q14 18 14 67v78zM267 777q47 0 75.5 -28t28.5 -73q0 -46 -29 -74.5t-76 -28.5t-76 28.5t-29 74.5t28.5 73.5t77.5 27.5zM267 735q-51 0 -51 -60t50 -60t50 60t-49 60z" />
    <glyph glyph-name="ae" unicode="&#xe6;" horiz-adv-x="834" 
d="M131 395l-55 42q63 75 181 75q108 0 153 -67q50 67 159 67q104 0 153 -58.5t49 -182.5v-36h-329v-21q0 -77 36 -117t104 -40q76 0 115 49l60 -38q-57 -77 -181 -77q-120 0 -173 79q-28 -45 -66 -62t-112 -17q-97 0 -136.5 33.5t-39.5 115.5q0 87 42 121t149 34h121v35
q0 54 -18 80q-27 36 -92 36q-75 0 -120 -51zM361 235h-113q-67 0 -95 -21.5t-28 -71.5q0 -47 26 -66t90 -19q76 0 102 37q18 26 18 87v54zM442 295h253v8q0 62 -27 100q-30 43 -99 43q-77 0 -105 -51q-22 -38 -22 -92v-8z" />
    <glyph glyph-name="ccedilla" unicode="&#xe7;" horiz-adv-x="475" 
d="M386 106l59 -36q-56 -79 -172 -79q-202 0 -202 234v41q0 125 49 185.5t150 60.5q115 0 166 -82l-61 -35q-22 29 -44 40t-56 11q-125 0 -125 -174v-55q0 -160 127 -160q70 0 109 49zM168 -222l52 153h83l-79 -153h-56z" />
    <glyph glyph-name="egrave" unicode="&#xe8;" horiz-adv-x="543" 
d="M151 235v-21q0 -77 36 -117t104 -40q74 0 115 49l59 -38q-57 -77 -182 -77q-108 0 -160 58t-52 179v43q0 125 49 183t155 58t155 -58t49 -183v-36h-328zM151 295h252v8q0 62 -27 100q-30 43 -98 43q-76 0 -106 -51q-21 -39 -21 -92v-8zM332 582h-61l-111 142h97z" />
    <glyph glyph-name="eacute" unicode="&#xe9;" horiz-adv-x="543" 
d="M151 235v-21q0 -77 36 -117t104 -40q74 0 115 49l59 -38q-57 -77 -182 -77q-108 0 -160 58t-52 179v43q0 125 49 183t155 58t155 -58t49 -183v-36h-328zM151 295h252v8q0 62 -27 100q-30 43 -98 43q-76 0 -106 -51q-21 -39 -21 -92v-8zM230 582l75 142h97l-112 -142h-60z
" />
    <glyph glyph-name="ecircumflex" unicode="&#xea;" horiz-adv-x="543" 
d="M151 235v-21q0 -77 36 -117t104 -40q74 0 115 49l59 -38q-57 -77 -182 -77q-108 0 -160 58t-52 179v43q0 125 49 183t155 58t155 -58t49 -183v-36h-328zM151 295h252v8q0 62 -27 100q-30 43 -98 43q-76 0 -106 -51q-21 -39 -21 -92v-8zM279 667l-68 -81h-84l127 134h51
l127 -134h-84z" />
    <glyph glyph-name="edieresis" unicode="&#xeb;" horiz-adv-x="543" 
d="M151 235v-21q0 -77 36 -117t104 -40q74 0 115 49l59 -38q-57 -77 -182 -77q-108 0 -160 58t-52 179v43q0 125 49 183t155 58t155 -58t49 -183v-36h-328zM151 295h252v8q0 62 -27 100q-30 43 -98 43q-76 0 -106 -51q-21 -39 -21 -92v-8zM147 590v104h72v-104h-72zM340 590
v104h72v-104h-72z" />
    <glyph glyph-name="igrave" unicode="&#xec;" horiz-adv-x="255" 
d="M88 0v502h79v-502h-79zM174 582h-61l-111 142h97z" />
    <glyph glyph-name="iacute" unicode="&#xed;" horiz-adv-x="255" 
d="M84 0v502h79v-502h-79zM78 582l75 142h97l-112 -142h-60z" />
    <glyph glyph-name="icircumflex" unicode="&#xee;" horiz-adv-x="255" 
d="M88 0v502h79v-502h-79zM127 667l-68 -81h-84l127 134h51l127 -134h-84z" />
    <glyph glyph-name="idieresis" unicode="&#xef;" horiz-adv-x="255" 
d="M87 0v502h79v-502h-79zM-6 590v104h72v-104h-72zM187 590v104h72v-104h-72z" />
    <glyph glyph-name="eth" unicode="&#xf0;" horiz-adv-x="557" 
d="M71 212v70q0 222 195 222q65 0 104 -31q-28 73 -52 100l-115 -55l-31 51l98 47q-55 40 -123 49l11 54q102 -11 179 -72l84 40l31 -51l-70 -33q47 -59 75 -146.5t29 -174.5v-70q0 -114 -50.5 -167.5t-158.5 -53.5q-106 0 -156 54t-50 167zM407 217v61q0 82 -31.5 121
t-97.5 39q-65 0 -96.5 -39t-31.5 -121v-61q0 -82 31.5 -121t96.5 -39q66 0 97.5 39t31.5 121z" />
    <glyph glyph-name="ntilde" unicode="&#xf1;" horiz-adv-x="565" 
d="M88 0v502h61l6 -56q43 66 142 66q135 0 169 -97q15 -43 15 -127v-288h-79v281q0 88 -26.5 125.5t-87.5 37.5q-65 0 -93 -43.5t-28 -145.5v-255h-79zM176 596h-51q13 52 25 72q25 43 72 43q37 0 73 -32t53 -32q27 0 41 56h51q-12 -52 -23 -73q-23 -42 -71 -42
q-38 0 -75 34q-34 30 -51 30q-30 0 -44 -56z" />
    <glyph glyph-name="ograve" unicode="&#xf2;" horiz-adv-x="557" 
d="M71 212v78q0 113 50 167.5t156 54.5q108 0 158.5 -53.5t50.5 -168.5v-78q0 -114 -50.5 -167.5t-158.5 -53.5q-106 0 -156 54t-50 167zM407 217v68q0 82 -31.5 121.5t-97.5 39.5q-65 0 -96.5 -39.5t-31.5 -121.5v-68q0 -82 31.5 -121t96.5 -39q66 0 97.5 39t31.5 121z
M331 582h-61l-111 142h97z" />
    <glyph glyph-name="oacute" unicode="&#xf3;" horiz-adv-x="557" 
d="M71 212v78q0 113 50 167.5t156 54.5q108 0 158.5 -53.5t50.5 -168.5v-78q0 -114 -50.5 -167.5t-158.5 -53.5q-106 0 -156 54t-50 167zM407 217v68q0 82 -31.5 121.5t-97.5 39.5q-65 0 -96.5 -39.5t-31.5 -121.5v-68q0 -82 31.5 -121t96.5 -39q66 0 97.5 39t31.5 121z
M228 582l75 142h97l-112 -142h-60z" />
    <glyph glyph-name="ocircumflex" unicode="&#xf4;" horiz-adv-x="557" 
d="M71 212v78q0 113 50 167.5t156 54.5q108 0 158.5 -53.5t50.5 -168.5v-78q0 -114 -50.5 -167.5t-158.5 -53.5q-106 0 -156 54t-50 167zM407 217v68q0 82 -31.5 121.5t-97.5 39.5q-65 0 -96.5 -39.5t-31.5 -121.5v-68q0 -82 31.5 -121t96.5 -39q66 0 97.5 39t31.5 121z
M278 667l-68 -81h-84l127 134h51l127 -134h-84z" />
    <glyph glyph-name="otilde" unicode="&#xf5;" horiz-adv-x="557" 
d="M71 212v78q0 113 50 167.5t156 54.5q108 0 158.5 -53.5t50.5 -168.5v-78q0 -114 -50.5 -167.5t-158.5 -53.5q-106 0 -156 54t-50 167zM407 217v68q0 82 -31.5 121.5t-97.5 39.5q-65 0 -96.5 -39.5t-31.5 -121.5v-68q0 -82 31.5 -121t96.5 -39q66 0 97.5 39t31.5 121z
M172 596h-51q13 52 25 72q25 43 72 43q37 0 73 -32t53 -32q27 0 41 56h51q-12 -52 -23 -73q-23 -42 -71 -42q-38 0 -75 34q-34 30 -51 30q-30 0 -44 -56z" />
    <glyph glyph-name="odieresis" unicode="&#xf6;" horiz-adv-x="557" 
d="M71 212v78q0 113 50 167.5t156 54.5q108 0 158.5 -53.5t50.5 -168.5v-78q0 -114 -50.5 -167.5t-158.5 -53.5q-106 0 -156 54t-50 167zM407 217v68q0 82 -31.5 121.5t-97.5 39.5q-65 0 -96.5 -39.5t-31.5 -121.5v-68q0 -82 31.5 -121t96.5 -39q66 0 97.5 39t31.5 121z
M145 590v104h72v-104h-72zM338 590v104h72v-104h-72z" />
    <glyph glyph-name="divide" unicode="&#xf7;" 
d="M35 330v66h470v-66h-470zM234 157v90h73v-90h-73zM234 479v90h73v-90h-73z" />
    <glyph glyph-name="oslash" unicode="&#xf8;" horiz-adv-x="557" 
d="M487 490l-37 -52q36 -50 36 -148v-77q0 -114 -50.5 -168t-157.5 -54q-81 0 -127 31l-33 -46l-48 37l37 51q-36 53 -35 149v77q0 114 50.5 168t156.5 54q79 0 127 -31l33 46zM397 364l-202 -280q30 -27 83 -27q129 0 129 161v67q0 42 -10 79zM161 139l201 280
q-31 27 -82 27q-129 0 -129 -161v-67q0 -49 10 -79z" />
    <glyph glyph-name="ugrave" unicode="&#xf9;" horiz-adv-x="555" 
d="M84 502h79v-280q0 -66 13 -101q24 -62 96 -62q62 0 89 43.5t27 144.5v255h79v-502h-61l-6 56q-42 -65 -138 -65q-130 0 -163 97q-15 42 -15 126v288zM330 582h-61l-111 142h97z" />
    <glyph glyph-name="uacute" unicode="&#xfa;" horiz-adv-x="555" 
d="M84 502h79v-280q0 -66 13 -101q24 -62 96 -62q62 0 89 43.5t27 144.5v255h79v-502h-61l-6 56q-42 -65 -138 -65q-130 0 -163 97q-15 42 -15 126v288zM227 582l75 142h97l-112 -142h-60z" />
    <glyph glyph-name="ucircumflex" unicode="&#xfb;" horiz-adv-x="555" 
d="M84 502h79v-280q0 -66 13 -101q24 -62 96 -62q62 0 89 43.5t27 144.5v255h79v-502h-61l-6 56q-42 -65 -138 -65q-130 0 -163 97q-15 42 -15 126v288zM277 667l-68 -81h-84l127 134h51l127 -134h-84z" />
    <glyph glyph-name="udieresis" unicode="&#xfc;" horiz-adv-x="555" 
d="M84 502h79v-280q0 -66 13 -101q24 -62 96 -62q62 0 89 43.5t27 144.5v255h79v-502h-61l-6 56q-42 -65 -138 -65q-130 0 -163 97q-15 42 -15 126v288zM145 590v104h72v-104h-72zM338 590v104h72v-104h-72z" />
    <glyph glyph-name="yacute" unicode="&#xfd;" horiz-adv-x="488" 
d="M207 1l-185 501h80l147 -412l131 412h80l-197 -583q-35 -96 -70.5 -122t-132.5 -27v67q56 0 78 16t44 74zM204 582l75 142h97l-112 -142h-60z" />
    <glyph glyph-name="thorn" unicode="&#xfe;" horiz-adv-x="565" 
d="M168 37v-262h-79v939h79v-245q50 43 138 43q97 0 142.5 -54.5t45.5 -168.5v-76q0 -114 -46 -168t-143 -54q-85 0 -137 46zM415 218v66q0 162 -122 162q-125 0 -125 -154v-82q0 -153 125 -153q122 0 122 161z" />
    <glyph glyph-name="ydieresis" unicode="&#xff;" horiz-adv-x="488" 
d="M207 1l-185 501h80l147 -412l131 412h80l-197 -583q-35 -96 -70.5 -122t-132.5 -27v67q56 0 78 16t44 74zM111 590v104h72v-104h-72zM304 590v104h72v-104h-72z" />
    <glyph glyph-name="Amacron" unicode="&#x100;" horiz-adv-x="600" 
d="M457 156h-313l-54 -156h-90l261 714h79l261 -714h-90zM436 225l-135 383l-135 -383h270zM172 827v58h257v-58h-257z" />
    <glyph glyph-name="amacron" unicode="&#x101;" horiz-adv-x="525" 
d="M361 295v35q0 54 -18 80q-27 36 -92 36q-75 0 -120 -51l-55 42q65 75 182 75q118 0 161 -73q21 -38 21 -121v-318h-63l-6 36q-24 -25 -56.5 -35t-89.5 -10q-97 0 -136.5 33.5t-39.5 115.5q0 87 42 121t149 34h121zM361 235h-113q-67 0 -95 -21.5t-28 -71.5
q0 -48 25.5 -66.5t92.5 -18.5q78 0 104 33q14 18 14 67v78zM134 619v58h257v-58h-257z" />
    <glyph glyph-name="Abreve" unicode="&#x102;" horiz-adv-x="600" 
d="M457 156h-313l-54 -156h-90l261 714h79l261 -714h-90zM436 225l-135 383l-135 -383h270zM161 923h54q5 -43 24 -60t61 -17q43 0 61.5 17t23.5 60h55q-4 -59 -18 -85q-30 -53 -122 -53q-97 0 -126 61q-10 24 -13 77z" />
    <glyph glyph-name="abreve" unicode="&#x103;" horiz-adv-x="525" 
d="M361 295v35q0 54 -18 80q-27 36 -92 36q-75 0 -120 -51l-55 42q65 75 182 75q118 0 161 -73q21 -38 21 -121v-318h-63l-6 36q-24 -25 -56.5 -35t-89.5 -10q-97 0 -136.5 33.5t-39.5 115.5q0 87 42 121t149 34h121zM361 235h-113q-67 0 -95 -21.5t-28 -71.5
q0 -48 25.5 -66.5t92.5 -18.5q78 0 104 33q14 18 14 67v78zM125 715h54q5 -43 24 -60t61 -17q43 0 61.5 17t23.5 60h55q-4 -59 -18 -85q-30 -53 -122 -53q-97 0 -126 62q-10 22 -13 76z" />
    <glyph glyph-name="Aogonek" unicode="&#x104;" horiz-adv-x="600" 
d="M340 714l261 -714q-97 -55 -97 -105q0 -41 51 -41q26 0 59 10l8 -46q-39 -14 -80 -14q-110 0 -110 79q0 35 27 66.5t72 50.5h-20l-54 156h-313l-54 -156h-90l261 714h79zM436 225l-135 383l-135 -383h270z" />
    <glyph glyph-name="aogonek" unicode="&#x105;" horiz-adv-x="525" 
d="M440 318v-318q-96 -55 -96 -105q0 -41 51 -41q25 0 58 10l8 -46q-41 -14 -80 -14q-109 0 -109 79q0 73 104 120l-5 33q-24 -25 -56.5 -35t-89.5 -10q-97 0 -136.5 33.5t-39.5 115.5q0 87 42 121t149 34h121v35q0 54 -18 80q-27 36 -92 36q-75 0 -120 -51l-55 42
q65 75 182 75q118 0 161 -73q21 -38 21 -121zM361 235h-113q-67 0 -95 -21.5t-28 -71.5q0 -48 25.5 -66.5t92.5 -18.5q78 0 104 33q14 18 14 67v78z" />
    <glyph glyph-name="Cacute" unicode="&#x106;" horiz-adv-x="632" 
d="M481 177l77 -9q-5 -85 -65.5 -131t-166.5 -46q-136 0 -196 90q-43 64 -43 202v147q0 81 12 130.5t41 84.5q62 77 187 77q103 0 161.5 -47t62.5 -133l-76 -6q-7 56 -45.5 86t-101.5 30q-84 0 -121 -52.5t-37 -173.5v-138q0 -122 36.5 -174.5t122.5 -52.5q64 0 104 30
t48 86zM277 789l75 142h97l-112 -142h-60z" />
    <glyph glyph-name="cacute" unicode="&#x107;" horiz-adv-x="475" 
d="M386 106l59 -36q-56 -79 -172 -79q-202 0 -202 234v41q0 125 49 185.5t150 60.5q115 0 166 -82l-61 -35q-22 29 -44 40t-56 11q-125 0 -125 -174v-55q0 -160 127 -160q70 0 109 49zM220 582l75 142h97l-112 -142h-60z" />
    <glyph glyph-name="Ccircumflex" unicode="&#x108;" horiz-adv-x="632" 
d="M481 177l77 -9q-5 -85 -65.5 -131t-166.5 -46q-136 0 -196 90q-43 64 -43 202v147q0 81 12 130.5t41 84.5q62 77 187 77q103 0 161.5 -47t62.5 -133l-76 -6q-7 56 -45.5 86t-101.5 30q-84 0 -121 -52.5t-37 -173.5v-138q0 -122 36.5 -174.5t122.5 -52.5q64 0 104 30
t48 86zM326 874l-68 -80h-84l127 133h51l127 -133h-84z" />
    <glyph glyph-name="ccircumflex" unicode="&#x109;" horiz-adv-x="475" 
d="M386 106l59 -36q-56 -79 -172 -79q-202 0 -202 234v41q0 125 49 185.5t150 60.5q115 0 166 -82l-61 -35q-22 29 -44 40t-56 11q-125 0 -125 -174v-55q0 -160 127 -160q70 0 109 49zM266 667l-68 -81h-84l127 134h51l127 -134h-84z" />
    <glyph glyph-name="Cdotaccent" unicode="&#x10a;" horiz-adv-x="632" 
d="M481 177l77 -9q-5 -85 -65.5 -131t-166.5 -46q-136 0 -196 90q-43 64 -43 202v147q0 81 12 130.5t41 84.5q62 77 187 77q103 0 161.5 -47t62.5 -133l-76 -6q-7 56 -45.5 86t-101.5 30q-84 0 -121 -52.5t-37 -173.5v-138q0 -122 36.5 -174.5t122.5 -52.5q64 0 104 30
t48 86zM289 797v104h78v-104h-78z" />
    <glyph glyph-name="cdotaccent" unicode="&#x10b;" horiz-adv-x="475" 
d="M386 106l59 -36q-56 -79 -172 -79q-202 0 -202 234v41q0 125 49 185.5t150 60.5q115 0 166 -82l-61 -35q-22 29 -44 40t-56 11q-125 0 -125 -174v-55q0 -160 127 -160q70 0 109 49zM229 590v104h78v-104h-78z" />
    <glyph glyph-name="Ccaron" unicode="&#x10c;" horiz-adv-x="632" 
d="M481 177l77 -9q-5 -85 -65.5 -131t-166.5 -46q-136 0 -196 90q-43 64 -43 202v147q0 81 12 130.5t41 84.5q62 77 187 77q103 0 161.5 -47t62.5 -133l-76 -6q-7 56 -45.5 86t-101.5 30q-84 0 -121 -52.5t-37 -173.5v-138q0 -122 36.5 -174.5t122.5 -52.5q64 0 104 30
t48 86zM327 845l68 81h84l-127 -134h-51l-127 134h84z" />
    <glyph glyph-name="ccaron" unicode="&#x10d;" horiz-adv-x="475" 
d="M386 106l59 -36q-56 -79 -172 -79q-202 0 -202 234v41q0 125 49 185.5t150 60.5q115 0 166 -82l-61 -35q-22 29 -44 40t-56 11q-125 0 -125 -174v-55q0 -160 127 -160q70 0 109 49zM273 638l68 80h84l-127 -133h-51l-127 133h84z" />
    <glyph glyph-name="Dcaron" unicode="&#x10e;" horiz-adv-x="678" 
d="M104 0v714h228q130 2 196.5 -67.5t62.5 -204.5v-170q4 -135 -62 -204.5t-197 -67.5h-228zM187 69h131q98 -2 144 49t46 162v154q0 111 -46 162t-144 49h-131v-576zM310 845l68 81h84l-127 -134h-51l-127 134h84z" />
    <glyph glyph-name="dcaron" unicode="&#x10f;" horiz-adv-x="641" 
d="M414 0l-5 43l-3 -3l-2 -1q-9 -9 -14 -13q-37 -35 -129 -35q-98 0 -144 54t-46 168v76q0 115 45.5 169t142.5 54q66 0 110 -25q17 -13 28 -23v250h79v-714h-62zM150 284v-66q0 -161 122 -161q125 0 125 153v82q0 154 -125 154q-122 0 -122 -162zM556 492l26 230h82
l-52 -230h-56z" />
    <glyph glyph-name="Dcroat" unicode="&#x110;" horiz-adv-x="678" 
d="M104 396v318h227q130 2 196.5 -67.5t62.5 -203.5v-171q4 -135 -62 -204.5t-197 -67.5h-227v327h-84v69h84zM187 396h170v-69h-170v-258h131q97 -2 143 49t46 162v154q0 111 -46 162t-143 49h-131v-249z" />
    <glyph glyph-name="dcroat" unicode="&#x111;" horiz-adv-x="565" 
d="M397 572h-151v56h151v86h79v-86h82v-56h-82v-572h-62l-5 43l-3 -3l-2 -1q-9 -9 -14 -13q-37 -35 -129 -35q-98 0 -144 54t-46 168v76q0 115 45.5 169t142.5 54q49 0 77.5 -10t60.5 -38v108zM150 284v-66q0 -161 122 -161q125 0 125 153v82q0 154 -125 154
q-122 0 -122 -162z" />
    <glyph glyph-name="Emacron" unicode="&#x112;" horiz-adv-x="579" 
d="M104 0v714h417v-70h-335v-248h286v-70h-286v-256h336v-70h-418zM182 827v58h257v-58h-257z" />
    <glyph glyph-name="emacron" unicode="&#x113;" horiz-adv-x="543" 
d="M151 235v-21q0 -77 36 -117t104 -40q74 0 115 49l59 -38q-57 -77 -182 -77q-108 0 -160 58t-52 179v43q0 125 49 183t155 58t155 -58t49 -183v-36h-328zM151 295h252v8q0 62 -27 100q-30 43 -98 43q-76 0 -106 -51q-21 -39 -21 -92v-8zM150 619v58h257v-58h-257z" />
    <glyph glyph-name="Ebreve" unicode="&#x114;" horiz-adv-x="579" 
d="M104 0v714h417v-70h-335v-248h286v-70h-286v-256h336v-70h-418zM173 923h54q5 -43 24 -60t61 -17q43 0 61.5 17t23.5 60h55q-4 -59 -18 -85q-30 -53 -122 -53q-97 0 -126 61q-10 24 -13 77z" />
    <glyph glyph-name="ebreve" unicode="&#x115;" horiz-adv-x="543" 
d="M151 235v-21q0 -77 36 -117t104 -40q74 0 115 49l59 -38q-57 -77 -182 -77q-108 0 -160 58t-52 179v43q0 125 49 183t155 58t155 -58t49 -183v-36h-328zM151 295h252v8q0 62 -27 100q-30 43 -98 43q-76 0 -106 -51q-21 -39 -21 -92v-8zM136 715h54q5 -43 24 -60t61 -17
q43 0 61.5 17t23.5 60h55q-4 -59 -18 -85q-30 -53 -122 -53q-97 0 -126 62q-10 22 -13 76z" />
    <glyph glyph-name="Edotaccent" unicode="&#x116;" horiz-adv-x="579" 
d="M104 0v714h417v-70h-335v-248h286v-70h-286v-256h336v-70h-418zM278 797v104h78v-104h-78z" />
    <glyph glyph-name="edotaccent" unicode="&#x117;" horiz-adv-x="543" 
d="M151 235v-21q0 -77 36 -117t104 -40q74 0 115 49l59 -38q-57 -77 -182 -77q-108 0 -160 58t-52 179v43q0 125 49 183t155 58t155 -58t49 -183v-36h-328zM151 295h252v8q0 62 -27 100q-30 43 -98 43q-76 0 -106 -51q-21 -39 -21 -92v-8zM240 590v104h78v-104h-78z" />
    <glyph glyph-name="Eogonek" unicode="&#x118;" horiz-adv-x="579" 
d="M104 0v714h417v-70h-335v-248h286v-70h-286v-256h336v-70q-96 -54 -96 -105q0 -41 51 -41q25 0 58 10l8 -46q-43 -14 -80 -14q-110 0 -110 79q0 71 98 117h-347z" />
    <glyph glyph-name="eogonek" unicode="&#x119;" horiz-adv-x="543" 
d="M152 235v-21q0 -77 36 -117t104 -40q75 0 115 49l59 -36q-30 -45 -82 -64l-10 -6q-45 -28 -64.5 -52t-19.5 -52q0 -42 51 -42q25 0 58 10l9 -46q-42 -14 -80 -14q-110 0 -110 80q0 61 69 107q-216 -3 -215 237v43q0 123 50 182t154 59q106 0 155 -58t49 -183v-36h-328z
M152 295h252v8q0 62 -27 99q-30 43 -98 43q-76 0 -106 -50q-21 -39 -21 -92v-8z" />
    <glyph glyph-name="Ecaron" unicode="&#x11a;" horiz-adv-x="579" 
d="M104 0v714h417v-70h-335v-248h286v-70h-286v-256h336v-70h-418zM318 845l68 81h84l-127 -134h-51l-127 134h84z" />
    <glyph glyph-name="ecaron" unicode="&#x11b;" horiz-adv-x="543" 
d="M151 235v-21q0 -77 36 -117t104 -40q74 0 115 49l59 -38q-57 -77 -182 -77q-108 0 -160 58t-52 179v43q0 125 49 183t155 58t155 -58t49 -183v-36h-328zM151 295h252v8q0 62 -27 100q-30 43 -98 43q-76 0 -106 -51q-21 -39 -21 -92v-8zM280 638l68 80h84l-127 -133h-51
l-127 133h84z" />
    <glyph glyph-name="Gcircumflex" unicode="&#x11c;" horiz-adv-x="663" 
d="M356 308v67h231v-112q0 -72 -12 -116t-41 -79q-65 -77 -196 -77q-142 0 -207 90q-44 63 -44 202v146q0 83 12.5 132t42.5 84q64 77 190 77q106 0 166.5 -47t65.5 -133l-77 -6q-8 56 -47.5 86t-105.5 30q-88 0 -126 -53t-38 -174v-138q0 -121 39 -173.5t128 -52.5
q93 0 135 59q33 44 33 126v62h-149zM331 874l-68 -80h-84l127 133h51l127 -133h-84z" />
    <glyph glyph-name="gcircumflex" unicode="&#x11d;" horiz-adv-x="565" 
d="M397 -8l1 47q-47 -48 -139 -48q-97 0 -142.5 54t-45.5 168v76q0 115 46 169t144 54t147 -55l6 45h62v-502q0 -234 -214 -234q-120 0 -175 79l59 36q41 -51 113 -51q70 0 103 39t35 123zM150 284v-66q0 -161 122 -161q125 0 125 153v82q0 154 -125 154q-122 0 -122 -162z
M286 667l-68 -81h-84l127 134h51l127 -134h-84z" />
    <glyph glyph-name="Gbreve" unicode="&#x11e;" horiz-adv-x="663" 
d="M356 308v67h231v-112q0 -72 -12 -116t-41 -79q-65 -77 -196 -77q-142 0 -207 90q-44 63 -44 202v146q0 83 12.5 132t42.5 84q64 77 190 77q106 0 166.5 -47t65.5 -133l-77 -6q-8 56 -47.5 86t-105.5 30q-88 0 -126 -53t-38 -174v-138q0 -121 39 -173.5t128 -52.5
q93 0 135 59q33 44 33 126v62h-149zM194 923h54q5 -43 24 -60t61 -17q43 0 61.5 17t23.5 60h55q-4 -59 -18 -85q-30 -53 -122 -53q-97 0 -126 61q-10 24 -13 77z" />
    <glyph glyph-name="gbreve" unicode="&#x11f;" horiz-adv-x="565" 
d="M397 -8l1 47q-47 -48 -139 -48q-97 0 -142.5 54t-45.5 168v76q0 115 46 169t144 54t147 -55l6 45h62v-502q0 -234 -214 -234q-120 0 -175 79l59 36q41 -51 113 -51q70 0 103 39t35 123zM150 284v-66q0 -161 122 -161q125 0 125 153v82q0 154 -125 154q-122 0 -122 -162z
M155 715h54q5 -43 24 -60t61 -17q43 0 61.5 17t23.5 60h55q-4 -59 -18 -85q-30 -53 -122 -53q-97 0 -126 62q-10 22 -13 76z" />
    <glyph glyph-name="Gdotaccent" unicode="&#x120;" horiz-adv-x="663" 
d="M356 308v67h231v-112q0 -72 -12 -116t-41 -79q-65 -77 -196 -77q-142 0 -207 90q-44 63 -44 202v146q0 83 12.5 132t42.5 84q64 77 190 77q106 0 166.5 -47t65.5 -133l-77 -6q-8 56 -47.5 86t-105.5 30q-88 0 -126 -53t-38 -174v-138q0 -121 39 -173.5t128 -52.5
q93 0 135 59q33 44 33 126v62h-149zM294 797v104h78v-104h-78z" />
    <glyph glyph-name="gdotaccent" unicode="&#x121;" horiz-adv-x="565" 
d="M397 -8l1 47q-47 -48 -139 -48q-97 0 -142.5 54t-45.5 168v76q0 115 46 169t144 54t147 -55l6 45h62v-502q0 -234 -214 -234q-120 0 -175 79l59 36q41 -51 113 -51q70 0 103 39t35 123zM150 284v-66q0 -161 122 -161q125 0 125 153v82q0 154 -125 154q-122 0 -122 -162z
M257 590v104h78v-104h-78z" />
    <glyph glyph-name="Gcommaaccent" unicode="&#x122;" horiz-adv-x="663" 
d="M356 308v67h231v-112q0 -72 -12 -116t-41 -79q-65 -77 -196 -77q-142 0 -207 90q-44 63 -44 202v146q0 83 12.5 132t42.5 84q64 77 190 77q106 0 166.5 -47t65.5 -133l-77 -6q-8 56 -47.5 86t-105.5 30q-88 0 -126 -53t-38 -174v-138q0 -121 39 -173.5t128 -52.5
q93 0 135 59q33 44 33 126v62h-149zM255 -222l52 153h83l-79 -153h-56z" />
    <glyph glyph-name="gcommaaccent" unicode="&#x123;" horiz-adv-x="565" 
d="M397 -8l1 47q-47 -48 -139 -48q-97 0 -142.5 54t-45.5 168v76q0 115 46 169t144 54t147 -55l6 45h62v-502q0 -234 -214 -234q-120 0 -175 79l59 36q41 -51 113 -51q70 0 103 39t35 123zM150 284v-66q0 -161 122 -161q125 0 125 153v82q0 154 -125 154q-122 0 -122 -162z
M236 582l111 142h61l-75 -142h-97z" />
    <glyph glyph-name="Hcircumflex" unicode="&#x124;" horiz-adv-x="681" 
d="M104 0v714h83v-318h306v318h83v-714h-83v326h-306v-326h-83zM340 874l-68 -80h-84l127 133h51l127 -133h-84z" />
    <glyph glyph-name="hcircumflex" unicode="&#x125;" horiz-adv-x="565" 
d="M88 0v714h79v-252q44 50 132 50q132 0 167 -97q15 -43 15 -127v-288h-79v281q0 88 -26.5 125.5t-87.5 37.5q-64 0 -92.5 -43.5t-28.5 -141.5v-259h-79zM162 874l-68 -80h-84l127 133h51l127 -133h-84z" />
    <glyph glyph-name="Hbar" unicode="&#x126;" horiz-adv-x="681" 
d="M104 0v497h-65v61h65v156h83v-156h307v156h83v-156h65v-61h-65v-497h-83v326h-307v-326h-83zM187 396h307v101h-307v-101z" />
    <glyph glyph-name="hbar" unicode="&#x127;" horiz-adv-x="565" 
d="M88 572h-81v56h81v86h79v-86h152v-56h-152v-110q44 50 132 50q133 0 168 -97q15 -43 15 -127v-288h-79v281q0 67 -14 101q-24 62 -101 62q-65 0 -93 -43t-28 -142v-259h-79v572z" />
    <glyph glyph-name="Itilde" unicode="&#x128;" horiz-adv-x="291" 
d="M104 0v714h83v-714h-83zM39 804h-51q13 52 25 71q25 43 72 43q37 0 73 -32t53 -32q27 0 41 56h51q-12 -50 -23 -73q-23 -41 -71 -41q-38 0 -75 34q-34 30 -52 30q-29 0 -43 -56z" />
    <glyph glyph-name="itilde" unicode="&#x129;" horiz-adv-x="255" 
d="M88 0v502h79v-502h-79zM21 596h-51q13 52 25 72q25 43 72 43q37 0 73 -32t53 -32q27 0 41 56h51q-12 -52 -23 -73q-22 -42 -71 -42q-38 0 -75 34q-34 30 -51 30q-30 0 -44 -56z" />
    <glyph glyph-name="Imacron" unicode="&#x12a;" horiz-adv-x="291" 
d="M104 0v714h83v-714h-83zM17 827v58h257v-58h-257z" />
    <glyph glyph-name="imacron" unicode="&#x12b;" horiz-adv-x="255" 
d="M88 0v502h79v-502h-79zM-1 619v58h257v-58h-257z" />
    <glyph glyph-name="Ibreve" unicode="&#x12c;" horiz-adv-x="291" 
d="M104 0v714h83v-714h-83zM6 923h54q5 -43 24 -60t61 -17q43 0 61.5 17t23.5 60h55q-4 -59 -18 -85q-30 -53 -122 -53q-97 0 -126 61q-10 24 -13 77z" />
    <glyph glyph-name="ibreve" unicode="&#x12d;" horiz-adv-x="255" 
d="M88 0v502h79v-502h-79zM-12 715h54q5 -43 24 -60t61 -17q43 0 61.5 17t23.5 60h55q-4 -59 -18 -85q-30 -53 -122 -53q-97 0 -126 62q-10 22 -13 76z" />
    <glyph glyph-name="Iogonek" unicode="&#x12e;" horiz-adv-x="291" 
d="M187 714v-714q-80 -48 -80 -101q0 -45 47 -45q26 0 59 10l8 -46q-41 -14 -81 -14q-105 0 -105 83q0 70 86 113h-17v714h83z" />
    <glyph glyph-name="iogonek" unicode="&#x12f;" horiz-adv-x="255" 
d="M166 502v-502q-78 -51 -78 -102q0 -44 47 -44q25 0 56 10l8 -46q-39 -14 -78 -14q-105 0 -105 81q0 66 80 115h-9v502h79zM87 611v106h79v-106h-79z" />
    <glyph glyph-name="Idotaccent" unicode="&#x130;" horiz-adv-x="291" 
d="M103 0v714h83v-714h-83zM105 797v104h78v-104h-78z" />
    <glyph glyph-name="dotlessi" unicode="&#x131;" horiz-adv-x="255" 
d="M88 0v502h79v-502h-79z" />
    <glyph glyph-name="IJ" unicode="&#x132;" horiz-adv-x="582" 
d="M104 0v714h83v-714h-83zM396 714h83v-669q0 -91 -5 -131t-21 -69q-47 -88 -170 -88q-46 0 -94 16l27 65q32 -11 59 -11q83 0 109 75q12 35 12 141v671z" />
    <glyph glyph-name="ij" unicode="&#x133;" horiz-adv-x="516" 
d="M88 611v106h79v-106h-79zM88 0v502h79v-502h-79zM349 502h79v-514q2 -125 -41.5 -172t-161.5 -46v67q68 -3 97 30.5t27 112.5v522zM349 611v106h79v-106h-79z" />
    <glyph glyph-name="Jcircumflex" unicode="&#x134;" horiz-adv-x="465" 
d="M283 714h83v-435q0 -91 -5 -131t-21 -69q-47 -88 -172 -88q-101 0 -177 69l46 57q56 -56 126 -56q82 0 108 75q12 35 12 141v437zM310 874l-68 -80h-84l127 133h51l127 -133h-84z" />
    <glyph glyph-name="jcircumflex" unicode="&#x135;" horiz-adv-x="261" 
d="M90 502h79v-514q2 -125 -41.5 -172t-161.5 -46v67q68 -3 97 30.5t27 112.5v522zM127 667l-68 -81h-84l127 134h51l127 -134h-84z" />
    <glyph glyph-name="Kcommaaccent" unicode="&#x136;" horiz-adv-x="618" 
d="M105 0v714h82v-391l306 391h98l-232 -288l256 -426h-95l-214 368l-119 -148v-220h-82zM249 -222l52 153h83l-79 -153h-56z" />
    <glyph glyph-name="kcommaaccent" unicode="&#x137;" horiz-adv-x="511" 
d="M88 0v714h79v-497l223 285h91l-171 -213l190 -289h-88l-150 230l-95 -118v-112h-79zM190 -222l52 153h83l-79 -153h-56z" />
    <glyph glyph-name="kgreenlandic" unicode="&#x138;" horiz-adv-x="511" 
d="M88 0v502h79v-285l223 285h91l-171 -212l190 -290h-88l-150 231l-95 -119v-112h-79z" />
    <glyph glyph-name="Lacute" unicode="&#x139;" horiz-adv-x="533" 
d="M104 0v714h83v-644h336v-70h-419zM124 789l75 142h97l-112 -142h-60z" />
    <glyph glyph-name="lacute" unicode="&#x13a;" horiz-adv-x="292" 
d="M87 714h79v-554q0 -54 18 -74t67 -19h26v-67h-29q-95 0 -128 34t-33 133v547zM96 789l75 142h97l-112 -142h-60z" />
    <glyph glyph-name="Lcommaaccent" unicode="&#x13b;" horiz-adv-x="533" 
d="M104 0v714h83v-644h336v-70h-419zM221 -222l52 153h83l-79 -153h-56z" />
    <glyph glyph-name="lcommaaccent" unicode="&#x13c;" horiz-adv-x="292" 
d="M85 714h79v-554q-1 -53 17.5 -73.5t67.5 -19.5h26v-67h-29q-95 0 -128 34t-33 133v547zM79 -222l52 153h83l-79 -153h-56z" />
    <glyph glyph-name="Lcaron" unicode="&#x13d;" horiz-adv-x="533" 
d="M104 0v714h83v-644h336v-70h-419zM286 492l26 230h82l-52 -230h-56z" />
    <glyph glyph-name="lcaron" unicode="&#x13e;" horiz-adv-x="344" 
d="M87 714h79v-554q0 -54 18 -74t67 -19h26v-67h-29q-95 0 -128 34t-33 133v547zM253 492l26 230h82l-52 -230h-56z" />
    <glyph glyph-name="Ldot" unicode="&#x13f;" horiz-adv-x="533" 
d="M104 0v714h83v-644h336v-70h-419zM367 314v99h73v-99h-73z" />
    <glyph glyph-name="ldot" unicode="&#x140;" horiz-adv-x="324" 
d="M87 714h79v-554q0 -54 18 -74t67 -19h26v-67h-29q-95 0 -128 34t-33 133v547zM252 314v99h73v-99h-73z" />
    <glyph glyph-name="Lslash" unicode="&#x141;" horiz-adv-x="533" 
d="M104 0v218l-76 -51v76l76 51v420h83v-371l204 137v-77l-204 -136v-197h337v-70h-420z" />
    <glyph glyph-name="lslash" unicode="&#x142;" horiz-adv-x="303" 
d="M93 366v348h79v-300l117 78v-78l-117 -78v-176q0 -54 18 -74t67 -19h26v-67h-29q-91 -1 -125.5 30.5t-35.5 114.5v143l-94 -63v78z" />
    <glyph glyph-name="Nacute" unicode="&#x143;" horiz-adv-x="721" 
d="M104 0v714h80l352 -572v572h81v-714h-80l-352 572v-572h-81zM327 789l75 142h97l-112 -142h-60z" />
    <glyph glyph-name="nacute" unicode="&#x144;" horiz-adv-x="565" 
d="M88 0v502h61l6 -56q43 66 142 66q135 0 169 -97q15 -43 15 -127v-288h-79v281q0 88 -26.5 125.5t-87.5 37.5q-65 0 -93 -43.5t-28 -145.5v-255h-79zM238 582l75 142h97l-112 -142h-60z" />
    <glyph glyph-name="Ncommaaccent" unicode="&#x145;" horiz-adv-x="721" 
d="M104 0v714h80l352 -572v572h81v-714h-80l-352 572v-572h-81zM287 -222l52 153h83l-79 -153h-56z" />
    <glyph glyph-name="ncommaaccent" unicode="&#x146;" horiz-adv-x="565" 
d="M88 0v502h61l6 -56q43 66 142 66q135 0 169 -97q15 -43 15 -127v-288h-79v281q0 88 -26.5 125.5t-87.5 37.5q-65 0 -93 -43.5t-28 -145.5v-255h-79zM205 -222l52 153h83l-79 -153h-56z" />
    <glyph glyph-name="Ncaron" unicode="&#x147;" horiz-adv-x="721" 
d="M104 0v714h80l352 -572v572h81v-714h-80l-352 572v-572h-81zM374 845l68 81h84l-127 -134h-51l-127 134h84z" />
    <glyph glyph-name="ncaron" unicode="&#x148;" horiz-adv-x="565" 
d="M88 0v502h61l6 -56q43 66 142 66q135 0 169 -97q15 -43 15 -127v-288h-79v281q0 88 -26.5 125.5t-87.5 37.5q-65 0 -93 -43.5t-28 -145.5v-255h-79zM279 638l68 80h84l-127 -133h-51l-127 133h84z" />
    <glyph glyph-name="napostrophe" unicode="&#x149;" horiz-adv-x="609" 
d="M132 0v502h61l6 -56q43 66 142 66q135 0 169 -97q15 -43 15 -127v-288h-79v281q0 88 -26.5 125.5t-87.5 37.5q-65 0 -93 -43.5t-28 -145.5v-255h-79zM12 475l36 239h87l-55 -239h-68z" />
    <glyph glyph-name="Eng" unicode="&#x14a;" horiz-adv-x="721" 
d="M104 0v714h80l352 -569v569h81v-727q3 -124 -41 -171t-160 -46v66q67 -3 96 30t27 110v31l-354 565v-572h-81z" />
    <glyph glyph-name="eng" unicode="&#x14b;" horiz-adv-x="565" 
d="M88 0v502h61l6 -56q43 66 142 66q134 0 169 -97q15 -43 15 -127v-300q2 -125 -41.5 -172t-161.5 -46v67q68 -3 97 30.5t27 112.5v301q0 67 -14 101q-24 62 -100 62q-65 0 -93 -43.5t-28 -145.5v-255h-79z" />
    <glyph glyph-name="Omacron" unicode="&#x14c;" horiz-adv-x="676" 
d="M87 269v176q0 75 13.5 122t45.5 82q67 74 192 74q136 0 203 -86q48 -64 48 -192v-176q0 -76 -13.5 -122.5t-45.5 -81.5q-67 -74 -192 -74q-136 0 -202 86q-49 63 -49 192zM506 277v160q0 109 -39 159q-42 57 -129 57q-93 0 -136 -66q-32 -51 -32 -150v-160
q0 -109 39 -159q42 -57 129 -57q93 0 136 66q32 51 32 150zM210 827v58h257v-58h-257z" />
    <glyph glyph-name="omacron" unicode="&#x14d;" horiz-adv-x="557" 
d="M71 212v78q0 113 50 167.5t156 54.5q108 0 158.5 -53.5t50.5 -168.5v-78q0 -114 -50.5 -167.5t-158.5 -53.5q-106 0 -156 54t-50 167zM407 217v68q0 82 -31.5 121.5t-97.5 39.5q-65 0 -96.5 -39.5t-31.5 -121.5v-68q0 -82 31.5 -121t96.5 -39q66 0 97.5 39t31.5 121z
M150 619v58h257v-58h-257z" />
    <glyph glyph-name="Obreve" unicode="&#x14e;" horiz-adv-x="676" 
d="M87 269v176q0 75 13.5 122t45.5 82q67 74 192 74q136 0 203 -86q48 -64 48 -192v-176q0 -76 -13.5 -122.5t-45.5 -81.5q-67 -74 -192 -74q-136 0 -202 86q-49 63 -49 192zM506 277v160q0 109 -39 159q-42 57 -129 57q-93 0 -136 -66q-32 -51 -32 -150v-160
q0 -109 39 -159q42 -57 129 -57q93 0 136 66q32 51 32 150zM199 923h54q5 -43 24 -60t61 -17q43 0 61.5 17t23.5 60h55q-4 -59 -18 -85q-30 -53 -122 -53q-97 0 -126 61q-10 24 -13 77z" />
    <glyph glyph-name="obreve" unicode="&#x14f;" horiz-adv-x="557" 
d="M71 212v78q0 113 50 167.5t156 54.5q108 0 158.5 -53.5t50.5 -168.5v-78q0 -114 -50.5 -167.5t-158.5 -53.5q-106 0 -156 54t-50 167zM407 217v68q0 82 -31.5 121.5t-97.5 39.5q-65 0 -96.5 -39.5t-31.5 -121.5v-68q0 -82 31.5 -121t96.5 -39q66 0 97.5 39t31.5 121z
M139 715h54q5 -43 24 -60t61 -17q43 0 61.5 17t23.5 60h55q-4 -59 -18 -85q-30 -53 -122 -53q-97 0 -126 62q-10 22 -13 76z" />
    <glyph glyph-name="Ohungarumlaut" unicode="&#x150;" horiz-adv-x="676" 
d="M87 269v176q0 75 13.5 122t45.5 82q67 74 192 74q136 0 203 -86q48 -64 48 -192v-176q0 -76 -13.5 -122.5t-45.5 -81.5q-67 -74 -192 -74q-136 0 -202 86q-49 63 -49 192zM506 277v160q0 109 -39 159q-42 57 -129 57q-93 0 -136 -66q-32 -51 -32 -150v-160
q0 -109 39 -159q42 -57 129 -57q93 0 136 66q32 51 32 150zM235 789l60 142h90l-93 -142h-57zM370 789l60 142h89l-92 -142h-57z" />
    <glyph glyph-name="ohungarumlaut" unicode="&#x151;" horiz-adv-x="557" 
d="M71 212v78q0 113 50 167.5t156 54.5q108 0 158.5 -53.5t50.5 -168.5v-78q0 -114 -50.5 -167.5t-158.5 -53.5q-106 0 -156 54t-50 167zM407 217v68q0 82 -31.5 121.5t-97.5 39.5q-65 0 -96.5 -39.5t-31.5 -121.5v-68q0 -82 31.5 -121t96.5 -39q66 0 97.5 39t31.5 121z
M175 582l60 142h90l-93 -142h-57zM310 582l60 142h89l-92 -142h-57z" />
    <glyph glyph-name="OE" unicode="&#x152;" horiz-adv-x="981" 
d="M519 0v67q-33 -42 -74.5 -59.5t-109.5 -17.5q-137 0 -201 87q-47 64 -47 190v178q0 139 57 204q64 75 192 75q126 0 183 -71v61h405v-70h-334v-248h284v-70h-284v-256h335v-70h-406zM170 437v-162q0 -108 39 -159q43 -56 129 -56q170 0 170 215v162q0 217 -170 217
q-94 0 -136 -67q-32 -50 -32 -150z" />
    <glyph glyph-name="oe" unicode="&#x153;" horiz-adv-x="879" 
d="M71 213v76q0 114 50 168.5t154 54.5q64 0 104.5 -19t66.5 -62q41 81 168 81q104 0 152.5 -58.5t48.5 -182.5v-36h-329v-21q0 -77 36 -117t104 -40q75 0 115 49l60 -36q-57 -79 -180 -79q-66 0 -106 19t-69 63q-26 -45 -64.5 -63.5t-105.5 -18.5q-105 0 -155 54.5
t-50 167.5zM406 218v67q0 161 -128 161t-128 -161v-67q0 -161 128 -161t128 161zM486 295h253v8q0 62 -27 99q-30 43 -99 43q-76 0 -105 -50q-22 -38 -22 -92v-8z" />
    <glyph glyph-name="Racute" unicode="&#x154;" horiz-adv-x="646" 
d="M188 308v-308h-83v714h245q118 0 170 -52q51 -52 51 -147q0 -88 -36 -136t-111 -62l157 -317h-92l-147 308h-154zM187 377h164q137 0 137 134q0 69 -35.5 101.5t-110.5 32.5h-155v-268zM273 789l75 142h97l-112 -142h-60z" />
    <glyph glyph-name="racute" unicode="&#x155;" horiz-adv-x="375" 
d="M88 0v502h62l8 -47q40 57 120 57q50 0 97 -26l-33 -68q-36 24 -71 24q-55 0 -79.5 -46.5t-24.5 -150.5v-245h-79zM169 582l75 142h97l-112 -142h-60z" />
    <glyph glyph-name="Rcommaaccent" unicode="&#x156;" horiz-adv-x="646" 
d="M188 308v-308h-83v714h245q118 0 170 -52q51 -52 51 -147q0 -88 -36 -136t-111 -62l157 -317h-92l-147 308h-154zM187 377h164q137 0 137 134q0 69 -35.5 101.5t-110.5 32.5h-155v-268zM245 -222l52 153h83l-79 -153h-56z" />
    <glyph glyph-name="rcommaaccent" unicode="&#x157;" horiz-adv-x="375" 
d="M88 0v502h62l8 -47q40 57 120 57q50 0 97 -26l-33 -68q-36 24 -71 24q-55 0 -79.5 -46.5t-24.5 -150.5v-245h-79zM36 -222l52 153h83l-79 -153h-56z" />
    <glyph glyph-name="Rcaron" unicode="&#x158;" horiz-adv-x="646" 
d="M188 308v-308h-83v714h245q118 0 170 -52q51 -52 51 -147q0 -88 -36 -136t-111 -62l157 -317h-92l-147 308h-154zM187 377h164q137 0 137 134q0 69 -35.5 101.5t-110.5 32.5h-155v-268zM316 845l68 81h84l-127 -134h-51l-127 134h84z" />
    <glyph glyph-name="rcaron" unicode="&#x159;" horiz-adv-x="375" 
d="M89 0v502h62l8 -47q40 57 120 57q50 0 97 -26l-33 -68q-36 24 -71 24q-55 0 -79.5 -46.5t-24.5 -150.5v-245h-79zM219 638l68 80h84l-127 -133h-51l-127 133h84z" />
    <glyph glyph-name="Sacute" unicode="&#x15a;" horiz-adv-x="579" 
d="M45 96l65 42q46 -77 176 -77q78 0 121 33.5t43 94.5q0 62 -43 92q-20 14 -36.5 19.5t-95.5 25.5q-110 28 -157 74.5t-47 128.5q0 91 58 142.5t161 51.5q147 0 206 -90l-63 -41q-45 62 -146 62q-63 0 -99 -32t-36 -88q0 -55 36.5 -86t127.5 -54q71 -17 96 -26.5t52 -27.5
q67 -46 67 -147q0 -98 -63.5 -150t-181.5 -52q-175 0 -241 105zM243 789l75 142h97l-112 -142h-60z" />
    <glyph glyph-name="sacute" unicode="&#x15b;" horiz-adv-x="473" 
d="M29 69l58 37q26 -27 56 -38t79 -11q127 0 127 84q0 45 -34 62q-23 12 -93 21q-94 14 -125 41q-40 34 -40 98q0 72 43 110.5t123 38.5q125 0 182 -80l-60 -37q-23 28 -49.5 39.5t-66.5 11.5q-96 0 -96 -79q0 -39 31 -58q21 -11 79 -19q103 -15 137 -40q45 -33 45 -111
q0 -148 -200 -148q-142 0 -196 78zM187 582l75 142h97l-112 -142h-60z" />
    <glyph glyph-name="Scircumflex" unicode="&#x15c;" horiz-adv-x="579" 
d="M45 96l65 42q46 -77 176 -77q78 0 121 33.5t43 94.5q0 62 -43 92q-20 14 -36.5 19.5t-95.5 25.5q-110 28 -157 74.5t-47 128.5q0 91 58 142.5t161 51.5q147 0 206 -90l-63 -41q-45 62 -146 62q-63 0 -99 -32t-36 -88q0 -55 36.5 -86t127.5 -54q71 -17 96 -26.5t52 -27.5
q67 -46 67 -147q0 -98 -63.5 -150t-181.5 -52q-175 0 -241 105zM293 874l-68 -80h-84l127 133h51l127 -133h-84z" />
    <glyph glyph-name="scircumflex" unicode="&#x15d;" horiz-adv-x="473" 
d="M29 69l58 37q26 -27 56 -38t79 -11q127 0 127 84q0 45 -34 62q-23 12 -93 21q-94 14 -125 41q-40 34 -40 98q0 72 43 110.5t123 38.5q125 0 182 -80l-60 -37q-23 28 -49.5 39.5t-66.5 11.5q-96 0 -96 -79q0 -39 31 -58q21 -11 79 -19q103 -15 137 -40q45 -33 45 -111
q0 -148 -200 -148q-142 0 -196 78zM232 667l-68 -81h-84l127 134h51l127 -134h-84z" />
    <glyph glyph-name="Scedilla" unicode="&#x15e;" horiz-adv-x="579" 
d="M45 96l65 42q46 -77 176 -77q78 0 121 33.5t43 94.5q0 62 -43 92q-20 14 -36.5 19.5t-95.5 25.5q-110 28 -157 74.5t-47 128.5q0 91 58 142.5t161 51.5q147 0 206 -90l-63 -41q-45 62 -146 62q-63 0 -99 -32t-36 -88q0 -55 36.5 -86t127.5 -54q71 -17 96 -26.5t52 -27.5
q67 -46 67 -147q0 -98 -63.5 -150t-181.5 -52q-175 0 -241 105zM201 -222l52 153h83l-79 -153h-56z" />
    <glyph glyph-name="scedilla" unicode="&#x15f;" horiz-adv-x="473" 
d="M29 69l58 37q26 -27 56 -38t79 -11q127 0 127 84q0 45 -34 62q-23 12 -93 21q-94 14 -125 41q-40 34 -40 98q0 72 43 110.5t123 38.5q125 0 182 -80l-60 -37q-23 28 -49.5 39.5t-66.5 11.5q-96 0 -96 -79q0 -39 31 -58q21 -11 79 -19q103 -15 137 -40q45 -33 45 -111
q0 -148 -200 -148q-142 0 -196 78zM150 -222l52 153h83l-79 -153h-56z" />
    <glyph glyph-name="Scaron" unicode="&#x160;" horiz-adv-x="579" 
d="M45 96l65 42q46 -77 176 -77q78 0 121 33.5t43 94.5q0 62 -43 92q-20 14 -36.5 19.5t-95.5 25.5q-110 28 -157 74.5t-47 128.5q0 91 58 142.5t161 51.5q147 0 206 -90l-63 -41q-45 62 -146 62q-63 0 -99 -32t-36 -88q0 -55 36.5 -86t127.5 -54q71 -17 96 -26.5t52 -27.5
q67 -46 67 -147q0 -98 -63.5 -150t-181.5 -52q-175 0 -241 105zM298 845l68 81h84l-127 -134h-51l-127 134h84z" />
    <glyph glyph-name="scaron" unicode="&#x161;" horiz-adv-x="473" 
d="M29 69l58 37q26 -27 56 -38t79 -11q127 0 127 84q0 45 -34 62q-23 12 -93 21q-94 14 -125 41q-40 34 -40 98q0 72 43 110.5t123 38.5q125 0 182 -80l-60 -37q-23 28 -49.5 39.5t-66.5 11.5q-96 0 -96 -79q0 -39 31 -58q21 -11 79 -19q103 -15 137 -40q45 -33 45 -111
q0 -148 -200 -148q-142 0 -196 78zM235 638l68 80h84l-127 -133h-51l-127 133h84z" />
    <glyph glyph-name="Tcommaaccent" unicode="&#x162;" horiz-adv-x="554" 
d="M237 0v644h-206v70h493v-70h-204v-644h-83zM190 -222l52 153h83l-79 -153h-56z" />
    <glyph glyph-name="tcommaaccent" unicode="&#x163;" horiz-adv-x="334" 
d="M105 436h-61v66h61l4 161h75v-161h99v-66h-99v-277q0 -53 18 -73t67 -19h17v-67h-18q-98 0 -130.5 33t-32.5 134v269zM103 -222l52 153h83l-79 -153h-56z" />
    <glyph glyph-name="Tcaron" unicode="&#x164;" horiz-adv-x="554" 
d="M237 0v644h-206v70h493v-70h-204v-644h-83zM278 845l68 81h84l-127 -134h-51l-127 134h84z" />
    <glyph glyph-name="tcaron" unicode="&#x165;" horiz-adv-x="377" 
d="M105 436h-61v66h61l4 161h75v-161h99v-66h-99v-277q0 -53 18 -73t67 -19h17v-67h-18q-98 0 -130.5 33t-32.5 134v269zM295 555l24 207h82l-50 -207h-56z" />
    <glyph glyph-name="Tbar" unicode="&#x166;" horiz-adv-x="554" 
d="M237 0v327h-140v69h140v248h-206v70h493v-70h-204v-248h138v-69h-138v-327h-83z" />
    <glyph glyph-name="tbar" unicode="&#x167;" horiz-adv-x="336" 
d="M107 436h-61v66h61l4 161h75v-161h99v-66h-99v-88h99v-56h-99v-139q0 -49 18.5 -68t66.5 -18h18v-67h-19q-94 -1 -127.5 30.5t-35.5 121.5v140h-61v56h61v88z" />
    <glyph glyph-name="Utilde" unicode="&#x168;" horiz-adv-x="690" 
d="M101 714h83v-452q0 -96 26 -138q42 -63 135 -63q102 0 141 73q20 40 20 128v452h83v-452q0 -76 -9 -116.5t-34 -71.5q-63 -83 -201 -83q-149 0 -210 95q-19 30 -26.5 68t-7.5 108v452zM238 804h-51q13 52 25 71q25 43 72 43q37 0 73 -32t53 -32q27 0 41 56h51
q-12 -50 -23 -73q-23 -41 -71 -41q-38 0 -75 34q-34 30 -52 30q-29 0 -43 -56z" />
    <glyph glyph-name="utilde" unicode="&#x169;" horiz-adv-x="555" 
d="M84 502h79v-280q0 -66 13 -101q24 -62 96 -62q62 0 89 43.5t27 144.5v255h79v-502h-61l-6 56q-42 -65 -138 -65q-130 0 -163 97q-15 42 -15 126v288zM171 596h-51q13 52 25 72q25 43 72 43q37 0 73 -32t53 -32q27 0 41 56h51q-12 -52 -23 -73q-22 -42 -71 -42
q-38 0 -75 34q-34 30 -51 30q-30 0 -44 -56z" />
    <glyph glyph-name="Umacron" unicode="&#x16a;" horiz-adv-x="690" 
d="M101 714h83v-452q0 -96 26 -138q42 -63 135 -63q102 0 141 73q20 40 20 128v452h83v-452q0 -76 -9 -116.5t-34 -71.5q-63 -83 -201 -83q-149 0 -210 95q-19 30 -26.5 68t-7.5 108v452zM216 827v58h257v-58h-257z" />
    <glyph glyph-name="umacron" unicode="&#x16b;" horiz-adv-x="555" 
d="M84 502h79v-280q0 -66 13 -101q24 -62 96 -62q62 0 89 43.5t27 144.5v255h79v-502h-61l-6 56q-42 -65 -138 -65q-130 0 -163 97q-15 42 -15 126v288zM149 619v58h257v-58h-257z" />
    <glyph glyph-name="Ubreve" unicode="&#x16c;" horiz-adv-x="690" 
d="M101 714h83v-452q0 -96 26 -138q42 -63 135 -63q102 0 141 73q20 40 20 128v452h83v-452q0 -76 -9 -116.5t-34 -71.5q-63 -83 -201 -83q-149 0 -210 95q-19 30 -26.5 68t-7.5 108v452zM206 923h54q5 -43 24 -60t61 -17q43 0 61.5 17t23.5 60h55q-4 -59 -18 -85
q-30 -53 -122 -53q-97 0 -126 61q-10 24 -13 77z" />
    <glyph glyph-name="ubreve" unicode="&#x16d;" horiz-adv-x="555" 
d="M84 502h79v-280q0 -66 13 -101q24 -62 96 -62q62 0 89 43.5t27 144.5v255h79v-502h-61l-6 56q-42 -65 -138 -65q-130 0 -163 97q-15 42 -15 126v288zM138 715h54q5 -43 24 -60t61 -17q43 0 61.5 17t23.5 60h55q-4 -59 -18 -85q-30 -53 -122 -53q-97 0 -126 62
q-10 22 -13 76z" />
    <glyph glyph-name="Uring" unicode="&#x16e;" horiz-adv-x="690" 
d="M101 714h83v-452q0 -96 26 -138q42 -63 135 -63q102 0 141 73q20 40 20 128v452h83v-452q0 -76 -9 -116.5t-34 -71.5q-63 -83 -201 -83q-149 0 -210 95q-19 30 -26.5 68t-7.5 108v452zM346 984q47 0 75 -27.5t28 -73.5t-29 -74t-76 -28t-76 28t-29 74q0 47 29 74t78 27z
M345 942q-51 0 -51 -60q0 -59 50 -59t50 59q0 60 -49 60z" />
    <glyph glyph-name="uring" unicode="&#x16f;" horiz-adv-x="555" 
d="M84 502h79v-280q0 -66 13 -101q24 -62 96 -62q62 0 89 43.5t27 144.5v255h79v-502h-61l-6 56q-42 -65 -138 -65q-130 0 -163 97q-15 42 -15 126v288zM278 777q47 0 75.5 -28t28.5 -73q0 -46 -29 -74.5t-76 -28.5t-76 28.5t-29 74.5t28.5 73.5t77.5 27.5zM278 735
q-51 0 -51 -60t50 -60t50 60t-49 60z" />
    <glyph glyph-name="Uhungarumlaut" unicode="&#x170;" horiz-adv-x="690" 
d="M101 714h83v-452q0 -96 26 -138q42 -63 135 -63q102 0 141 73q20 40 20 128v452h83v-452q0 -76 -9 -116.5t-34 -71.5q-63 -83 -201 -83q-149 0 -210 95q-19 30 -26.5 68t-7.5 108v452zM244 789l60 142h90l-93 -142h-57zM379 789l60 142h89l-92 -142h-57z" />
    <glyph glyph-name="uhungarumlaut" unicode="&#x171;" horiz-adv-x="555" 
d="M84 502h79v-280q0 -66 13 -101q24 -62 96 -62q62 0 89 43.5t27 144.5v255h79v-502h-61l-6 56q-42 -65 -138 -65q-130 0 -163 97q-15 42 -15 126v288zM174 582l60 142h90l-93 -142h-57zM309 582l60 142h89l-92 -142h-57z" />
    <glyph glyph-name="Uogonek" unicode="&#x172;" horiz-adv-x="690" 
d="M102 714h83v-452q0 -96 26 -138q42 -63 135 -63q102 0 141 73q20 40 20 128v452h83v-452q4 -107 -30 -168.5t-112 -89.5q-46 -32 -64.5 -56t-18.5 -52q0 -42 50 -42q26 0 59 10l8 -46q-43 -14 -80 -14q-110 0 -110 81q0 59 64 107q-71 0 -113.5 13.5t-76.5 45.5
q-38 38 -51.5 82t-12.5 129v452z" />
    <glyph glyph-name="uogonek" unicode="&#x173;" horiz-adv-x="555" 
d="M467 502v-502q-52 -30 -74 -54.5t-22 -50.5q0 -41 51 -41q25 0 58 10l8 -46q-39 -14 -80 -14q-110 0 -110 79q0 74 107 121l-5 52q-42 -65 -138 -65q-130 0 -163 97q-15 42 -15 126v288h79v-280q0 -66 13 -101q24 -62 96 -62q62 0 89 43.5t27 144.5v255h79z" />
    <glyph glyph-name="Wcircumflex" unicode="&#x174;" horiz-adv-x="876" 
d="M208 0l-180 714h84l135 -586l161 586h59l161 -586l136 586h84l-180 -714h-71l-159 569l-159 -569h-71zM437 874l-68 -80h-84l127 133h51l127 -133h-84z" />
    <glyph glyph-name="wcircumflex" unicode="&#x175;" horiz-adv-x="771" 
d="M193 0l-155 502h81l110 -394l129 394h55l129 -394l111 394h81l-155 -502h-65l-128 378l-129 -378h-64zM385 667l-68 -81h-84l127 134h51l127 -134h-84z" />
    <glyph glyph-name="Ycircumflex" unicode="&#x176;" horiz-adv-x="532" 
d="M225 0v258l-225 456h88l179 -371l178 371h88l-225 -456v-258h-83zM265 874l-68 -80h-84l127 133h51l127 -133h-84z" />
    <glyph glyph-name="ycircumflex" unicode="&#x177;" horiz-adv-x="488" 
d="M207 1l-185 501h80l147 -412l131 412h80l-197 -583q-35 -96 -70.5 -122t-132.5 -27v67q56 0 78 16t44 74zM243 667l-68 -81h-84l127 134h51l127 -134h-84z" />
    <glyph glyph-name="Ydieresis" unicode="&#x178;" horiz-adv-x="532" 
d="M225 0v258l-225 456h88l179 -371l178 371h88l-225 -456v-258h-83zM132 797v104h72v-104h-72zM327 797v104h72v-104h-72z" />
    <glyph glyph-name="Zacute" unicode="&#x179;" horiz-adv-x="543" 
d="M51 0v59l330 585h-312v70h405v-59l-330 -585h346v-70h-439zM244 789l75 142h97l-112 -142h-60z" />
    <glyph glyph-name="zacute" unicode="&#x17a;" horiz-adv-x="475" 
d="M45 0v51l255 385h-235v66h334v-51l-255 -385h271v-66h-370zM200 582l75 142h97l-112 -142h-60z" />
    <glyph glyph-name="Zdotaccent" unicode="&#x17b;" horiz-adv-x="543" 
d="M51 0v59l330 585h-312v70h405v-59l-330 -585h346v-70h-439zM244 797v104h78v-104h-78z" />
    <glyph glyph-name="zdotaccent" unicode="&#x17c;" horiz-adv-x="475" 
d="M45 0v51l255 385h-235v66h334v-51l-255 -385h271v-66h-370zM201 590v104h78v-104h-78z" />
    <glyph glyph-name="Zcaron" unicode="&#x17d;" horiz-adv-x="543" 
d="M51 0v59l330 585h-312v70h405v-59l-330 -585h346v-70h-439zM291 845l68 81h84l-127 -134h-51l-127 134h84z" />
    <glyph glyph-name="zcaron" unicode="&#x17e;" horiz-adv-x="475" 
d="M45 0v51l255 385h-235v66h334v-51l-255 -385h271v-66h-370zM246 638l68 80h84l-127 -133h-51l-127 133h84z" />
    <glyph glyph-name="Ohorn" unicode="&#x1a0;" horiz-adv-x="701" 
d="M629 724h71q7 -21 7 -37q0 -67 -59 -114q-23 -18 -66 -43q7 -42 7 -85v-176q0 -76 -13.5 -122.5t-45.5 -81.5q-67 -74 -192 -74q-136 0 -202 86q-49 63 -49 192v176q0 139 59 205q67 74 192 74q178 0 233 -143q41 26 55.5 46t14.5 50q0 23 -12 47zM506 277v160
q0 110 -39 160q-42 57 -129 57q-94 0 -136 -67q-32 -51 -32 -150v-160q0 -109 39 -159q42 -57 129 -57q93 0 136 66q32 51 32 150z" />
    <glyph glyph-name="ohorn" unicode="&#x1a1;" horiz-adv-x="582" 
d="M521 512h72q6 -19 6 -40q0 -46 -26.5 -80.5t-89.5 -69.5q3 -29 3 -44v-66q0 -114 -50.5 -167.5t-158.5 -53.5q-106 0 -156 54t-50 167v78q0 114 50.5 168t157.5 54q165 0 198 -136l6 4q29 22 39.5 39.5t10.5 44.5q0 23 -12 48zM407 217v68q0 82 -31.5 121.5t-97.5 39.5
q-65 0 -96.5 -39.5t-31.5 -121.5v-68q0 -82 31.5 -121t96.5 -39q66 0 97.5 39t31.5 121z" />
    <glyph glyph-name="Uhorn" unicode="&#x1af;" horiz-adv-x="728" 
d="M101 714h83v-452q0 -96 26 -138q42 -63 135 -63q102 0 141 73q20 40 20 128v452h83v-149q52 25 73.5 49.5t21.5 60.5q0 25 -12 49h72q6 -19 6 -40q0 -53 -34.5 -90t-126.5 -84v-248q0 -76 -9 -116.5t-34 -71.5q-63 -83 -201 -83q-149 0 -210 95q-19 30 -26.5 68t-7.5 108
v452z" />
    <glyph glyph-name="uhorn" unicode="&#x1b0;" horiz-adv-x="598" 
d="M84 502h79v-280q0 -66 13 -101q24 -62 96 -62q62 0 89 43.5t27 144.5v255h79v-149q54 26 74.5 50t20.5 60q0 24 -12 49h72q6 -20 6 -40q0 -72 -75 -125q-23 -17 -86 -49v-298h-61l-6 56q-42 -65 -138 -65q-130 0 -163 97q-15 42 -15 126v288z" />
    <glyph glyph-name="uni01C4" unicode="&#x1c4;" horiz-adv-x="1181" 
d="M104 0v714h228q130 2 196.5 -67.5t62.5 -204.5v-170q4 -135 -62 -204.5t-197 -67.5h-228zM187 69h131q98 -2 144 49t46 162v154q0 111 -46 162t-144 49h-131v-576zM688 0v59l331 585h-313v70h406v-59l-331 -585h346v-70h-439zM908 845l69 81h84l-127 -134h-51l-127 134
h84z" />
    <glyph glyph-name="uni01C5" unicode="&#x1c5;" horiz-adv-x="1112" 
d="M104 0v714h228q130 2 196.5 -67.5t62.5 -204.5v-170q4 -135 -62 -204.5t-197 -67.5h-228zM187 69h131q98 -2 144 49t46 162v154q0 111 -46 162t-144 49h-131v-576zM682 0v51l255 385h-235v66h334v-51l-255 -385h271v-66h-370zM873 638l68 80h84l-127 -133h-51l-127 133
h84z" />
    <glyph glyph-name="uni01C6" unicode="&#x1c6;" horiz-adv-x="1040" 
d="M414 0l-5 43l-3 -3l-2 -1q-9 -9 -14 -13q-37 -35 -129 -35q-98 0 -144 54t-46 168v76q0 115 45.5 169t142.5 54q66 0 110 -25q17 -13 28 -23v250h79v-714h-62zM150 284v-66q0 -161 122 -161q125 0 125 153v82q0 154 -125 154q-122 0 -122 -162zM609 0v51l256 385h-236v66
h335v-51l-256 -385h272v-66h-371zM807 638l68 80h84l-127 -133h-51l-127 133h84z" />
    <glyph glyph-name="uni01C7" unicode="&#x1c7;" horiz-adv-x="824" 
d="M104 0v714h83v-644h336v-70h-419zM638 714h83v-669q0 -91 -5 -131t-21 -69q-47 -88 -170 -88q-46 0 -94 16l27 65q32 -11 59 -11q83 0 109 75q12 35 12 141v671z" />
    <glyph glyph-name="uni01C8" unicode="&#x1c8;" horiz-adv-x="794" 
d="M104 0v714h83v-644h336v-70h-419zM626 611v106h79v-106h-79zM626 502h79v-514q2 -125 -41.5 -172t-161.5 -46v67q68 -3 97 30.5t27 112.5v522z" />
    <glyph glyph-name="uni01C9" unicode="&#x1c9;" horiz-adv-x="553" 
d="M87 714h79v-554q0 -54 18 -74t67 -19h26v-67h-29q-95 0 -128 34t-33 133v547zM385 611v106h79v-106h-79zM385 502h79v-514q2 -125 -41.5 -172t-161.5 -46v67q68 -3 97 30.5t27 112.5v522z" />
    <glyph glyph-name="uni01CA" unicode="&#x1ca;" horiz-adv-x="1013" 
d="M104 0v714h80l352 -572v572h81v-714h-80l-352 572v-572h-81zM826 714h83v-669q0 -91 -5 -131t-21 -69q-47 -88 -170 -88q-46 0 -94 16l27 65q32 -11 59 -11q83 0 109 75q12 35 12 141v671z" />
    <glyph glyph-name="uni01CB" unicode="&#x1cb;" horiz-adv-x="983" 
d="M104 0v714h80l352 -572v572h81v-714h-80l-352 572v-572h-81zM815 502h79v-514q2 -125 -41.5 -172t-161.5 -46v67q68 -3 97 30.5t27 112.5v522zM815 611v106h79v-106h-79z" />
    <glyph glyph-name="uni01CC" unicode="&#x1cc;" horiz-adv-x="827" 
d="M88 0v502h61l6 -56q43 66 142 66q135 0 169 -97q15 -43 15 -127v-288h-79v281q0 88 -26.5 125.5t-87.5 37.5q-65 0 -93 -43.5t-28 -145.5v-255h-79zM659 502h79v-514q2 -125 -41.5 -172t-161.5 -46v67q68 -3 97 30.5t27 112.5v522zM659 611v106h79v-106h-79z" />
    <glyph glyph-name="uni01CD" unicode="&#x1cd;" horiz-adv-x="600" 
d="M457 156h-313l-54 -156h-90l261 714h79l261 -714h-90zM436 225l-135 383l-135 -383h270zM301 845l68 81h84l-127 -134h-51l-127 134h84z" />
    <glyph glyph-name="uni01CE" unicode="&#x1ce;" horiz-adv-x="525" 
d="M361 295v35q0 54 -18 80q-27 36 -92 36q-75 0 -120 -51l-55 42q65 75 182 75q118 0 161 -73q21 -38 21 -121v-318h-63l-6 36q-24 -25 -56.5 -35t-89.5 -10q-97 0 -136.5 33.5t-39.5 115.5q0 87 42 121t149 34h121zM361 235h-113q-67 0 -95 -21.5t-28 -71.5
q0 -48 25.5 -66.5t92.5 -18.5q78 0 104 33q14 18 14 67v78zM265 638l68 80h84l-127 -133h-51l-127 133h84z" />
    <glyph glyph-name="uni01CF" unicode="&#x1cf;" horiz-adv-x="291" 
d="M104 0v714h83v-714h-83zM146 845l68 81h84l-127 -134h-51l-127 134h84z" />
    <glyph glyph-name="uni01D0" unicode="&#x1d0;" horiz-adv-x="255" 
d="M88 0v502h79v-502h-79zM128 638l68 80h84l-127 -133h-51l-127 133h84z" />
    <glyph glyph-name="uni01D1" unicode="&#x1d1;" horiz-adv-x="676" 
d="M87 269v176q0 75 13.5 122t45.5 82q67 74 192 74q136 0 202 -86q49 -63 49 -192v-176q0 -76 -13.5 -122.5t-45.5 -81.5q-67 -74 -192 -74q-136 0 -202 86q-49 63 -49 192zM506 277v160q0 109 -38 159q-44 57 -130 57q-93 0 -136 -66q-32 -51 -32 -150v-160
q0 -109 39 -159q42 -57 129 -57q93 0 136 66q32 49 32 150zM338 845l68 81h85l-127 -134h-52l-126 134h84z" />
    <glyph glyph-name="uni01D2" unicode="&#x1d2;" horiz-adv-x="557" 
d="M71 212v78q0 113 50 167.5t156 54.5q108 0 158.5 -53.5t50.5 -168.5v-78q0 -114 -50.5 -167.5t-158.5 -53.5q-106 0 -156 54t-50 167zM407 217v68q0 82 -31.5 121.5t-97.5 39.5q-65 0 -96.5 -39.5t-31.5 -121.5v-68q0 -82 31.5 -121t96.5 -39q66 0 97.5 39t31.5 121z
M279 638l68 80h84l-127 -133h-51l-127 133h84z" />
    <glyph glyph-name="uni01D3" unicode="&#x1d3;" horiz-adv-x="690" 
d="M101 714h83v-452q0 -96 26 -138q42 -63 135 -63q102 0 141 73q20 40 20 128v452h83v-452q0 -76 -9 -116.5t-34 -71.5q-63 -83 -201 -83q-149 0 -210 95q-19 30 -26.5 68t-7.5 108v452zM345 845l68 81h84l-127 -134h-51l-127 134h84z" />
    <glyph glyph-name="uni01D4" unicode="&#x1d4;" horiz-adv-x="555" 
d="M84 502h79v-280q0 -66 13 -101q24 -62 96 -62q62 0 89 43.5t27 144.5v255h79v-502h-61l-6 56q-42 -65 -138 -65q-130 0 -163 97q-15 42 -15 126v288zM278 638l68 80h84l-127 -133h-51l-127 133h84z" />
    <glyph glyph-name="Gcaron" unicode="&#x1e6;" horiz-adv-x="663" 
d="M356 308v67h231v-112q0 -72 -12 -116t-41 -79q-65 -77 -196 -77q-142 0 -207 90q-44 63 -44 202v146q0 83 12.5 132t42.5 84q64 77 190 77q106 0 166.5 -47t65.5 -133l-77 -6q-8 56 -47.5 86t-105.5 30q-88 0 -126 -53t-38 -174v-138q0 -121 39 -173.5t128 -52.5
q93 0 135 59q33 44 33 126v62h-149zM334 845l68 81h84l-127 -134h-51l-127 134h84z" />
    <glyph glyph-name="gcaron" unicode="&#x1e7;" horiz-adv-x="565" 
d="M397 -8l1 47q-47 -48 -139 -48q-97 0 -142.5 54t-45.5 168v76q0 115 46 169t144 54t147 -55l6 45h62v-502q0 -234 -214 -234q-120 0 -175 79l59 36q41 -51 113 -51q70 0 103 39t35 123zM150 284v-66q0 -161 122 -161q125 0 125 153v82q0 154 -125 154q-122 0 -122 -162z
M294 638l68 80h84l-127 -133h-51l-127 133h84z" />
    <glyph glyph-name="uni01EA" unicode="&#x1ea;" horiz-adv-x="676" 
d="M594 445v-176q4 -208 -149 -264q-84 -56 -84 -109q0 -42 51 -42q27 0 58 10l8 -46q-38 -14 -80 -14q-109 0 -109 80q0 58 62 107h-3h-5q-125 -1 -190 70.5t-61 207.5v176q0 75 13.5 122t45.5 82q67 74 192 74q136 0 203 -86q48 -64 48 -192zM511 277v160q0 109 -39 159
q-42 57 -129 57q-93 0 -136 -66q-32 -51 -32 -150v-160q0 -109 39 -160q42 -57 129 -57q94 0 136 67q32 50 32 150z" />
    <glyph glyph-name="uni01EB" unicode="&#x1eb;" horiz-adv-x="557" 
d="M487 290v-78q0 -172 -120 -210q-69 -50 -69 -106q0 -42 51 -42q26 0 59 10l8 -46q-39 -14 -81 -14q-110 0 -110 81q0 57 55 106q-106 -1 -157.5 53.5t-50.5 167.5v78q0 113 50 167.5t156 54.5q108 0 158.5 -53.5t50.5 -168.5zM408 217v68q0 82 -31.5 121.5t-97.5 39.5
q-65 0 -96.5 -39.5t-31.5 -121.5v-68q0 -82 31.5 -121t96.5 -39q66 0 97.5 39t31.5 121z" />
    <glyph glyph-name="uni01F1" unicode="&#x1f1;" horiz-adv-x="1181" 
d="M104 0v714h228q130 2 196.5 -67.5t62.5 -204.5v-170q4 -135 -62 -204.5t-197 -67.5h-228zM187 69h131q98 -2 144 49t46 162v154q0 111 -46 162t-144 49h-131v-576zM688 0v59l331 585h-313v70h406v-59l-331 -585h346v-70h-439z" />
    <glyph glyph-name="uni01F2" unicode="&#x1f2;" horiz-adv-x="1112" 
d="M104 0v714h228q130 2 196.5 -67.5t62.5 -204.5v-170q4 -135 -62 -204.5t-197 -67.5h-228zM187 69h131q98 -2 144 49t46 162v154q0 111 -46 162t-144 49h-131v-576zM682 0v51l255 385h-235v66h334v-51l-255 -385h271v-66h-370z" />
    <glyph glyph-name="uni01F3" unicode="&#x1f3;" horiz-adv-x="1040" 
d="M414 0l-5 43l-3 -3l-2 -1q-9 -9 -14 -13q-37 -35 -129 -35q-98 0 -144 54t-46 168v76q0 115 45.5 169t142.5 54q66 0 110 -25q17 -13 28 -23v250h79v-714h-62zM150 284v-66q0 -161 122 -161q125 0 125 153v82q0 154 -125 154q-122 0 -122 -162zM609 0v51l256 385h-236v66
h335v-51l-256 -385h272v-66h-371z" />
    <glyph glyph-name="uni01F4" unicode="&#x1f4;" horiz-adv-x="663" 
d="M356 308v67h231v-112q0 -72 -12 -116t-41 -79q-65 -77 -196 -77q-142 0 -207 90q-44 63 -44 202v146q0 83 12.5 132t42.5 84q64 77 190 77q106 0 166.5 -47t65.5 -133l-77 -6q-8 56 -47.5 86t-105.5 30q-88 0 -126 -53t-38 -174v-138q0 -121 39 -173.5t128 -52.5
q93 0 135 59q33 44 33 126v62h-149zM286 789l75 142h97l-112 -142h-60z" />
    <glyph glyph-name="uni01F5" unicode="&#x1f5;" horiz-adv-x="565" 
d="M397 -8l1 47q-47 -48 -139 -48q-97 0 -142.5 54t-45.5 168v76q0 115 46 169t144 54t147 -55l6 45h62v-502q0 -234 -214 -234q-120 0 -175 79l59 36q41 -51 113 -51q70 0 103 39t35 123zM150 284v-66q0 -161 122 -161q125 0 125 153v82q0 154 -125 154q-122 0 -122 -162z
M236 582l75 142h97l-112 -142h-60z" />
    <glyph glyph-name="Aringacute" unicode="&#x1fa;" horiz-adv-x="600" 
d="M0 0l250 684q-55 25 -55 92q0 46 28.5 73.5t76.5 27.5t76.5 -27.5t28.5 -73.5q0 -67 -54 -92l250 -684h-90l-54 156h-313l-54 -156h-90zM436 225l-135 383l-135 -383h270zM301 835q-51 0 -51 -60q0 -59 50 -59t50 59q0 60 -49 60zM263 896l56 117h93l-98 -117h-51z" />
    <glyph glyph-name="aringacute" unicode="&#x1fb;" horiz-adv-x="525" 
d="M361 295v35q0 54 -18 80q-27 36 -92 36q-75 0 -120 -51l-55 42q65 75 182 75q118 0 161 -73q21 -38 21 -121v-318h-63l-6 36q-24 -25 -56.5 -35t-89.5 -10q-97 0 -136.5 33.5t-39.5 115.5q0 87 42 121t149 34h121zM361 235h-113q-67 0 -95 -21.5t-28 -71.5
q0 -48 25.5 -66.5t92.5 -18.5q78 0 104 33q14 18 14 67v78zM267 757q47 0 75.5 -28t28.5 -73q0 -46 -29 -74.5t-76 -28.5t-76 28.5t-29 74.5t28.5 73.5t77.5 27.5zM267 715q-51 0 -51 -60t50 -60t50 60t-49 60zM229 795l56 118h93l-98 -118h-51z" />
    <glyph glyph-name="AEacute" unicode="&#x1fc;" horiz-adv-x="950" 
d="M476 165h-316l-105 -165h-96l469 714h465v-70h-335v-248h285v-70h-285v-256h335v-70h-417v165zM476 234v410h-11l-265 -410h276zM604 789l75 142h97l-112 -142h-60z" />
    <glyph glyph-name="aeacute" unicode="&#x1fd;" horiz-adv-x="834" 
d="M131 395l-55 42q63 75 181 75q108 0 153 -67q50 67 159 67q104 0 153 -58.5t49 -182.5v-36h-329v-21q0 -77 36 -117t104 -40q76 0 115 49l60 -38q-57 -77 -181 -77q-120 0 -173 79q-28 -45 -66 -62t-112 -17q-97 0 -136.5 33.5t-39.5 115.5q0 87 42 121t149 34h121v35
q0 54 -18 80q-27 36 -92 36q-75 0 -120 -51zM361 235h-113q-67 0 -95 -21.5t-28 -71.5q0 -47 26 -66t90 -19q76 0 102 37q18 26 18 87v54zM442 295h253v8q0 62 -27 100q-30 43 -99 43q-77 0 -105 -51q-22 -38 -22 -92v-8zM367 582l75 142h97l-112 -142h-60z" />
    <glyph glyph-name="Oslashacute" unicode="&#x1fe;" horiz-adv-x="675" 
d="M601 692l-49 -73q36 -63 36 -174v-176q0 -76 -13.5 -122.5t-45.5 -81.5q-65 -74 -195 -74q-105 0 -165 51l-41 -62l-54 39l49 74q-37 63 -37 176v176q0 75 13.5 122t45.5 82q67 74 192 74q107 0 170 -52l40 60zM496 534l-282 -425q44 -48 123 -48q93 0 136 66
q32 51 32 150v160q0 65 -9 97zM179 177l283 426q-43 50 -125 50q-93 0 -136 -66q-32 -51 -32 -150v-160q0 -66 10 -100zM288 789l75 142h97l-112 -142h-60z" />
    <glyph glyph-name="oslashacute" unicode="&#x1ff;" horiz-adv-x="557" 
d="M487 490l-37 -52q36 -50 36 -148v-77q0 -114 -50.5 -168t-157.5 -54q-81 0 -127 31l-33 -46l-48 37l37 51q-36 53 -35 149v77q0 114 50.5 168t156.5 54q79 0 127 -31l33 46zM397 364l-202 -280q30 -27 83 -27q129 0 129 161v67q0 42 -10 79zM161 139l201 280
q-31 27 -82 27q-129 0 -129 -161v-67q0 -49 10 -79zM228 582l75 142h97l-112 -142h-60z" />
    <glyph glyph-name="uni0200" unicode="&#x200;" horiz-adv-x="600" 
d="M457 156h-313l-54 -156h-90l261 714h79l261 -714h-90zM436 225l-135 383l-135 -383h270zM402 789h-57l-92 142h89zM268 789h-57l-93 142h90z" />
    <glyph glyph-name="uni0201" unicode="&#x201;" horiz-adv-x="525" 
d="M361 295v35q0 54 -18 80q-27 36 -92 36q-75 0 -120 -51l-55 42q65 75 182 75q118 0 161 -73q21 -38 21 -121v-318h-63l-6 36q-24 -25 -56.5 -35t-89.5 -10q-97 0 -136.5 33.5t-39.5 115.5q0 87 42 121t149 34h121zM361 235h-113q-67 0 -95 -21.5t-28 -71.5
q0 -48 25.5 -66.5t92.5 -18.5q78 0 104 33q14 18 14 67v78zM378 582h-57l-92 142h89zM244 582h-57l-93 142h90z" />
    <glyph glyph-name="uni0202" unicode="&#x202;" horiz-adv-x="600" 
d="M457 156h-313l-54 -156h-90l261 714h79l261 -714h-90zM436 225l-135 383l-135 -383h270zM440 793h-55q-4 43 -23 60t-61 17q-43 0 -62.5 -17t-23.5 -60h-54q4 62 18 85q30 53 121 53q98 0 126 -61q10 -23 14 -77z" />
    <glyph glyph-name="uni0203" unicode="&#x203;" horiz-adv-x="525" 
d="M361 295v35q0 54 -18 80q-27 36 -92 36q-75 0 -120 -51l-55 42q65 75 182 75q118 0 161 -73q21 -38 21 -121v-318h-63l-6 36q-24 -25 -56.5 -35t-89.5 -10q-97 0 -136.5 33.5t-39.5 115.5q0 87 42 121t149 34h121zM361 235h-113q-67 0 -95 -21.5t-28 -71.5
q0 -48 25.5 -66.5t92.5 -18.5q78 0 104 33q14 18 14 67v78zM402 586h-55q-5 43 -23.5 60t-60.5 17q-43 0 -62.5 -17t-23.5 -60h-54q4 62 18 85q30 53 121 53q98 0 126 -61q10 -23 14 -77z" />
    <glyph glyph-name="uni0204" unicode="&#x204;" horiz-adv-x="579" 
d="M104 0v714h417v-70h-335v-248h286v-70h-286v-256h336v-70h-418zM418 789h-57l-92 142h89zM284 789h-57l-93 142h90z" />
    <glyph glyph-name="uni0205" unicode="&#x205;" horiz-adv-x="543" 
d="M151 235v-21q0 -77 36 -117t104 -40q74 0 115 49l59 -38q-57 -77 -182 -77q-108 0 -160 58t-52 179v43q0 125 49 183t155 58t155 -58t49 -183v-36h-328zM151 295h252v8q0 62 -27 100q-30 43 -98 43q-76 0 -106 -51q-21 -39 -21 -92v-8zM384 582h-57l-92 142h89zM250 582
h-57l-93 142h90z" />
    <glyph glyph-name="uni0206" unicode="&#x206;" horiz-adv-x="579" 
d="M104 0v714h417v-70h-335v-248h286v-70h-286v-256h336v-70h-418zM459 793h-55q-4 43 -23 60t-61 17q-43 0 -62.5 -17t-23.5 -60h-54q4 62 18 85q30 53 121 53q98 0 126 -61q10 -23 14 -77z" />
    <glyph glyph-name="uni0207" unicode="&#x207;" horiz-adv-x="543" 
d="M151 235v-21q0 -77 36 -117t104 -40q74 0 115 49l59 -38q-57 -77 -182 -77q-108 0 -160 58t-52 179v43q0 125 49 183t155 58t155 -58t49 -183v-36h-328zM151 295h252v8q0 62 -27 100q-30 43 -98 43q-76 0 -106 -51q-21 -39 -21 -92v-8zM411 586h-55q-5 43 -23.5 60
t-60.5 17q-43 0 -62.5 -17t-23.5 -60h-54q4 62 18 85q30 53 121 53q98 0 126 -61q10 -23 14 -77z" />
    <glyph glyph-name="uni0208" unicode="&#x208;" horiz-adv-x="291" 
d="M104 0v714h83v-714h-83zM248 789h-57l-92 142h89zM114 789h-57l-93 142h90z" />
    <glyph glyph-name="uni0209" unicode="&#x209;" horiz-adv-x="255" 
d="M88 0v502h79v-502h-79zM230 582h-57l-92 142h89zM96 582h-57l-93 142h90z" />
    <glyph glyph-name="uni020A" unicode="&#x20a;" horiz-adv-x="291" 
d="M104 0v714h83v-714h-83zM285 793h-55q-4 43 -23 60t-61 17q-43 0 -62.5 -17t-23.5 -60h-54q4 62 18 85q30 53 121 53q98 0 126 -61q10 -23 14 -77z" />
    <glyph glyph-name="uni020B" unicode="&#x20b;" horiz-adv-x="255" 
d="M87 0v502h79v-502h-79zM267 586h-55q-5 43 -23.5 60t-60.5 17q-43 0 -62.5 -17t-23.5 -60h-54q4 62 18 85q30 53 121 53q98 0 126 -61q10 -23 14 -77z" />
    <glyph glyph-name="uni020C" unicode="&#x20c;" horiz-adv-x="676" 
d="M87 269v176q0 75 13.5 122t45.5 82q67 74 192 74q136 0 203 -86q48 -64 48 -192v-176q0 -76 -13.5 -122.5t-45.5 -81.5q-67 -74 -192 -74q-136 0 -202 86q-49 63 -49 192zM506 277v160q0 109 -39 159q-42 57 -129 57q-93 0 -136 -66q-32 -51 -32 -150v-160
q0 -109 39 -159q42 -57 129 -57q93 0 136 66q32 51 32 150zM440 789h-57l-92 142h89zM306 789h-57l-93 142h90z" />
    <glyph glyph-name="uni020D" unicode="&#x20d;" horiz-adv-x="557" 
d="M71 212v78q0 113 50 167.5t156 54.5q108 0 158.5 -53.5t50.5 -168.5v-78q0 -114 -50.5 -167.5t-158.5 -53.5q-106 0 -156 54t-50 167zM407 217v68q0 82 -31.5 121.5t-97.5 39.5q-65 0 -96.5 -39.5t-31.5 -121.5v-68q0 -82 31.5 -121t96.5 -39q66 0 97.5 39t31.5 121z
M381 582h-57l-92 142h89zM247 582h-57l-93 142h90z" />
    <glyph glyph-name="uni020E" unicode="&#x20e;" horiz-adv-x="676" 
d="M87 269v176q0 75 13.5 122t45.5 82q67 74 192 74q136 0 203 -86q48 -64 48 -192v-176q0 -76 -13.5 -122.5t-45.5 -81.5q-67 -74 -192 -74q-136 0 -202 86q-49 63 -49 192zM506 277v160q0 109 -39 159q-42 57 -129 57q-93 0 -136 -66q-32 -51 -32 -150v-160
q0 -109 39 -159q42 -57 129 -57q93 0 136 66q32 51 32 150zM478 793h-55q-4 43 -23 60t-61 17q-43 0 -62.5 -17t-23.5 -60h-54q4 62 18 85q30 53 121 53q98 0 126 -61q10 -23 14 -77z" />
    <glyph glyph-name="uni020F" unicode="&#x20f;" horiz-adv-x="557" 
d="M71 212v78q0 113 50 167.5t156 54.5q108 0 158.5 -53.5t50.5 -168.5v-78q0 -114 -50.5 -167.5t-158.5 -53.5q-106 0 -156 54t-50 167zM407 217v68q0 82 -31.5 121.5t-97.5 39.5q-65 0 -96.5 -39.5t-31.5 -121.5v-68q0 -82 31.5 -121t96.5 -39q66 0 97.5 39t31.5 121z
M418 586h-55q-5 43 -23.5 60t-60.5 17q-43 0 -62.5 -17t-23.5 -60h-54q4 62 18 85q30 53 121 53q98 0 126 -61q10 -23 14 -77z" />
    <glyph glyph-name="uni0210" unicode="&#x210;" horiz-adv-x="646" 
d="M188 308v-308h-83v714h245q118 0 170 -52q51 -52 51 -147q0 -88 -36 -136t-111 -62l157 -317h-92l-147 308h-154zM187 377h164q137 0 137 134q0 69 -35.5 101.5t-110.5 32.5h-155v-268zM402 789h-57l-92 142h89zM268 789h-57l-93 142h90z" />
    <glyph glyph-name="uni0211" unicode="&#x211;" horiz-adv-x="375" 
d="M88 0v502h62l8 -47q40 57 120 57q50 0 97 -26l-33 -68q-36 24 -71 24q-55 0 -79.5 -46.5t-24.5 -150.5v-245h-79zM323 582h-57l-92 142h89zM189 582h-57l-93 142h90z" />
    <glyph glyph-name="uni0212" unicode="&#x212;" horiz-adv-x="646" 
d="M188 308v-308h-83v714h245q118 0 170 -52q51 -52 51 -147q0 -88 -36 -136t-111 -62l157 -317h-92l-147 308h-154zM187 377h164q137 0 137 134q0 69 -35.5 101.5t-110.5 32.5h-155v-268zM436 793h-55q-4 43 -23 60t-61 17q-43 0 -62.5 -17t-23.5 -60h-54q4 62 18 85
q30 53 121 53q98 0 126 -61q10 -23 14 -77z" />
    <glyph glyph-name="uni0213" unicode="&#x213;" horiz-adv-x="375" 
d="M88 0v502h62l8 -47q40 57 120 57q50 0 97 -26l-33 -68q-36 24 -71 24q-55 0 -79.5 -46.5t-24.5 -150.5v-245h-79zM347 586h-55q-5 43 -23.5 60t-60.5 17q-43 0 -62.5 -17t-23.5 -60h-54q4 62 18 85q30 53 121 53q98 0 126 -61q10 -23 14 -77z" />
    <glyph glyph-name="uni0214" unicode="&#x214;" horiz-adv-x="690" 
d="M101 714h83v-452q0 -96 26 -138q42 -63 135 -63q102 0 141 73q20 40 20 128v452h83v-452q0 -76 -9 -116.5t-34 -71.5q-63 -83 -201 -83q-149 0 -210 95q-19 30 -26.5 68t-7.5 108v452zM447 789h-57l-92 142h89zM313 789h-57l-93 142h90z" />
    <glyph glyph-name="uni0215" unicode="&#x215;" horiz-adv-x="555" 
d="M84 502h79v-280q0 -66 13 -101q24 -62 96 -62q62 0 89 43.5t27 144.5v255h79v-502h-61l-6 56q-42 -65 -138 -65q-130 0 -163 97q-15 42 -15 126v288zM380 582h-57l-92 142h89zM246 582h-57l-93 142h90z" />
    <glyph glyph-name="uni0216" unicode="&#x216;" horiz-adv-x="690" 
d="M101 714h83v-452q0 -96 26 -138q42 -63 135 -63q102 0 141 73q20 40 20 128v452h83v-452q0 -76 -9 -116.5t-34 -71.5q-63 -83 -201 -83q-149 0 -210 95q-19 30 -26.5 68t-7.5 108v452zM485 793h-55q-4 43 -23 60t-61 17q-43 0 -62.5 -17t-23.5 -60h-54q4 62 18 85
q30 53 121 53q98 0 126 -61q10 -23 14 -77z" />
    <glyph glyph-name="uni0217" unicode="&#x217;" horiz-adv-x="555" 
d="M84 502h79v-280q0 -66 13 -101q24 -62 96 -62q62 0 89 43.5t27 144.5v255h79v-502h-61l-6 56q-42 -65 -138 -65q-130 0 -163 97q-15 42 -15 126v288zM417 586h-55q-5 43 -23.5 60t-60.5 17q-43 0 -62.5 -17t-23.5 -60h-54q4 62 18 85q30 53 121 53q98 0 126 -61
q10 -23 14 -77z" />
    <glyph glyph-name="Scommaaccent" unicode="&#x218;" horiz-adv-x="579" 
d="M45 96l65 42q46 -77 176 -77q78 0 121 33.5t43 94.5q0 62 -43 92q-20 14 -36.5 19.5t-95.5 25.5q-110 28 -157 74.5t-47 128.5q0 91 58 142.5t161 51.5q147 0 206 -90l-63 -41q-45 62 -146 62q-63 0 -99 -32t-36 -88q0 -55 36.5 -86t127.5 -54q71 -17 96 -26.5t52 -27.5
q67 -46 67 -147q0 -98 -63.5 -150t-181.5 -52q-175 0 -241 105zM212 -222l52 153h83l-79 -153h-56z" />
    <glyph glyph-name="scommaaccent" unicode="&#x219;" horiz-adv-x="473" 
d="M29 69l58 37q26 -27 56 -38t79 -11q127 0 127 84q0 45 -34 62q-23 12 -93 21q-94 14 -125 41q-40 34 -40 98q0 72 43 110.5t123 38.5q125 0 182 -80l-60 -37q-23 28 -49.5 39.5t-66.5 11.5q-96 0 -96 -79q0 -39 31 -58q21 -11 79 -19q103 -15 137 -40q45 -33 45 -111
q0 -148 -200 -148q-142 0 -196 78zM145 -222l52 153h83l-79 -153h-56z" />
    <glyph glyph-name="uni021A" unicode="&#x21a;" horiz-adv-x="554" 
d="M237 0v644h-206v70h493v-70h-204v-644h-83zM190 -222l52 153h83l-79 -153h-56z" />
    <glyph glyph-name="uni021B" unicode="&#x21b;" horiz-adv-x="334" 
d="M105 436h-61v66h61l4 161h75v-161h99v-66h-99v-277q0 -53 18 -73t67 -19h17v-67h-18q-98 0 -130.5 33t-32.5 134v269zM103 -222l52 153h83l-79 -153h-56z" />
    <glyph glyph-name="uni0226" unicode="&#x226;" horiz-adv-x="600" 
d="M457 156h-313l-54 -156h-90l261 714h79l261 -714h-90zM436 225l-135 383l-135 -383h270zM261 797v104h78v-104h-78z" />
    <glyph glyph-name="uni0227" unicode="&#x227;" horiz-adv-x="525" 
d="M361 295v35q0 54 -18 80q-27 36 -92 36q-75 0 -120 -51l-55 42q65 75 182 75q118 0 161 -73q21 -38 21 -121v-318h-63l-6 36q-24 -25 -56.5 -35t-89.5 -10q-97 0 -136.5 33.5t-39.5 115.5q0 87 42 121t149 34h121zM361 235h-113q-67 0 -95 -21.5t-28 -71.5
q0 -48 25.5 -66.5t92.5 -18.5q78 0 104 33q14 18 14 67v78zM231 590v104h78v-104h-78z" />
    <glyph glyph-name="uni0237" unicode="&#x237;" horiz-adv-x="261" 
d="M93 502h79v-514q2 -125 -41.5 -172t-161.5 -46v67q68 -3 97 30.5t27 112.5v522z" />
    <glyph glyph-name="afii57929" unicode="&#x2bc;" horiz-adv-x="187" 
d="M33 476l36 238h85l-55 -238h-66z" />
    <glyph glyph-name="uni02C0" unicode="&#x2c0;" horiz-adv-x="500" 
d="M285 779h-58q1 34 4.5 45t22.5 39q10 13 10 26q0 24 -31 24q-18 0 -47 -13l-15 46q39 15 74 15q41 0 63.5 -18t22.5 -50q0 -16 -5.5 -27t-22.5 -34q-12 -16 -14.5 -24t-3.5 -29z" />
    <glyph glyph-name="circumflex" unicode="&#x2c6;" horiz-adv-x="500" 
d="M250 667l-68 -81h-84l127 134h51l127 -134h-84z" />
    <glyph glyph-name="caron" unicode="&#x2c7;" horiz-adv-x="500" 
d="M251 638l68 80h84l-127 -133h-51l-127 133h84z" />
    <glyph glyph-name="uni02C9" unicode="&#x2c9;" horiz-adv-x="500" 
d="M122 619v58h257v-58h-257z" />
    <glyph glyph-name="breve" unicode="&#x2d8;" horiz-adv-x="500" 
d="M111 715h54q5 -43 24 -60t61 -17q43 0 61.5 17t23.5 60h55q-4 -59 -18 -85q-30 -53 -122 -53q-97 0 -126 62q-10 22 -13 76z" />
    <glyph glyph-name="dotaccent" unicode="&#x2d9;" horiz-adv-x="500" 
d="M211 590v104h78v-104h-78z" />
    <glyph glyph-name="ring" unicode="&#x2da;" horiz-adv-x="500" 
d="M251 777q47 0 75.5 -28t28.5 -73q0 -46 -29 -74.5t-76 -28.5t-76 28.5t-29 74.5t28.5 73.5t77.5 27.5zM251 735q-51 0 -51 -60t50 -60t50 60t-49 60z" />
    <glyph glyph-name="ogonek" unicode="&#x2db;" horiz-adv-x="500" 
d="M293 0h72q-97 -55 -97 -105q0 -41 51 -41q25 0 58 10l8 -46q-39 -14 -80 -14q-109 0 -109 79q0 73 97 117z" />
    <glyph glyph-name="tilde" unicode="&#x2dc;" horiz-adv-x="500" 
d="M143 596h-51q13 52 25 72q25 43 72 43q37 0 73 -32t53 -32q27 0 41 56h51q-12 -52 -23 -73q-23 -42 -71 -42q-38 0 -75 34q-34 30 -51 30q-30 0 -44 -56z" />
    <glyph glyph-name="hungarumlaut" unicode="&#x2dd;" horiz-adv-x="500" 
d="M147 582l60 142h90l-93 -142h-57zM282 582l60 142h89l-92 -142h-57z" />
    <glyph glyph-name="uni0309" unicode="&#x309;" horiz-adv-x="500" 
d="M285 575h-58q1 34 4.5 45t22.5 39q10 14 10 26q0 24 -31 24q-20 0 -47 -13l-15 47q39 14 74 14q41 0 63.5 -18t22.5 -50q0 -16 -5.5 -27t-22.5 -34q-12 -16 -14.5 -24t-3.5 -29z" />
    <glyph glyph-name="uni0312" unicode="&#x312;" horiz-adv-x="500" 
d="M200 582l111 142h61l-75 -142h-97z" />
    <glyph glyph-name="uni0313" unicode="&#x313;" horiz-adv-x="76" 
d="M-8 492l26 230h82l-52 -230h-56z" />
    <glyph glyph-name="uni031B" unicode="&#x31b;" horiz-adv-x="76" 
d="M-8 492l26 230h82l-52 -230h-56z" />
    <glyph glyph-name="uni0323" unicode="&#x323;" horiz-adv-x="500" 
d="M211 -193v104h78v-104h-78z" />
    <glyph glyph-name="uni037E" unicode="&#x37e;" horiz-adv-x="282" 
d="M57 -188l47 287h90l-68 -287h-69zM107 403v100h83v-100h-83z" />
    <glyph glyph-name="uni0387" unicode="&#x387;" horiz-adv-x="281" 
d="M100 314v99h83v-99h-83z" />
    <glyph glyph-name="uni04D4" unicode="&#x4d4;" horiz-adv-x="950" 
d="M476 165h-316l-105 -165h-96l469 714h465v-70h-335v-248h285v-70h-285v-256h335v-70h-417v165zM476 234v410h-11l-265 -410h276z" />
    <glyph glyph-name="uni04D5" unicode="&#x4d5;" horiz-adv-x="834" 
d="M131 395l-55 42q63 75 181 75q108 0 153 -67q50 67 159 67q104 0 153 -58.5t49 -182.5v-36h-329v-21q0 -77 36 -117t104 -40q76 0 115 49l60 -38q-57 -77 -181 -77q-120 0 -173 79q-28 -45 -66 -62t-112 -17q-97 0 -136.5 33.5t-39.5 115.5q0 87 42 121t149 34h121v35
q0 54 -18 80q-27 36 -92 36q-75 0 -120 -51zM361 235h-113q-67 0 -95 -21.5t-28 -71.5q0 -47 26 -66t90 -19q76 0 102 37q18 26 18 87v54zM442 295h253v8q0 62 -27 100q-30 43 -99 43q-77 0 -105 -51q-22 -38 -22 -92v-8z" />
    <glyph glyph-name="uni1E02" unicode="&#x1e02;" horiz-adv-x="639" 
d="M104 0v714h263q99 0 148 -43q55 -52 55 -142q0 -107 -84 -156l9 -6q27 -16 37.5 -25.5t20.5 -26.5q31 -49 31 -122q0 -104 -63 -155q-46 -38 -140 -38h-277zM187 401h174q60 0 90 26q36 33 36 96q0 69 -41 100q-30 22 -85 22h-174v-244zM187 69h189q58 0 89 28
q36 33 36 102q0 74 -41 108q-31 25 -84 25h-189v-263zM267 797v104h78v-104h-78z" />
    <glyph glyph-name="uni1E03" unicode="&#x1e03;" horiz-adv-x="565" 
d="M89 0v714h79v-250q52 48 137 48q97 0 143 -54t46 -169v-76q0 -116 -46 -169.5t-145 -53.5q-75 0 -118 29q-7 4 -29 24l-5 -43h-62zM415 218v66q0 162 -122 162q-125 0 -125 -154v-82q0 -154 125 -154q122 0 122 162zM287 590v104h78v-104h-78z" />
    <glyph glyph-name="uni1E0C" unicode="&#x1e0c;" horiz-adv-x="678" 
d="M104 0v714h228q130 2 196.5 -67.5t62.5 -204.5v-170q4 -135 -62 -204.5t-197 -67.5h-228zM187 69h131q98 -2 144 49t46 162v154q0 111 -46 162t-144 49h-131v-576zM273 -193v104h78v-104h-78z" />
    <glyph glyph-name="uni1E0D" unicode="&#x1e0d;" horiz-adv-x="565" 
d="M414 0l-5 43l-3 -3l-2 -1q-9 -9 -14 -13q-37 -35 -129 -35q-98 0 -144 54t-46 168v76q0 115 45.5 169t142.5 54q66 0 110 -25q17 -13 28 -23v250h79v-714h-62zM150 284v-66q0 -161 122 -161q125 0 125 153v82q0 154 -125 154q-122 0 -122 -162zM259 -193v104h78v-104h-78
z" />
    <glyph glyph-name="uni1E1E" unicode="&#x1e1e;" horiz-adv-x="546" 
d="M104 0v714h414v-70h-331v-253h281v-70h-281v-321h-83zM278 797v104h78v-104h-78z" />
    <glyph glyph-name="uni1E1F" unicode="&#x1e1f;" horiz-adv-x="332" 
d="M110 436h-62v66h62v81q0 76 30.5 104.5t110.5 26.5h46v-65h-29q-47 2 -63 -13.5t-16 -62.5v-71h114v-66h-114v-436h-79v436zM167 797v104h78v-104h-78z" />
    <glyph glyph-name="uni1E24" unicode="&#x1e24;" horiz-adv-x="681" 
d="M104 0v714h83v-318h306v318h83v-714h-83v326h-306v-326h-83zM301 -193v104h78v-104h-78z" />
    <glyph glyph-name="uni1E25" unicode="&#x1e25;" horiz-adv-x="565" 
d="M88 0v714h79v-252q44 50 132 50q132 0 167 -97q15 -43 15 -127v-288h-79v281q0 88 -26.5 125.5t-87.5 37.5q-64 0 -92.5 -43.5t-28.5 -141.5v-259h-79zM243 -193v104h78v-104h-78z" />
    <glyph glyph-name="uni1E44" unicode="&#x1e44;" horiz-adv-x="721" 
d="M104 0v714h80l352 -572v572h81v-714h-80l-352 572v-572h-81zM328 797v104h78v-104h-78z" />
    <glyph glyph-name="uni1E45" unicode="&#x1e45;" horiz-adv-x="565" 
d="M88 0v502h61l6 -56q43 66 142 66q135 0 169 -97q15 -43 15 -127v-288h-79v281q0 88 -26.5 125.5t-87.5 37.5q-65 0 -93 -43.5t-28 -145.5v-255h-79zM243 590v104h78v-104h-78z" />
    <glyph glyph-name="uni1E5A" unicode="&#x1e5a;" horiz-adv-x="646" 
d="M188 308v-308h-83v714h245q118 0 170 -52q51 -52 51 -147q0 -88 -36 -136t-111 -62l157 -317h-92l-147 308h-154zM187 377h164q137 0 137 134q0 69 -35.5 101.5t-110.5 32.5h-155v-268zM283 -193v104h78v-104h-78z" />
    <glyph glyph-name="uni1E5B" unicode="&#x1e5b;" horiz-adv-x="375" 
d="M88 0v502h62l8 -47q40 57 120 57q50 0 97 -26l-33 -68q-36 24 -71 24q-55 0 -79.5 -46.5t-24.5 -150.5v-245h-79zM88 -193v104h78v-104h-78z" />
    <glyph glyph-name="uni1E62" unicode="&#x1e62;" horiz-adv-x="579" 
d="M45 96l65 42q46 -77 176 -77q78 0 121 33.5t43 94.5q0 62 -43 92q-20 14 -36.5 19.5t-95.5 25.5q-110 28 -157 74.5t-47 128.5q0 91 58 142.5t161 51.5q147 0 206 -90l-63 -41q-45 62 -146 62q-63 0 -99 -32t-36 -88q0 -55 36.5 -86t127.5 -54q71 -17 96 -26.5t52 -27.5
q67 -46 67 -147q0 -98 -63.5 -150t-181.5 -52q-175 0 -241 105zM246 -193v104h78v-104h-78z" />
    <glyph glyph-name="uni1E63" unicode="&#x1e63;" horiz-adv-x="473" 
d="M29 69l58 37q26 -27 56 -38t79 -11q127 0 127 84q0 45 -34 62q-23 12 -93 21q-94 14 -125 41q-40 34 -40 98q0 72 43 110.5t123 38.5q125 0 182 -80l-60 -37q-23 28 -49.5 39.5t-66.5 11.5q-96 0 -96 -79q0 -39 31 -58q21 -11 79 -19q103 -15 137 -40q45 -33 45 -111
q0 -148 -200 -148q-142 0 -196 78zM191 -193v104h78v-104h-78z" />
    <glyph glyph-name="uni1E6C" unicode="&#x1e6c;" horiz-adv-x="554" 
d="M237 0v644h-206v70h493v-70h-204v-644h-83zM238 -193v104h78v-104h-78z" />
    <glyph glyph-name="uni1E6D" unicode="&#x1e6d;" horiz-adv-x="334" 
d="M105 436h-61v66h61l4 161h75v-161h99v-66h-99v-277q0 -53 18 -73t67 -19h17v-67h-18q-98 0 -130.5 33t-32.5 134v269zM128 -193v104h78v-104h-78z" />
    <glyph glyph-name="Wgrave" unicode="&#x1e80;" horiz-adv-x="876" 
d="M208 0l-180 714h84l135 -586l161 586h59l161 -586l136 586h84l-180 -714h-71l-159 569l-159 -569h-71zM490 789h-61l-111 142h97z" />
    <glyph glyph-name="wgrave" unicode="&#x1e81;" horiz-adv-x="771" 
d="M193 0l-155 502h81l110 -394l129 394h55l129 -394l111 394h81l-155 -502h-65l-128 378l-129 -378h-64zM438 582h-61l-111 142h97z" />
    <glyph glyph-name="Wacute" unicode="&#x1e82;" horiz-adv-x="876" 
d="M208 0l-180 714h84l135 -586l161 586h59l161 -586l136 586h84l-180 -714h-71l-159 569l-159 -569h-71zM388 789l75 142h97l-112 -142h-60z" />
    <glyph glyph-name="wacute" unicode="&#x1e83;" horiz-adv-x="771" 
d="M193 0l-155 502h81l110 -394l129 394h55l129 -394l111 394h81l-155 -502h-65l-128 378l-129 -378h-64zM336 582l75 142h97l-112 -142h-60z" />
    <glyph glyph-name="Wdieresis" unicode="&#x1e84;" horiz-adv-x="876" 
d="M208 0l-180 714h84l135 -586l161 586h59l161 -586l136 586h84l-180 -714h-71l-159 569l-159 -569h-71zM304 797v104h72v-104h-72zM499 797v104h72v-104h-72z" />
    <glyph glyph-name="wdieresis" unicode="&#x1e85;" horiz-adv-x="771" 
d="M193 0l-155 502h81l110 -394l129 394h55l129 -394l111 394h81l-155 -502h-65l-128 378l-129 -378h-64zM253 590v104h72v-104h-72zM446 590v104h72v-104h-72z" />
    <glyph glyph-name="uni1E92" unicode="&#x1e92;" horiz-adv-x="543" 
d="M51 0v59l330 585h-312v70h405v-59l-330 -585h346v-70h-439zM242 -193v104h78v-104h-78z" />
    <glyph glyph-name="uni1E93" unicode="&#x1e93;" horiz-adv-x="475" 
d="M45 0v51l255 385h-235v66h334v-51l-255 -385h271v-66h-370zM205 -193v104h78v-104h-78z" />
    <glyph glyph-name="uni1EA0" unicode="&#x1ea0;" horiz-adv-x="600" 
d="M457 156h-313l-54 -156h-90l261 714h79l261 -714h-90zM436 225l-135 383l-135 -383h270zM261 -193v104h78v-104h-78z" />
    <glyph glyph-name="uni1EA1" unicode="&#x1ea1;" horiz-adv-x="525" 
d="M361 295v35q0 54 -18 80q-27 36 -92 36q-75 0 -120 -51l-55 42q65 75 182 75q118 0 161 -73q21 -38 21 -121v-318h-63l-6 36q-24 -25 -56.5 -35t-89.5 -10q-97 0 -136.5 33.5t-39.5 115.5q0 87 42 121t149 34h121zM361 235h-113q-67 0 -95 -21.5t-28 -71.5
q0 -48 25.5 -66.5t92.5 -18.5q78 0 104 33q14 18 14 67v78zM223 -193v104h78v-104h-78z" />
    <glyph glyph-name="uni1EA2" unicode="&#x1ea2;" horiz-adv-x="600" 
d="M457 156h-313l-54 -156h-90l261 714h79l261 -714h-90zM436 225l-135 383l-135 -383h270zM335 779h-58q0 29 3 40t14 29q20 29 20 41q0 24 -31 24q-21 0 -48 -13l-14 46q39 15 74 15q41 0 63.5 -18t22.5 -50q0 -16 -5.5 -27t-22.5 -34q-12 -16 -15 -24t-3 -29z" />
    <glyph glyph-name="uni1EA3" unicode="&#x1ea3;" horiz-adv-x="525" 
d="M361 295v35q0 54 -18 80q-27 36 -92 36q-75 0 -120 -51l-55 42q65 75 182 75q118 0 161 -73q21 -38 21 -121v-318h-63l-6 36q-24 -25 -56.5 -35t-89.5 -10q-97 0 -136.5 33.5t-39.5 115.5q0 87 42 121t149 34h121zM361 235h-113q-67 0 -95 -21.5t-28 -71.5
q0 -48 25.5 -66.5t92.5 -18.5q78 0 104 33q14 18 14 67v78zM301 575h-59q1 33 4.5 44t23.5 40q10 14 10 26q0 24 -31 24q-21 0 -48 -13l-15 47q41 14 75 14q41 0 63.5 -18t22.5 -50q0 -26 -28 -61q-13 -16 -15.5 -24t-2.5 -29z" />
    <glyph glyph-name="uni1EA4" unicode="&#x1ea4;" horiz-adv-x="600" 
d="M457 156h-313l-54 -156h-90l261 714h79l261 -714h-90zM436 225l-135 383l-135 -383h270zM263 896l57 113h76l-85 -113h-48zM300 819l-67 -57h-81l124 107h48l124 -107h-81z" />
    <glyph glyph-name="uni1EA5" unicode="&#x1ea5;" horiz-adv-x="525" 
d="M361 295v35q0 54 -18 80q-27 36 -92 36q-75 0 -120 -51l-55 42q65 75 182 75q118 0 161 -73q21 -38 21 -121v-318h-63l-6 36q-24 -25 -56.5 -35t-89.5 -10q-97 0 -136.5 33.5t-39.5 115.5q0 87 42 121t149 34h121zM361 235h-113q-67 0 -95 -21.5t-28 -71.5
q0 -48 25.5 -66.5t92.5 -18.5q78 0 104 33q14 18 14 67v78zM236 688l56 114h76l-85 -114h-47zM273 612l-68 -57h-80l123 107h49l124 -107h-81z" />
    <glyph glyph-name="uni1EA6" unicode="&#x1ea6;" horiz-adv-x="600" 
d="M457 156h-313l-54 -156h-90l261 714h79l261 -714h-90zM436 225l-135 383l-135 -383h270zM336 896h-48l-85 113h76zM300 819l-67 -57h-81l124 107h49l123 -107h-81z" />
    <glyph glyph-name="uni1EA7" unicode="&#x1ea7;" horiz-adv-x="525" 
d="M361 295v35q0 54 -18 80q-27 36 -92 36q-75 0 -120 -51l-55 42q65 75 182 75q118 0 161 -73q21 -38 21 -121v-318h-63l-6 36q-24 -25 -56.5 -35t-89.5 -10q-97 0 -136.5 33.5t-39.5 115.5q0 87 42 121t149 34h121zM361 235h-113q-67 0 -95 -21.5t-28 -71.5
q0 -48 25.5 -66.5t92.5 -18.5q78 0 104 33q14 18 14 67v78zM308 688h-47l-85 114h76zM273 612l-68 -57h-81l124 107h49l124 -107h-81z" />
    <glyph glyph-name="uni1EA8" unicode="&#x1ea8;" horiz-adv-x="600" 
d="M457 156h-313l-54 -156h-90l261 714h79l261 -714h-90zM436 225l-135 383l-135 -383h270zM326 880h-52q0 22 4 31.5t21 30.5q8 10 8 19q0 14 -27 14q-17 0 -42 -11l-14 39q33 12 67 12q35 0 55 -14t20 -39q0 -19 -25 -45q-10 -10 -12 -15.5t-3 -21.5zM297 817l-67 -55h-81
l124 102h49l124 -102h-81z" />
    <glyph glyph-name="uni1EA9" unicode="&#x1ea9;" horiz-adv-x="525" 
d="M361 295v35q0 54 -18 80q-27 36 -92 36q-75 0 -120 -51l-55 42q65 75 182 75q118 0 161 -73q21 -38 21 -121v-318h-63l-6 36q-24 -25 -56.5 -35t-89.5 -10q-97 0 -136.5 33.5t-39.5 115.5q0 87 42 121t149 34h121zM361 235h-113q-67 0 -95 -21.5t-28 -71.5
q0 -48 25.5 -66.5t92.5 -18.5q78 0 104 33q14 18 14 67v78zM299 673h-53q1 30 16 51q17 20 17 29q0 15 -27 15q-16 0 -42 -11l-13 39q33 12 66 12q75 0 75 -53q0 -19 -25 -45q-10 -10 -12 -16t-2 -21zM270 610l-67 -55h-81l123 102h49l124 -102h-81z" />
    <glyph glyph-name="uni1EAA" unicode="&#x1eaa;" horiz-adv-x="600" 
d="M457 156h-313l-54 -156h-90l261 714h79l261 -714h-90zM436 225l-135 383l-135 -383h270zM216 903h-45q14 55 33 77t53 22q31 0 59 -28q26 -29 41 -29q22 0 33 50h45q-13 -56 -29.5 -77.5t-48.5 -21.5q-34 0 -61 30q-26 27 -40 27q-27 0 -40 -50zM304 819l-67 -57h-81
l124 107h49l123 -107h-80z" />
    <glyph glyph-name="uni1EAB" unicode="&#x1eab;" horiz-adv-x="525" 
d="M361 295v35q0 54 -18 80q-27 36 -92 36q-75 0 -120 -51l-55 42q65 75 182 75q118 0 161 -73q21 -38 21 -121v-318h-63l-6 36q-24 -25 -56.5 -35t-89.5 -10q-97 0 -136.5 33.5t-39.5 115.5q0 87 42 121t149 34h121zM361 235h-113q-67 0 -95 -21.5t-28 -71.5
q0 -48 25.5 -66.5t92.5 -18.5q78 0 104 33q14 18 14 67v78zM178 695h-44q14 56 33 78t53 22q31 0 58 -28q28 -29 42 -29q21 0 32 50h45q-13 -57 -29.5 -78.5t-48.5 -21.5q-33 0 -60 30q-26 27 -41 27q-27 0 -40 -50zM267 612l-67 -57h-81l123 107h49l124 -107h-81z" />
    <glyph glyph-name="uni1EAC" unicode="&#x1eac;" horiz-adv-x="600" 
d="M457 156h-313l-54 -156h-90l261 714h79l261 -714h-90zM436 225l-135 383l-135 -383h270zM300 874l-68 -80h-84l126 133h52l127 -133h-85zM261 -193v104h78v-104h-78z" />
    <glyph glyph-name="uni1EAD" unicode="&#x1ead;" horiz-adv-x="525" 
d="M361 295v35q0 54 -18 80q-27 36 -92 36q-75 0 -120 -51l-55 42q65 75 182 75q118 0 161 -73q21 -38 21 -121v-318h-63l-6 36q-24 -25 -56.5 -35t-89.5 -10q-97 0 -136.5 33.5t-39.5 115.5q0 87 42 121t149 34h121zM361 235h-113q-67 0 -95 -21.5t-28 -71.5
q0 -48 25.5 -66.5t92.5 -18.5q78 0 104 33q14 18 14 67v78zM263 667l-69 -81h-84l127 134h51l127 -134h-84zM223 -193v104h78v-104h-78z" />
    <glyph glyph-name="uni1EAE" unicode="&#x1eae;" horiz-adv-x="600" 
d="M457 156h-313l-54 -156h-90l261 714h79l261 -714h-90zM436 225l-135 383l-135 -383h270zM263 896l57 113h76l-85 -113h-48zM165 884h52q5 -37 23.5 -52t59.5 -15q42 0 60 14.5t23 52.5h52q-3 -53 -17 -77q-29 -48 -118 -48q-96 0 -122 56q-10 21 -13 69z" />
    <glyph glyph-name="uni1EAF" unicode="&#x1eaf;" horiz-adv-x="525" 
d="M361 295v35q0 54 -18 80q-27 36 -92 36q-75 0 -120 -51l-55 42q65 75 182 75q118 0 161 -73q21 -38 21 -121v-318h-63l-6 36q-24 -25 -56.5 -35t-89.5 -10q-97 0 -136.5 33.5t-39.5 115.5q0 87 42 121t149 34h121zM361 235h-113q-67 0 -95 -21.5t-28 -71.5
q0 -48 25.5 -66.5t92.5 -18.5q78 0 104 33q14 18 14 67v78zM226 688l56 114h76l-85 -114h-47zM127 676h52q4 -38 23 -53t61 -15q41 0 60 15.5t23 52.5h52q-4 -56 -17 -77q-31 -48 -119 -48q-95 0 -122 56q-10 21 -13 69z" />
    <glyph glyph-name="uni1EB0" unicode="&#x1eb0;" horiz-adv-x="600" 
d="M457 156h-313l-54 -156h-90l261 714h79l261 -714h-90zM436 225l-135 383l-135 -383h270zM339 896h-47l-85 113h76zM165 884h52q5 -37 23.5 -52t59.5 -15q42 0 60 14.5t23 52.5h52q-3 -53 -17 -77q-29 -48 -118 -48q-96 0 -122 56q-10 21 -13 69z" />
    <glyph glyph-name="uni1EB1" unicode="&#x1eb1;" horiz-adv-x="525" 
d="M361 295v35q0 54 -18 80q-27 36 -92 36q-75 0 -120 -51l-55 42q65 75 182 75q118 0 161 -73q21 -38 21 -121v-318h-63l-6 36q-24 -25 -56.5 -35t-89.5 -10q-97 0 -136.5 33.5t-39.5 115.5q0 87 42 121t149 34h121zM361 235h-113q-67 0 -95 -21.5t-28 -71.5
q0 -48 25.5 -66.5t92.5 -18.5q78 0 104 33q14 18 14 67v78zM304 688h-47l-85 114h76zM127 676h52q4 -38 23 -53t61 -15q41 0 60 15.5t23 52.5h52q-4 -56 -17 -77q-31 -48 -119 -48q-95 0 -122 56q-10 21 -13 69z" />
    <glyph glyph-name="uni1EB2" unicode="&#x1eb2;" horiz-adv-x="600" 
d="M457 156h-313l-54 -156h-90l261 714h79l261 -714h-90zM436 225l-135 383l-135 -383h270zM325 871h-52q0 21 2.5 30t13.5 23q17 23 17 32q0 19 -28 19q-18 0 -41 -11l-14 39q33 12 66 12q36 0 56 -15t20 -43q0 -16 -23 -42q-17 -20 -17 -39v-5zM165 884h51q5 -39 23.5 -54
t61.5 -15q41 0 60 15.5t23 53.5h51q-3 -53 -17 -77q-29 -48 -118 -48q-96 0 -122 56q-10 21 -13 69z" />
    <glyph glyph-name="uni1EB3" unicode="&#x1eb3;" horiz-adv-x="525" 
d="M361 295v35q0 54 -18 80q-27 36 -92 36q-75 0 -120 -51l-55 42q65 75 182 75q118 0 161 -73q21 -38 21 -121v-318h-63l-6 36q-24 -25 -56.5 -35t-89.5 -10q-97 0 -136.5 33.5t-39.5 115.5q0 87 42 121t149 34h121zM361 235h-113q-67 0 -95 -21.5t-28 -71.5
q0 -48 25.5 -66.5t92.5 -18.5q78 0 104 33q14 18 14 67v78zM288 664h-53q1 31 16 53q17 23 17 32q0 19 -28 19q-16 0 -41 -11l-13 39q33 12 65 12q36 0 56 -15t20 -43q0 -16 -23 -42q-10 -13 -12.5 -19.5t-3.5 -24.5zM127 676h52q4 -39 23 -54t61 -15q41 0 60 15.5t24 53.5
h51q-4 -56 -17 -77q-31 -48 -119 -48q-95 0 -122 56q-10 21 -13 69z" />
    <glyph glyph-name="uni1EB4" unicode="&#x1eb4;" horiz-adv-x="600" 
d="M457 156h-313l-54 -156h-90l261 714h79l261 -714h-90zM436 225l-135 383l-135 -383h270zM207 912h-45q14 55 33.5 77t52.5 22q32 0 59 -28q26 -29 42 -29q21 0 32 50h45q-13 -57 -29.5 -78t-48.5 -21q-34 0 -61 30q-26 27 -40 27q-26 0 -40 -50zM161 877h50
q4 -35 22.5 -49.5t59.5 -14.5q42 0 60.5 14t22.5 50h50q-3 -51 -17 -73q-29 -45 -115 -45q-94 0 -120 52q-10 21 -13 66z" />
    <glyph glyph-name="uni1EB5" unicode="&#x1eb5;" horiz-adv-x="525" 
d="M361 295v35q0 54 -18 80q-27 36 -92 36q-75 0 -120 -51l-55 42q65 75 182 75q118 0 161 -73q21 -38 21 -121v-318h-63l-6 36q-24 -25 -56.5 -35t-89.5 -10q-97 0 -136.5 33.5t-39.5 115.5q0 87 42 121t149 34h121zM361 235h-113q-67 0 -95 -21.5t-28 -71.5
q0 -48 25.5 -66.5t92.5 -18.5q78 0 104 33q14 18 14 67v78zM180 704h-45q14 55 33 77.5t53 22.5q31 0 59 -28q26 -29 41 -29q23 0 33 50h44q-12 -57 -29 -78.5t-49 -21.5q-33 0 -60 30q-26 27 -40 27q-27 0 -40 -50zM133 670h50q5 -35 23.5 -49.5t59.5 -14.5t59.5 14
t23.5 50h50q-4 -53 -17 -73q-29 -45 -116 -45q-93 0 -120 52q-9 18 -13 66z" />
    <glyph glyph-name="uni1EB6" unicode="&#x1eb6;" horiz-adv-x="600" 
d="M457 156h-313l-54 -156h-90l261 714h79l261 -714h-90zM436 225l-135 383l-135 -383h270zM161 923h54q5 -43 23.5 -60t61.5 -17t61.5 17t23.5 60h54q-2 -59 -17 -85q-32 -53 -122 -53q-98 0 -126 61q-10 23 -13 77zM261 -193v104h78v-104h-78z" />
    <glyph glyph-name="uni1EB7" unicode="&#x1eb7;" horiz-adv-x="525" 
d="M361 295v35q0 54 -18 80q-27 36 -92 36q-75 0 -120 -51l-55 42q65 75 182 75q118 0 161 -73q21 -38 21 -121v-318h-63l-6 36q-24 -25 -56.5 -35t-89.5 -10q-97 0 -136.5 33.5t-39.5 115.5q0 87 42 121t149 34h121zM361 235h-113q-67 0 -95 -21.5t-28 -71.5
q0 -48 25.5 -66.5t92.5 -18.5q78 0 104 33q14 18 14 67v78zM135 715h54q5 -43 24 -60t61 -17q43 0 62 17t24 60h54q-3 -59 -18 -85q-30 -53 -121 -53q-99 0 -126 62q-11 24 -14 76zM223 -193v104h78v-104h-78z" />
    <glyph glyph-name="uni1EB8" unicode="&#x1eb8;" horiz-adv-x="579" 
d="M104 0v714h417v-70h-335v-248h286v-70h-286v-256h336v-70h-418zM279 -193v104h78v-104h-78z" />
    <glyph glyph-name="uni1EB9" unicode="&#x1eb9;" horiz-adv-x="543" 
d="M151 235v-21q0 -77 36 -117t104 -40q74 0 115 49l59 -38q-57 -77 -182 -77q-108 0 -160 58t-52 179v43q0 125 49 183t155 58t155 -58t49 -183v-36h-328zM151 295h252v8q0 62 -27 100q-30 43 -98 43q-76 0 -106 -51q-21 -39 -21 -92v-8zM232 -193v104h78v-104h-78z" />
    <glyph glyph-name="uni1EBA" unicode="&#x1eba;" horiz-adv-x="579" 
d="M104 0v714h417v-70h-335v-248h286v-70h-286v-256h336v-70h-418zM354 779h-59q1 30 3.5 41t14.5 28q19 29 19 41q0 24 -31 24q-18 0 -47 -13l-15 46q39 15 74 15q41 0 63.5 -18t22.5 -50q0 -26 -28 -61q-12 -16 -14.5 -24t-2.5 -29z" />
    <glyph glyph-name="uni1EBB" unicode="&#x1ebb;" horiz-adv-x="543" 
d="M151 235v-21q0 -77 36 -117t104 -40q74 0 115 49l59 -38q-57 -77 -182 -77q-108 0 -160 58t-52 179v43q0 125 49 183t155 58t155 -58t49 -183v-36h-328zM151 295h252v8q0 62 -27 100q-30 43 -98 43q-76 0 -106 -51q-21 -39 -21 -92v-8zM313 575h-59q1 32 4.5 43.5
t23.5 40.5q10 14 10 26q0 24 -31 24q-19 0 -48 -13l-14 47q39 14 74 14q41 0 63.5 -18t22.5 -50q0 -16 -5.5 -27t-22.5 -34q-12 -16 -15 -24t-3 -29z" />
    <glyph glyph-name="uni1EBC" unicode="&#x1ebc;" horiz-adv-x="579" 
d="M104 0v714h417v-70h-335v-248h286v-70h-286v-256h336v-70h-418zM212 804h-51q13 52 25 71q25 43 72 43q37 0 73 -32t53 -32q27 0 41 56h51q-12 -50 -23 -73q-23 -41 -71 -41q-38 0 -75 34q-34 30 -52 30q-29 0 -43 -56z" />
    <glyph glyph-name="uni1EBD" unicode="&#x1ebd;" horiz-adv-x="543" 
d="M151 235v-21q0 -77 36 -117t104 -40q74 0 115 49l59 -38q-57 -77 -182 -77q-108 0 -160 58t-52 179v43q0 125 49 183t155 58t155 -58t49 -183v-36h-328zM151 295h252v8q0 62 -27 100q-30 43 -98 43q-76 0 -106 -51q-21 -39 -21 -92v-8zM165 596h-51q13 52 25 72
q25 43 72 43q37 0 73 -32t53 -32q27 0 41 56h51q-12 -52 -23 -73q-22 -42 -71 -42q-38 0 -75 34q-34 30 -51 30q-30 0 -44 -56z" />
    <glyph glyph-name="uni1EBE" unicode="&#x1ebe;" horiz-adv-x="579" 
d="M104 0v714h417v-70h-335v-248h286v-70h-286v-256h336v-70h-418zM282 896l56 113h76l-84 -113h-48zM319 819l-68 -57h-80l123 107h49l124 -107h-81z" />
    <glyph glyph-name="uni1EBF" unicode="&#x1ebf;" horiz-adv-x="543" 
d="M151 235v-21q0 -77 36 -117t104 -40q74 0 115 49l59 -38q-57 -77 -182 -77q-108 0 -160 58t-52 179v43q0 125 49 183t155 58t155 -58t49 -183v-36h-328zM151 295h252v8q0 62 -27 100q-30 43 -98 43q-76 0 -106 -51q-21 -39 -21 -92v-8zM240 688l57 114h76l-85 -114h-48z
M277 612l-67 -57h-81l124 107h49l123 -107h-80z" />
    <glyph glyph-name="uni1EC0" unicode="&#x1ec0;" horiz-adv-x="579" 
d="M104 0v714h417v-70h-335v-248h286v-70h-286v-256h336v-70h-418zM355 896h-48l-85 113h76zM319 819l-68 -57h-80l123 107h49l124 -107h-81z" />
    <glyph glyph-name="uni1EC1" unicode="&#x1ec1;" horiz-adv-x="543" 
d="M151 235v-21q0 -77 36 -117t104 -40q74 0 115 49l59 -38q-57 -77 -182 -77q-108 0 -160 58t-52 179v43q0 125 49 183t155 58t155 -58t49 -183v-36h-328zM151 295h252v8q0 62 -27 100q-30 43 -98 43q-76 0 -106 -51q-21 -39 -21 -92v-8zM313 688h-48l-84 114h75zM277 612
l-67 -57h-81l124 107h49l123 -107h-80z" />
    <glyph glyph-name="uni1EC2" unicode="&#x1ec2;" horiz-adv-x="579" 
d="M104 0v714h417v-70h-335v-248h286v-70h-286v-256h336v-70h-418zM345 880h-52q0 22 3.5 31.5t20.5 30.5q8 10 8 19q0 14 -27 14q-16 0 -42 -11l-13 39q33 12 66 12q35 0 55 -14t20 -39q0 -20 -24 -45q-10 -10 -12.5 -16t-2.5 -21zM316 817l-67 -55h-81l124 102h49
l123 -102h-80z" />
    <glyph glyph-name="uni1EC3" unicode="&#x1ec3;" horiz-adv-x="543" 
d="M151 235v-21q0 -77 36 -117t104 -40q74 0 115 49l59 -38q-57 -77 -182 -77q-108 0 -160 58t-52 179v43q0 125 49 183t155 58t155 -58t49 -183v-36h-328zM151 295h252v8q0 62 -27 100q-30 43 -98 43q-76 0 -106 -51q-21 -39 -21 -92v-8zM303 673h-52q1 30 16 51
q17 21 17 29q0 15 -28 15q-18 0 -41 -11l-13 39q33 12 66 12q35 0 55 -14t20 -39q0 -19 -25 -45q-10 -11 -12 -16t-3 -21zM275 610l-68 -55h-80l123 102h49l124 -102h-81z" />
    <glyph glyph-name="uni1EC4" unicode="&#x1ec4;" horiz-adv-x="579" 
d="M104 0v714h417v-70h-335v-248h286v-70h-286v-256h336v-70h-418zM234 903h-44q14 55 33 77t53 22q31 0 58 -28q28 -29 42 -29q22 0 33 50h44q-12 -56 -29 -77.5t-49 -21.5q-33 0 -60 30q-26 27 -41 27q-27 0 -40 -50zM323 819l-67 -57h-81l124 107h48l124 -107h-81z" />
    <glyph glyph-name="uni1EC5" unicode="&#x1ec5;" horiz-adv-x="543" 
d="M151 235v-21q0 -77 36 -117t104 -40q74 0 115 49l59 -38q-57 -77 -182 -77q-108 0 -160 58t-52 179v43q0 125 49 183t155 58t155 -58t49 -183v-36h-328zM151 295h252v8q0 62 -27 100q-30 43 -98 43q-76 0 -106 -51q-21 -39 -21 -92v-8zM187 695h-45q14 55 33.5 77.5
t52.5 22.5q32 0 59 -28q28 -29 42 -29q21 0 32 50h45q-13 -57 -29.5 -78.5t-48.5 -21.5q-34 0 -61 30q-24 27 -40 27q-27 0 -40 -50zM276 612l-68 -57h-80l123 107h49l124 -107h-81z" />
    <glyph glyph-name="uni1EC6" unicode="&#x1ec6;" horiz-adv-x="579" 
d="M104 0v714h417v-70h-335v-248h286v-70h-286v-256h336v-70h-418zM315 874l-68 -80h-84l127 133h51l127 -133h-84zM279 -193v104h78v-104h-78z" />
    <glyph glyph-name="uni1EC7" unicode="&#x1ec7;" horiz-adv-x="543" 
d="M151 235v-21q0 -77 36 -117t104 -40q74 0 115 49l59 -38q-57 -77 -182 -77q-108 0 -160 58t-52 179v43q0 125 49 183t155 58t155 -58t49 -183v-36h-328zM151 295h252v8q0 62 -27 100q-30 43 -98 43q-76 0 -106 -51q-21 -39 -21 -92v-8zM280 667l-69 -81h-84l127 134h52
l126 -134h-84zM232 -193v104h78v-104h-78z" />
    <glyph glyph-name="uni1EC8" unicode="&#x1ec8;" horiz-adv-x="291" 
d="M104 0v714h83v-714h-83zM180 779h-58q1 34 4.5 45t22.5 39q10 13 10 26q0 24 -31 24q-18 0 -47 -13l-15 46q39 15 74 15q41 0 63.5 -18t22.5 -50q0 -16 -5.5 -27t-22.5 -34q-12 -16 -14.5 -24t-3.5 -29z" />
    <glyph glyph-name="uni1EC9" unicode="&#x1ec9;" horiz-adv-x="255" 
d="M88 0v502h79v-502h-79zM162 575h-58q1 34 4.5 45t22.5 39q10 14 10 26q0 24 -31 24q-20 0 -47 -13l-15 47q39 14 74 14q41 0 63.5 -18t22.5 -50q0 -16 -5.5 -27t-22.5 -34q-12 -16 -14.5 -24t-3.5 -29z" />
    <glyph glyph-name="uni1ECA" unicode="&#x1eca;" horiz-adv-x="291" 
d="M104 0v714h83v-714h-83zM106 -193v104h78v-104h-78z" />
    <glyph glyph-name="uni1ECB" unicode="&#x1ecb;" horiz-adv-x="255" 
d="M88 611v106h79v-106h-79zM88 0v502h79v-502h-79zM88 -193v104h78v-104h-78z" />
    <glyph glyph-name="uni1ECC" unicode="&#x1ecc;" horiz-adv-x="676" 
d="M87 269v176q0 75 13.5 122t45.5 82q67 74 192 74q136 0 203 -86q48 -64 48 -192v-176q0 -76 -13.5 -122.5t-45.5 -81.5q-67 -74 -192 -74q-136 0 -202 86q-49 63 -49 192zM506 277v160q0 109 -39 159q-42 57 -129 57q-93 0 -136 -66q-32 -51 -32 -150v-160
q0 -109 39 -159q42 -57 129 -57q93 0 136 66q32 51 32 150zM299 -193v104h78v-104h-78z" />
    <glyph glyph-name="uni1ECD" unicode="&#x1ecd;" horiz-adv-x="557" 
d="M71 212v78q0 113 50 167.5t156 54.5q108 0 158.5 -53.5t50.5 -168.5v-78q0 -114 -50.5 -167.5t-158.5 -53.5q-106 0 -156 54t-50 167zM407 217v68q0 82 -31.5 121.5t-97.5 39.5q-65 0 -96.5 -39.5t-31.5 -121.5v-68q0 -82 31.5 -121t96.5 -39q66 0 97.5 39t31.5 121z
M239 -193v104h78v-104h-78z" />
    <glyph glyph-name="uni1ECE" unicode="&#x1ece;" horiz-adv-x="676" 
d="M87 269v176q0 75 13.5 122t45.5 82q67 74 192 74q136 0 203 -86q48 -64 48 -192v-176q0 -76 -13.5 -122.5t-45.5 -81.5q-67 -74 -192 -74q-136 0 -202 86q-49 63 -49 192zM506 277v160q0 109 -39 159q-42 57 -129 57q-93 0 -136 -66q-32 -51 -32 -150v-160
q0 -109 39 -159q42 -57 129 -57q93 0 136 66q32 51 32 150zM373 779h-59q1 32 4.5 44t23.5 40q10 14 10 26q0 24 -31 24q-18 0 -48 -13l-14 46q38 15 74 15q41 0 63.5 -18t22.5 -50q0 -26 -28 -61q-12 -16 -15 -24t-3 -29z" />
    <glyph glyph-name="uni1ECF" unicode="&#x1ecf;" horiz-adv-x="557" 
d="M71 212v78q0 113 50 167.5t156 54.5q108 0 158.5 -53.5t50.5 -168.5v-78q0 -114 -50.5 -167.5t-158.5 -53.5q-106 0 -156 54t-50 167zM407 217v68q0 82 -31.5 121.5t-97.5 39.5q-65 0 -96.5 -39.5t-31.5 -121.5v-68q0 -82 31.5 -121t96.5 -39q66 0 97.5 39t31.5 121z
M313 575h-58q0 32 3.5 43.5t23.5 40.5q10 14 10 26q0 24 -31 24q-19 0 -48 -13l-14 47q39 14 74 14q41 0 63.5 -18t22.5 -50q0 -16 -5.5 -27t-22.5 -34q-12 -15 -15 -23.5t-3 -29.5z" />
    <glyph glyph-name="uni1ED0" unicode="&#x1ed0;" horiz-adv-x="676" 
d="M87 269v176q0 75 13.5 122t45.5 82q67 74 192 74q136 0 203 -86q48 -64 48 -192v-176q0 -76 -13.5 -122.5t-45.5 -81.5q-67 -74 -192 -74q-136 0 -202 86q-49 63 -49 192zM506 277v160q0 109 -39 159q-42 57 -129 57q-93 0 -136 -66q-32 -51 -32 -150v-160
q0 -109 39 -159q42 -57 129 -57q93 0 136 66q32 51 32 150zM301 896l57 113h75l-84 -113h-48zM338 819l-67 -57h-81l124 107h48l124 -107h-81z" />
    <glyph glyph-name="uni1ED1" unicode="&#x1ed1;" horiz-adv-x="557" 
d="M71 212v78q0 113 50 167.5t156 54.5q108 0 158.5 -53.5t50.5 -168.5v-78q0 -114 -50.5 -167.5t-158.5 -53.5q-106 0 -156 54t-50 167zM407 217v68q0 82 -31.5 121.5t-97.5 39.5q-65 0 -96.5 -39.5t-31.5 -121.5v-68q0 -82 31.5 -121t96.5 -39q66 0 97.5 39t31.5 121z
M241 688l57 114h76l-85 -114h-48zM278 612l-67 -57h-81l124 107h49l123 -107h-80z" />
    <glyph glyph-name="uni1ED2" unicode="&#x1ed2;" horiz-adv-x="676" 
d="M87 269v176q0 75 13.5 122t45.5 82q67 74 192 74q136 0 203 -86q48 -64 48 -192v-176q0 -76 -13.5 -122.5t-45.5 -81.5q-67 -74 -192 -74q-136 0 -202 86q-49 63 -49 192zM506 277v160q0 109 -39 159q-42 57 -129 57q-93 0 -136 -66q-32 -51 -32 -150v-160
q0 -109 39 -159q42 -57 129 -57q93 0 136 66q32 51 32 150zM374 896h-48l-85 113h76zM338 819l-67 -57h-81l124 107h49l123 -107h-81z" />
    <glyph glyph-name="uni1ED3" unicode="&#x1ed3;" horiz-adv-x="557" 
d="M71 212v78q0 113 50 167.5t156 54.5q108 0 158.5 -53.5t50.5 -168.5v-78q0 -114 -50.5 -167.5t-158.5 -53.5q-106 0 -156 54t-50 167zM407 217v68q0 82 -31.5 121.5t-97.5 39.5q-65 0 -96.5 -39.5t-31.5 -121.5v-68q0 -82 31.5 -121t96.5 -39q66 0 97.5 39t31.5 121z
M314 688h-48l-84 114h75zM278 612l-67 -57h-81l124 107h49l123 -107h-80z" />
    <glyph glyph-name="uni1ED4" unicode="&#x1ed4;" horiz-adv-x="676" 
d="M87 269v176q0 75 13.5 122t45.5 82q67 74 192 74q136 0 203 -86q48 -64 48 -192v-176q0 -76 -13.5 -122.5t-45.5 -81.5q-67 -74 -192 -74q-136 0 -202 86q-49 63 -49 192zM506 277v160q0 109 -39 159q-42 57 -129 57q-93 0 -136 -66q-32 -51 -32 -150v-160
q0 -109 39 -159q42 -57 129 -57q93 0 136 66q32 51 32 150zM364 880h-52q0 22 4 31.5t21 30.5q8 10 8 19q0 14 -27 14q-17 0 -42 -11l-14 39q33 12 67 12q35 0 55 -14t20 -39q0 -19 -25 -45q-10 -10 -12.5 -16t-2.5 -21zM335 817l-67 -55h-81l124 102h49l124 -102h-81z" />
    <glyph glyph-name="uni1ED5" unicode="&#x1ed5;" horiz-adv-x="557" 
d="M71 212v78q0 113 50 167.5t156 54.5q108 0 158.5 -53.5t50.5 -168.5v-78q0 -114 -50.5 -167.5t-158.5 -53.5q-106 0 -156 54t-50 167zM407 217v68q0 82 -31.5 121.5t-97.5 39.5q-65 0 -96.5 -39.5t-31.5 -121.5v-68q0 -82 31.5 -121t96.5 -39q66 0 97.5 39t31.5 121z
M304 673h-52q1 32 16 51q17 20 17 29q0 15 -28 15q-18 0 -41 -11l-13 39q33 12 66 12q35 0 55 -14t20 -39q0 -19 -25 -45q-10 -11 -12 -16t-3 -21zM276 610l-68 -55h-80l123 102h49l124 -102h-81z" />
    <glyph glyph-name="uni1ED6" unicode="&#x1ed6;" horiz-adv-x="676" 
d="M87 269v176q0 75 13.5 122t45.5 82q67 74 192 74q136 0 203 -86q48 -64 48 -192v-176q0 -76 -13.5 -122.5t-45.5 -81.5q-67 -74 -192 -74q-136 0 -202 86q-49 63 -49 192zM506 277v160q0 109 -39 159q-42 57 -129 57q-93 0 -136 -66q-32 -51 -32 -150v-160
q0 -109 39 -159q42 -57 129 -57q93 0 136 66q32 51 32 150zM254 903h-45q14 55 33 77t53 22q31 0 59 -28q26 -29 41 -29q22 0 33 50h45q-13 -56 -30 -77.5t-49 -21.5q-33 0 -60 30q-26 27 -40 27q-27 0 -40 -50zM342 819l-67 -57h-81l124 107h49l123 -107h-80z" />
    <glyph glyph-name="uni1ED7" unicode="&#x1ed7;" horiz-adv-x="557" 
d="M71 212v78q0 113 50 167.5t156 54.5q108 0 158.5 -53.5t50.5 -168.5v-78q0 -114 -50.5 -167.5t-158.5 -53.5q-106 0 -156 54t-50 167zM407 217v68q0 82 -31.5 121.5t-97.5 39.5q-65 0 -96.5 -39.5t-31.5 -121.5v-68q0 -82 31.5 -121t96.5 -39q66 0 97.5 39t31.5 121z
M194 695h-45q14 55 33.5 77.5t52.5 22.5q32 0 59 -28q26 -29 42 -29q21 0 32 50h45q-13 -57 -29.5 -78.5t-48.5 -21.5q-34 0 -61 30q-24 27 -40 27q-27 0 -40 -50zM283 612l-68 -57h-81l124 107h49l124 -107h-81z" />
    <glyph glyph-name="uni1ED8" unicode="&#x1ed8;" horiz-adv-x="676" 
d="M87 269v176q0 75 13.5 122t45.5 82q67 74 192 74q136 0 203 -86q48 -64 48 -192v-176q0 -76 -13.5 -122.5t-45.5 -81.5q-67 -74 -192 -74q-136 0 -202 86q-49 63 -49 192zM506 277v160q0 109 -39 159q-42 57 -129 57q-93 0 -136 -66q-32 -51 -32 -150v-160
q0 -109 39 -159q42 -57 129 -57q93 0 136 66q32 51 32 150zM338 874l-68 -80h-84l126 133h52l127 -133h-85zM299 -193v104h78v-104h-78z" />
    <glyph glyph-name="uni1ED9" unicode="&#x1ed9;" horiz-adv-x="557" 
d="M71 212v78q0 113 50 167.5t156 54.5q108 0 158.5 -53.5t50.5 -168.5v-78q0 -114 -50.5 -167.5t-158.5 -53.5q-106 0 -156 54t-50 167zM407 217v68q0 82 -31.5 121.5t-97.5 39.5q-65 0 -96.5 -39.5t-31.5 -121.5v-68q0 -82 31.5 -121t96.5 -39q66 0 97.5 39t31.5 121z
M278 667l-68 -81h-84l126 134h52l127 -134h-84zM239 -193v104h78v-104h-78z" />
    <glyph glyph-name="uni1EDA" unicode="&#x1eda;" horiz-adv-x="701" 
d="M629 724h71q7 -21 7 -37q0 -67 -59 -114q-23 -18 -66 -43q7 -42 7 -85v-176q0 -76 -13.5 -122.5t-45.5 -81.5q-67 -74 -192 -74q-136 0 -202 86q-49 63 -49 192v176q0 139 59 205q67 74 192 74q178 0 233 -143q41 26 55.5 46t14.5 50q0 23 -12 47zM506 277v160
q0 110 -39 160q-42 57 -129 57q-94 0 -136 -67q-32 -51 -32 -150v-160q0 -109 39 -159q42 -57 129 -57q93 0 136 66q32 51 32 150zM311 789l75 142h97l-112 -142h-60z" />
    <glyph glyph-name="uni1EDB" unicode="&#x1edb;" horiz-adv-x="582" 
d="M521 512h72q6 -19 6 -40q0 -46 -26.5 -80.5t-89.5 -69.5q3 -29 3 -44v-66q0 -114 -50.5 -167.5t-158.5 -53.5q-106 0 -156 54t-50 167v78q0 114 50.5 168t157.5 54q165 0 198 -136l6 4q29 22 39.5 39.5t10.5 44.5q0 23 -12 48zM407 217v68q0 82 -31.5 121.5t-97.5 39.5
q-65 0 -96.5 -39.5t-31.5 -121.5v-68q0 -82 31.5 -121t96.5 -39q66 0 97.5 39t31.5 121zM249 582l75 142h97l-112 -142h-60z" />
    <glyph glyph-name="uni1EDC" unicode="&#x1edc;" horiz-adv-x="701" 
d="M629 724h71q7 -21 7 -37q0 -67 -59 -114q-23 -18 -66 -43q7 -42 7 -85v-176q0 -76 -13.5 -122.5t-45.5 -81.5q-67 -74 -192 -74q-136 0 -202 86q-49 63 -49 192v176q0 139 59 205q67 74 192 74q178 0 233 -143q41 26 55.5 46t14.5 50q0 23 -12 47zM506 277v160
q0 110 -39 160q-42 57 -129 57q-94 0 -136 -67q-32 -51 -32 -150v-160q0 -109 39 -159q42 -57 129 -57q93 0 136 66q32 51 32 150zM416 789h-60l-112 142h97z" />
    <glyph glyph-name="uni1EDD" unicode="&#x1edd;" horiz-adv-x="582" 
d="M521 512h72q6 -19 6 -40q0 -46 -26.5 -80.5t-89.5 -69.5q3 -29 3 -44v-66q0 -114 -50.5 -167.5t-158.5 -53.5q-106 0 -156 54t-50 167v78q0 114 50.5 168t157.5 54q165 0 198 -136l6 4q29 22 39.5 39.5t10.5 44.5q0 23 -12 48zM407 217v68q0 82 -31.5 121.5t-97.5 39.5
q-65 0 -96.5 -39.5t-31.5 -121.5v-68q0 -82 31.5 -121t96.5 -39q66 0 97.5 39t31.5 121zM358 582h-61l-111 142h96z" />
    <glyph glyph-name="uni1EDE" unicode="&#x1ede;" horiz-adv-x="701" 
d="M629 724h71q7 -21 7 -37q0 -67 -59 -114q-23 -18 -66 -43q7 -42 7 -85v-176q0 -76 -13.5 -122.5t-45.5 -81.5q-67 -74 -192 -74q-136 0 -202 86q-49 63 -49 192v176q0 139 59 205q67 74 192 74q178 0 233 -143q41 26 55.5 46t14.5 50q0 23 -12 47zM506 277v160
q0 110 -39 160q-42 57 -129 57q-94 0 -136 -67q-32 -51 -32 -150v-160q0 -109 39 -159q42 -57 129 -57q93 0 136 66q32 51 32 150zM381 779h-58q1 33 4.5 44.5t22.5 39.5q10 13 10 26q0 24 -31 24q-18 0 -48 -13l-14 46q39 15 74 15q41 0 63.5 -18t22.5 -50q0 -16 -5.5 -27
t-22.5 -34q-12 -16 -14.5 -24t-3.5 -29z" />
    <glyph glyph-name="uni1EDF" unicode="&#x1edf;" horiz-adv-x="582" 
d="M521 512h72q6 -19 6 -40q0 -46 -26.5 -80.5t-89.5 -69.5q3 -29 3 -44v-66q0 -114 -50.5 -167.5t-158.5 -53.5q-106 0 -156 54t-50 167v78q0 114 50.5 168t157.5 54q165 0 198 -136l6 4q29 22 39.5 39.5t10.5 44.5q0 23 -12 48zM407 217v68q0 82 -31.5 121.5t-97.5 39.5
q-65 0 -96.5 -39.5t-31.5 -121.5v-68q0 -82 31.5 -121t96.5 -39q66 0 97.5 39t31.5 121zM329 575h-58q1 34 4.5 45t22.5 39q10 13 10 26q0 24 -31 24q-19 0 -48 -13l-14 47q39 14 74 14q41 0 63.5 -18t22.5 -50q0 -16 -5.5 -27t-22.5 -34q-12 -15 -14.5 -23t-3.5 -30z" />
    <glyph glyph-name="uni1EE0" unicode="&#x1ee0;" horiz-adv-x="701" 
d="M629 724h71q7 -21 7 -37q0 -67 -59 -114q-23 -18 -66 -43q7 -42 7 -85v-176q0 -76 -13.5 -122.5t-45.5 -81.5q-67 -74 -192 -74q-136 0 -202 86q-49 63 -49 192v176q0 139 59 205q67 74 192 74q178 0 233 -143q41 26 55.5 46t14.5 50q0 23 -12 47zM506 277v160
q0 110 -39 160q-42 57 -129 57q-94 0 -136 -67q-32 -51 -32 -150v-160q0 -109 39 -159q42 -57 129 -57q93 0 136 66q32 51 32 150zM247 804h-51q13 51 24 71q27 43 73 43q37 0 73 -32t53 -32q27 0 41 56h51q-12 -50 -23 -73q-23 -41 -71 -41q-38 0 -76 34q-34 30 -51 30
q-29 0 -43 -56z" />
    <glyph glyph-name="uni1EE1" unicode="&#x1ee1;" horiz-adv-x="582" 
d="M521 512h72q6 -19 6 -40q0 -46 -26.5 -80.5t-89.5 -69.5q3 -29 3 -44v-66q0 -114 -50.5 -167.5t-158.5 -53.5q-106 0 -156 54t-50 167v78q0 114 50.5 168t157.5 54q165 0 198 -136l6 4q29 22 39.5 39.5t10.5 44.5q0 23 -12 48zM407 217v68q0 82 -31.5 121.5t-97.5 39.5
q-65 0 -96.5 -39.5t-31.5 -121.5v-68q0 -82 31.5 -121t96.5 -39q66 0 97.5 39t31.5 121zM189 596h-52q12 49 25 72q25 43 72 43q37 0 73 -32t53 -32q27 0 41 56h52q-13 -53 -24 -73q-22 -42 -71 -42q-38 0 -75 34q-34 30 -51 30q-30 0 -43 -56z" />
    <glyph glyph-name="uni1EE2" unicode="&#x1ee2;" horiz-adv-x="701" 
d="M629 724h71q7 -21 7 -37q0 -67 -59 -114q-23 -18 -66 -43q7 -42 7 -85v-176q0 -76 -13.5 -122.5t-45.5 -81.5q-67 -74 -192 -74q-136 0 -202 86q-49 63 -49 192v176q0 139 59 205q67 74 192 74q178 0 233 -143q41 26 55.5 46t14.5 50q0 23 -12 47zM506 277v160
q0 110 -39 160q-42 57 -129 57q-94 0 -136 -67q-32 -51 -32 -150v-160q0 -109 39 -159q42 -57 129 -57q93 0 136 66q32 51 32 150zM285 -193v104h78v-104h-78z" />
    <glyph glyph-name="uni1EE3" unicode="&#x1ee3;" horiz-adv-x="582" 
d="M521 512h72q6 -19 6 -40q0 -46 -26.5 -80.5t-89.5 -69.5q3 -29 3 -44v-66q0 -114 -50.5 -167.5t-158.5 -53.5q-106 0 -156 54t-50 167v78q0 114 50.5 168t157.5 54q165 0 198 -136l6 4q29 22 39.5 39.5t10.5 44.5q0 23 -12 48zM407 217v68q0 82 -31.5 121.5t-97.5 39.5
q-65 0 -96.5 -39.5t-31.5 -121.5v-68q0 -82 31.5 -121t96.5 -39q66 0 97.5 39t31.5 121zM236 -193v104h78v-104h-78z" />
    <glyph glyph-name="uni1EE4" unicode="&#x1ee4;" horiz-adv-x="690" 
d="M101 714h83v-452q0 -96 26 -138q42 -63 135 -63q102 0 141 73q20 40 20 128v452h83v-452q0 -76 -9 -116.5t-34 -71.5q-63 -83 -201 -83q-149 0 -210 95q-19 30 -26.5 68t-7.5 108v452zM305 -193v104h78v-104h-78z" />
    <glyph glyph-name="uni1EE5" unicode="&#x1ee5;" horiz-adv-x="555" 
d="M84 502h79v-280q0 -66 13 -101q24 -62 96 -62q62 0 89 43.5t27 144.5v255h79v-502h-61l-6 56q-42 -65 -138 -65q-130 0 -163 97q-15 42 -15 126v288zM238 -193v104h78v-104h-78z" />
    <glyph glyph-name="uni1EE6" unicode="&#x1ee6;" horiz-adv-x="690" 
d="M101 714h83v-452q0 -96 26 -138q42 -63 135 -63q102 0 141 73q20 40 20 128v452h83v-452q0 -76 -9 -116.5t-34 -71.5q-63 -83 -201 -83q-149 0 -210 95q-19 30 -26.5 68t-7.5 108v452zM380 779h-59q1 32 4.5 43t23.5 41q10 14 10 26q0 24 -31 24q-18 0 -48 -13l-15 46
q39 15 75 15q41 0 63.5 -18t22.5 -50q0 -16 -5.5 -27t-22.5 -34q-13 -16 -15.5 -24t-2.5 -29z" />
    <glyph glyph-name="uni1EE7" unicode="&#x1ee7;" horiz-adv-x="555" 
d="M84 502h79v-280q0 -66 13 -101q24 -62 96 -62q62 0 89 43.5t27 144.5v255h79v-502h-61l-6 56q-42 -65 -138 -65q-130 0 -163 97q-15 42 -15 126v288zM312 575h-58q1 34 4.5 45t22.5 39q10 14 10 26q0 24 -31 24q-20 0 -47 -13l-15 47q39 14 74 14q41 0 63.5 -18t22.5 -50
q0 -16 -5.5 -27t-22.5 -34q-12 -16 -14.5 -24t-3.5 -29z" />
    <glyph glyph-name="uni1EE8" unicode="&#x1ee8;" horiz-adv-x="728" 
d="M101 714h83v-452q0 -96 26 -138q42 -63 135 -63q102 0 141 73q20 40 20 128v452h83v-149q52 25 73.5 49.5t21.5 60.5q0 25 -12 49h72q6 -19 6 -40q0 -53 -34.5 -90t-126.5 -84v-248q0 -76 -9 -116.5t-34 -71.5q-63 -83 -201 -83q-149 0 -210 95q-19 30 -26.5 68t-7.5 108
v452zM326 789l75 142h97l-111 -142h-61z" />
    <glyph glyph-name="uni1EE9" unicode="&#x1ee9;" horiz-adv-x="598" 
d="M84 502h79v-280q0 -66 13 -101q24 -62 96 -62q62 0 89 43.5t27 144.5v255h79v-149q54 26 74.5 50t20.5 60q0 24 -12 49h72q6 -20 6 -40q0 -72 -75 -125q-23 -17 -86 -49v-298h-61l-6 56q-42 -65 -138 -65q-130 0 -163 97q-15 42 -15 126v288zM250 582l75 142h97
l-112 -142h-60z" />
    <glyph glyph-name="uni1EEA" unicode="&#x1eea;" horiz-adv-x="728" 
d="M101 714h83v-452q0 -96 26 -138q42 -63 135 -63q102 0 141 73q20 40 20 128v452h83v-149q52 25 73.5 49.5t21.5 60.5q0 25 -12 49h72q6 -19 6 -40q0 -53 -34.5 -90t-126.5 -84v-248q0 -76 -9 -116.5t-34 -71.5q-63 -83 -201 -83q-149 0 -210 95q-19 30 -26.5 68t-7.5 108
v452zM395 789h-60l-112 142h97z" />
    <glyph glyph-name="uni1EEB" unicode="&#x1eeb;" horiz-adv-x="598" 
d="M84 502h79v-280q0 -66 13 -101q24 -62 96 -62q62 0 89 43.5t27 144.5v255h79v-149q54 26 74.5 50t20.5 60q0 24 -12 49h72q6 -20 6 -40q0 -72 -75 -125q-23 -17 -86 -49v-298h-61l-6 56q-42 -65 -138 -65q-130 0 -163 97q-15 42 -15 126v288zM325 582h-60l-111 142h96z
" />
    <glyph glyph-name="uni1EEC" unicode="&#x1eec;" horiz-adv-x="728" 
d="M101 714h83v-452q0 -96 26 -138q42 -63 135 -63q102 0 141 73q20 40 20 128v452h83v-149q52 25 73.5 49.5t21.5 60.5q0 25 -12 49h72q6 -19 6 -40q0 -53 -34.5 -90t-126.5 -84v-248q0 -76 -9 -116.5t-34 -71.5q-63 -83 -201 -83q-149 0 -210 95q-19 30 -26.5 68t-7.5 108
v452zM390 779h-59q1 32 5 44t23 40q10 14 10 26q0 24 -31 24q-18 0 -48 -13l-14 46q37 15 74 15q41 0 63.5 -18t22.5 -50q0 -26 -28 -61q-12 -16 -15 -24t-3 -29z" />
    <glyph glyph-name="uni1EED" unicode="&#x1eed;" horiz-adv-x="598" 
d="M84 502h79v-280q0 -66 13 -101q24 -62 96 -62q62 0 89 43.5t27 144.5v255h79v-149q54 26 74.5 50t20.5 60q0 24 -12 49h72q6 -20 6 -40q0 -72 -75 -125q-23 -17 -86 -49v-298h-61l-6 56q-42 -65 -138 -65q-130 0 -163 97q-15 42 -15 126v288zM300 575h-58q1 30 3.5 40.5
t14.5 28.5q19 29 19 41q0 24 -31 24q-20 0 -47 -13l-15 47q39 14 74 14q41 0 63.5 -18t22.5 -50q0 -16 -5.5 -27t-22.5 -34q-12 -15 -14.5 -23t-3.5 -30z" />
    <glyph glyph-name="uni1EEE" unicode="&#x1eee;" horiz-adv-x="728" 
d="M101 714h83v-452q0 -96 26 -138q42 -63 135 -63q102 0 141 73q20 40 20 128v452h83v-149q52 25 73.5 49.5t21.5 60.5q0 25 -12 49h72q6 -19 6 -40q0 -53 -34.5 -90t-126.5 -84v-248q0 -76 -9 -116.5t-34 -71.5q-63 -83 -201 -83q-149 0 -210 95q-19 30 -26.5 68t-7.5 108
v452zM236 804h-51q13 51 24 71q25 43 72 43q38 0 73 -32q37 -32 53 -32q28 0 42 56h51q-12 -51 -24 -73q-23 -41 -70 -41q-38 0 -76 34q-34 30 -51 30q-29 0 -43 -56z" />
    <glyph glyph-name="uni1EEF" unicode="&#x1eef;" horiz-adv-x="598" 
d="M84 502h79v-280q0 -66 13 -101q24 -62 96 -62q62 0 89 43.5t27 144.5v255h79v-149q54 26 74.5 50t20.5 60q0 24 -12 49h72q6 -20 6 -40q0 -72 -75 -125q-23 -17 -86 -49v-298h-61l-6 56q-42 -65 -138 -65q-130 0 -163 97q-15 42 -15 126v288zM170 596h-52q12 49 25 72
q25 43 72 43q37 0 73 -32t53 -32q28 0 41 56h52q-13 -53 -24 -73q-22 -42 -71 -42q-38 0 -75 34q-34 30 -51 30q-30 0 -43 -56z" />
    <glyph glyph-name="uni1EF0" unicode="&#x1ef0;" horiz-adv-x="728" 
d="M101 714h83v-452q0 -96 26 -138q42 -63 135 -63q102 0 141 73q20 40 20 128v452h83v-149q52 25 73.5 49.5t21.5 60.5q0 25 -12 49h72q6 -19 6 -40q0 -53 -34.5 -90t-126.5 -84v-248q0 -76 -9 -116.5t-34 -71.5q-63 -83 -201 -83q-149 0 -210 95q-19 30 -26.5 68t-7.5 108
v452zM307 -193v104h78v-104h-78z" />
    <glyph glyph-name="uni1EF1" unicode="&#x1ef1;" horiz-adv-x="598" 
d="M84 502h79v-280q0 -66 13 -101q24 -62 96 -62q62 0 89 43.5t27 144.5v255h79v-149q54 26 74.5 50t20.5 60q0 24 -12 49h72q6 -20 6 -40q0 -72 -75 -125q-23 -17 -86 -49v-298h-61l-6 56q-42 -65 -138 -65q-130 0 -163 97q-15 42 -15 126v288zM251 -193v104h78v-104h-78z
" />
    <glyph glyph-name="Ygrave" unicode="&#x1ef2;" horiz-adv-x="532" 
d="M225 0v258l-225 456h88l179 -371l178 371h88l-225 -456v-258h-83zM318 789h-61l-111 142h97z" />
    <glyph glyph-name="ygrave" unicode="&#x1ef3;" horiz-adv-x="488" 
d="M207 1l-185 501h80l147 -412l131 412h80l-197 -583q-35 -96 -70.5 -122t-132.5 -27v67q56 0 78 16t44 74zM296 582h-61l-111 142h97z" />
    <glyph glyph-name="uni1EF4" unicode="&#x1ef4;" horiz-adv-x="532" 
d="M225 0v258l-225 456h88l179 -371l178 371h88l-225 -456v-258h-83zM226 -193v104h78v-104h-78z" />
    <glyph glyph-name="uni1EF5" unicode="&#x1ef5;" horiz-adv-x="488" 
d="M207 1l-185 501h80l147 -412l131 412h80l-197 -583q-35 -96 -70.5 -122t-132.5 -27v67q56 0 78 16t44 74zM311 -193v104h78v-104h-78z" />
    <glyph glyph-name="uni1EF6" unicode="&#x1ef6;" horiz-adv-x="532" 
d="M225 0v258l-225 456h88l179 -371l178 371h88l-225 -456v-258h-83zM301 779h-59q1 30 3.5 41t14.5 28q19 29 19 41q0 24 -31 24q-18 0 -47 -13l-15 46q39 15 74 15q41 0 63.5 -18t22.5 -50q0 -26 -28 -61q-12 -16 -14.5 -24t-2.5 -29z" />
    <glyph glyph-name="uni1EF7" unicode="&#x1ef7;" horiz-adv-x="488" 
d="M207 1l-185 501h80l147 -412l131 412h80l-197 -583q-35 -96 -70.5 -122t-132.5 -27v67q56 0 78 16t44 74zM279 575h-59q1 32 4.5 43.5t23.5 40.5q10 14 10 26q0 24 -31 24q-21 0 -48 -13l-15 47q41 14 75 14q41 0 63.5 -18t22.5 -50q0 -25 -29 -61q-12 -16 -14.5 -24
t-2.5 -29z" />
    <glyph glyph-name="uni1EF8" unicode="&#x1ef8;" horiz-adv-x="532" 
d="M225 0v258l-225 456h88l179 -371l178 371h88l-225 -456v-258h-83zM159 804h-51q13 52 25 71q25 43 72 43q37 0 73 -32t53 -32q27 0 41 56h52q-13 -51 -24 -73q-23 -41 -71 -41q-38 0 -75 34q-34 30 -52 30q-29 0 -43 -56z" />
    <glyph glyph-name="uni1EF9" unicode="&#x1ef9;" horiz-adv-x="488" 
d="M207 1l-185 501h80l147 -412l131 412h80l-197 -583q-35 -96 -70.5 -122t-132.5 -27v67q56 0 78 16t44 74zM137 596h-51q13 52 25 72q25 43 72 43q37 0 73 -32t53 -32q27 0 41 56h52q-13 -53 -24 -73q-22 -42 -71 -42q-38 0 -75 34q-34 30 -51 30q-30 0 -44 -56z" />
    <glyph glyph-name="uni2002" unicode="&#x2002;" horiz-adv-x="500" 
 />
    <glyph glyph-name="uni2003" unicode="&#x2003;" horiz-adv-x="1000" 
 />
    <glyph glyph-name="uni2004" unicode="&#x2004;" horiz-adv-x="333" 
 />
    <glyph glyph-name="uni2005" unicode="&#x2005;" horiz-adv-x="250" 
 />
    <glyph glyph-name="uni2006" unicode="&#x2006;" horiz-adv-x="167" 
 />
    <glyph glyph-name="uni2007" unicode="&#x2007;" 
 />
    <glyph glyph-name="uni2008" unicode="&#x2008;" horiz-adv-x="0" 
 />
    <glyph glyph-name="uni2009" unicode="&#x2009;" horiz-adv-x="200" 
 />
    <glyph glyph-name="uni200A" unicode="&#x200a;" horiz-adv-x="125" 
 />
    <glyph glyph-name="uni2011" unicode="&#x2011;" horiz-adv-x="476" 
d="M97 328v70h281v-70h-281z" />
    <glyph glyph-name="figuredash" unicode="&#x2012;" 
d="M76 328v70h387v-70h-387z" />
    <glyph glyph-name="endash" unicode="&#x2013;" 
d="M76 328v70h387v-70h-387z" />
    <glyph glyph-name="emdash" unicode="&#x2014;" 
d="M3 328v70h534v-70h-534z" />
    <glyph glyph-name="afii00208" unicode="&#x2015;" 
d="M3 328v70h534v-70h-534z" />
    <glyph glyph-name="underscoredbl" unicode="&#x2017;" horiz-adv-x="470" 
d="M-25 -214v48h520v-48h-520zM-25 -128v48h520v-48h-520z" />
    <glyph glyph-name="quoteleft" unicode="&#x2018;" horiz-adv-x="187" 
d="M154 714l-36 -238h-85l55 238h66z" />
    <glyph glyph-name="quoteright" unicode="&#x2019;" horiz-adv-x="187" 
d="M33 476l36 238h85l-55 -238h-66z" />
    <glyph glyph-name="quotesinglbase" unicode="&#x201a;" horiz-adv-x="187" 
d="M33 -139l36 238h85l-55 -238h-66z" />
    <glyph glyph-name="quotedblleft" unicode="&#x201c;" horiz-adv-x="368" 
d="M335 714l-36 -238h-84l55 238h65zM154 714l-36 -238h-85l55 238h66z" />
    <glyph glyph-name="quotedblright" unicode="&#x201d;" horiz-adv-x="368" 
d="M33 476l36 238h85l-55 -238h-66zM215 476l36 238h84l-54 -238h-66z" />
    <glyph glyph-name="quotedblbase" unicode="&#x201e;" horiz-adv-x="368" 
d="M33 -139l36 238h85l-55 -238h-66zM215 -139l36 238h84l-54 -238h-66z" />
    <glyph glyph-name="dagger" unicode="&#x2020;" 
d="M230 422h-166v70h166v222h81v-222h165v-70h-165v-579h-81v579z" />
    <glyph glyph-name="daggerdbl" unicode="&#x2021;" 
d="M230 422h-166v70h166v222h81v-222h165v-70h-165v-156h153v-70h-153v-353h-81v353h-153v70h153v156z" />
    <glyph glyph-name="bullet" unicode="&#x2022;" 
d="M270 529q73 0 122 -48t49 -119q0 -70 -49 -118t-121 -48q-74 0 -123 48t-49 120q0 70 49.5 117.5t121.5 47.5z" />
    <glyph glyph-name="ellipsis" unicode="&#x2026;" horiz-adv-x="846" 
d="M100 0v100h83v-100h-83zM382 0v100h83v-100h-83zM664 0v100h83v-100h-83z" />
    <glyph glyph-name="perthousand" unicode="&#x2030;" horiz-adv-x="1247" 
d="M44 476v89q0 82 36 120t113 38q78 0 114 -38t36 -120v-89q0 -82 -36 -119.5t-114 -37.5q-77 0 -113 37.5t-36 119.5zM275 484v73q0 113 -81 113q-82 0 -82 -113v-73q0 -112 82 -112q81 0 81 112zM539 149v89q0 82 36 119.5t114 37.5t114 -37.5t36 -119.5v-89
q0 -82 -36 -120t-114 -38t-114 38t-36 120zM771 157v73q0 112 -82 112t-82 -112v-73q0 -113 82 -113t82 113zM903 149v89q0 82 36 119.5t113 37.5q78 0 114 -37.5t36 -119.5v-89q0 -82 -36 -120t-114 -38q-77 0 -113 38t-36 120zM1134 157v73q0 112 -81 112q-82 0 -82 -112
v-73q0 -113 82 -113q81 0 81 113zM292 0l224 714h75l-224 -714h-75z" />
    <glyph glyph-name="guilsinglleft" unicode="&#x2039;" horiz-adv-x="249" 
d="M125 295l88 -124l-47 -35l-130 159l130 159l47 -35z" />
    <glyph glyph-name="guilsinglright" unicode="&#x203a;" horiz-adv-x="249" 
d="M124 295l-89 124l48 35l129 -159l-129 -159l-48 35z" />
    <glyph glyph-name="uni203E" unicode="&#x203e;" horiz-adv-x="470" 
d="M-25 811v59h520v-59h-520z" />
    <glyph glyph-name="fraction" unicode="&#x2044;" horiz-adv-x="161" 
d="M-62 0l224 714h76l-225 -714h-75z" />
    <glyph glyph-name="zerosuperior" unicode="&#x2070;" horiz-adv-x="352" 
d="M42 539v122q0 82 32 120t102 38t102 -38t32 -120v-122q0 -82 -32 -120t-102 -38t-102 38t-32 120zM246 544v113q0 112 -70 112t-70 -112v-113q0 -113 70 -113t70 113z" />
    <glyph glyph-name="foursuperior" unicode="&#x2074;" horiz-adv-x="349" 
d="M216 386v81h-187v39l147 308h70l-141 -295h111v92h59v-92h45v-53h-45v-80h-59z" />
    <glyph glyph-name="fivesuperior" unicode="&#x2075;" horiz-adv-x="345" 
d="M50 587l22 227h218v-53h-162l-13 -119q30 13 59 13q129 0 129 -136q0 -71 -34.5 -104.5t-107.5 -33.5q-59 0 -92.5 25.5t-37.5 71.5l62 10q12 -54 71 -54q34 0 53.5 22t19.5 60q0 89 -70 89q-40 0 -69 -27z" />
    <glyph glyph-name="sixsuperior" unicode="&#x2076;" horiz-adv-x="349" 
d="M257 814l-99 -164q20 5 38 5q57 0 89 -40q24 -28 24 -96q0 -72 -31.5 -105t-101.5 -33t-101.5 32.5t-31.5 105.5q0 36 7 59.5t28 59.5l102 176h77zM177 606q-70 0 -70 -87q0 -88 69 -88t69 88q0 87 -68 87z" />
    <glyph glyph-name="sevensuperior" unicode="&#x2077;" horiz-adv-x="256" 
d="M38 386l125 375h-161v53h233v-39l-125 -389h-72z" />
    <glyph glyph-name="eightsuperior" unicode="&#x2078;" horiz-adv-x="349" 
d="M87 613q-39 29 -39 90q0 60 30.5 88.5t95.5 28.5t96 -28.5t31 -88.5q0 -32 -9 -52t-31 -38q52 -28 52 -104q0 -68 -33 -98.5t-106 -30.5q-72 0 -105.5 30.5t-33.5 97.5q0 78 52 105zM175 772q-67 0 -67 -70q0 -71 67 -71q66 0 66 71q0 70 -66 70zM175 586q-76 0 -76 -78
t75 -78t75 78t-74 78z" />
    <glyph glyph-name="ninesuperior" unicode="&#x2079;" horiz-adv-x="349" 
d="M93 386l102 180q-27 -4 -42 -4q-112 0 -112 127q0 68 31.5 99t101.5 31q69 0 101 -31t32 -97q0 -35 -5 -53t-22 -50l-110 -202h-77zM175 769q-70 0 -70 -79q0 -80 69 -80t69 80q0 79 -68 79z" />
    <glyph glyph-name="zeroinferior" unicode="&#x2080;" horiz-adv-x="352" 
d="M42 53v122q0 82 32 120t102 38t102 -38t32 -120v-122q0 -82 -32 -120t-102 -38t-102 38t-32 120zM246 58v112q0 113 -70 113t-70 -113v-112q0 -113 70 -113t70 113z" />
    <glyph glyph-name="oneinferior" unicode="&#x2081;" horiz-adv-x="236" 
d="M97 -100v363l-77 -30l-18 49l115 46h46v-428h-66z" />
    <glyph glyph-name="twoinferior" unicode="&#x2082;" horiz-adv-x="342" 
d="M42 -100v42l126 150q64 75 64 125q0 30 -17 47t-47 17q-59 0 -73 -63l-61 7q10 58 42 83.5t94 25.5q128 0 128 -119q0 -40 -17 -74t-66 -91l-81 -97h163v-53h-255z" />
    <glyph glyph-name="threeinferior" unicode="&#x2083;" horiz-adv-x="342" 
d="M105 102v47h44q32 0 54.5 19.5t22.5 47.5q0 29 -18.5 46.5t-48.5 17.5q-55 0 -69 -50l-59 8q8 50 38.5 72.5t91.5 22.5q131 0 131 -115q0 -34 -12.5 -55t-41.5 -37q66 -31 66 -107q0 -124 -145 -124q-82 0 -118 39q-15 16 -23 57l62 12q13 -55 77 -55q37 0 59 19.5
t22 53.5q0 35 -24.5 58t-61.5 23h-47z" />
    <glyph glyph-name="fourinferior" unicode="&#x2084;" horiz-adv-x="349" 
d="M216 -100v80h-187v39l147 309h70l-141 -296h111v93h59v-93h45v-53h-45v-79h-59z" />
    <glyph glyph-name="fiveinferior" unicode="&#x2085;" horiz-adv-x="345" 
d="M50 101l22 227h218v-53h-162l-13 -119q30 13 59 13q129 0 129 -136q0 -71 -34.5 -104.5t-107.5 -33.5q-59 0 -92.5 25t-37.5 72l62 10q12 -54 71 -54q34 0 53.5 22t19.5 60q0 89 -70 89q-40 0 -69 -27z" />
    <glyph glyph-name="sixinferior" unicode="&#x2086;" horiz-adv-x="349" 
d="M257 328l-99 -164q21 5 38 5q57 0 89 -40q24 -28 24 -96q0 -72 -31.5 -105t-101.5 -33t-101.5 32.5t-31.5 105.5q0 36 7 59.5t28 59.5l102 176h77zM177 120q-70 0 -70 -87q0 -88 69 -88t69 88q0 87 -68 87z" />
    <glyph glyph-name="seveninferior" unicode="&#x2087;" horiz-adv-x="256" 
d="M39 -100l125 375h-161v53h233v-39l-125 -389h-72z" />
    <glyph glyph-name="eightinferior" unicode="&#x2088;" horiz-adv-x="349" 
d="M87 127q-39 29 -39 90q0 60 30.5 88.5t95.5 28.5t96 -28.5t31 -88.5q0 -32 -9 -52t-31 -38q52 -28 52 -104q0 -68 -33 -98.5t-106 -30.5q-72 0 -105.5 30.5t-33.5 97.5q0 78 52 105zM175 286q-67 0 -67 -70q0 -71 67 -71q66 0 66 71q0 70 -66 70zM175 100q-76 0 -76 -78
t75 -78t75 78t-74 78z" />
    <glyph glyph-name="nineinferior" unicode="&#x2089;" horiz-adv-x="349" 
d="M93 -100l102 180q-27 -4 -42 -4q-112 0 -112 127q0 68 31.5 99t101.5 31q69 0 101 -31t32 -97q0 -35 -5 -53.5t-22 -49.5l-110 -202h-77zM175 283q-70 0 -70 -79q0 -80 69 -80t69 79q0 80 -68 80z" />
    <glyph glyph-name="franc" unicode="&#x20a3;" horiz-adv-x="744" 
d="M90 0v714h334v-70h-253v-253h203v-70h-203v-321h-81zM448 0v444h61l9 -52q23 33 51.5 47t72.5 14q46 0 91 -23l-32 -66q-35 22 -67 22q-57 0 -82.5 -47.5t-25.5 -151.5v-187h-78z" />
    <glyph glyph-name="lira" unicode="&#x20a4;" 
d="M61 0v60q48 17 80.5 66.5t32.5 105.5q0 10 -1 19h-120v58h107q-8 21 -24 52h-83v58h55q-28 59 -28 109q0 91 53 143t145 52q179 0 217 -180l-70 -18q-15 54 -33 78q-38 52 -109 52q-55 0 -87.5 -33t-32.5 -89q0 -48 37 -114h191v-58h-163q14 -34 18 -52h145v-58h-140
q1 -24 1 -28q0 -83 -76 -153h330v-70h-445z" />
    <glyph glyph-name="peseta" unicode="&#x20a7;" 
d="M98 465h-89v58h89v191h162q214 6 228 -191h70v-58h-70q-12 -202 -228 -196h-81v-269h-81v465zM178 465v-129h85q133 -3 145 129h-230zM178 523h229q-11 129 -144 124h-85v-124z" />
    <glyph glyph-name="uni20AB" unicode="&#x20ab;" 
d="M42 -175v59h447v-59h-447zM363 572h-151v56h151v86h79v-86h82v-56h-82v-572h-62l-5 43q-2 -1 -3 -3l-2 -1q-9 -9 -14 -13q-37 -35 -129 -35q-98 0 -144 54t-46 168v76q0 115 45.5 169t142.5 54q49 0 77.5 -10t60.5 -38v108zM116 284v-66q0 -161 122 -161q125 0 125 153
v82q0 154 -125 154q-122 0 -122 -162z" />
    <glyph glyph-name="Euro" unicode="&#x20ac;" 
d="M84 300v57h-93l23 58h70v16q0 148 49 214q58 77 172 77q95 0 148.5 -47t57.5 -135l-77 -6q-6 56 -39.5 87t-88.5 31q-73 0 -106 -52.5t-33 -168.5v-16h276l-23 -58h-253v-57h228l-23 -58h-204q5 -95 39.5 -139t106.5 -44q57 0 91.5 26.5t42.5 76.5l72 -9
q-5 -79 -59.5 -121.5t-149.5 -42.5q-148 0 -200 118q-23 51 -26 135h-91l23 58h67z" />
    <glyph glyph-name="uni20B4" unicode="&#x20b4;" 
d="M20 327l15 55l105 -28q10 6 70 26q27 9 39 15l-197 52l15 56l268 -72q59 39 59 106q0 57 -33 89t-92 32q-81 0 -114 -59l-62 35q51 89 178 89q93 0 146 -51t53 -140q0 -41 -10 -68.5t-35 -56.5l76 -20l-15 -56l-109 29q-38 -19 -109 -40l201 -54l-15 -56l-272 73
q-48 -34 -48 -100q0 -61 38 -94t106 -33q107 0 150 69l63 -36q-60 -98 -214 -98q-106 0 -162.5 51t-56.5 147q0 38 7 60t32 57z" />
    <glyph glyph-name="uni2101" unicode="&#x2101;" horiz-adv-x="877" 
d="M395 294l131 420h69l-225 -714h-68l90 286h-65l-34 88h-195l-33 -88h-71l174 428h55zM276 421l-80 212l-81 -212h161zM527 64l54 32q31 -48 108 -48q43 0 68.5 18.5t25.5 49.5q0 32 -26 48q-12 8 -22 11.5t-59 14.5q-70 16 -100 44t-30 78q0 58 37.5 89.5t106.5 31.5
q97 0 139 -60l-53 -32q-30 40 -88 40q-36 0 -57 -17t-21 -46t23 -46t77 -29q68 -16 94 -32q43 -28 43 -93q0 -60 -40.5 -91.5t-118.5 -31.5q-115 0 -161 69z" />
    <glyph glyph-name="afii61248" unicode="&#x2105;" horiz-adv-x="916" 
d="M304 408l49 -29q-46 -67 -146 -67q-171 0 -171 191v15q0 202 170 202q96 0 138 -69l-50 -28q-31 43 -85 43q-55 0 -81.5 -36t-26.5 -112v-16q0 -136 111 -136q62 0 92 42zM528 181v34q0 95 42.5 141t131.5 46q91 0 134 -45.5t43 -141.5v-34q0 -96 -43 -141.5t-134 -45.5
q-89 0 -131.5 46t-42.5 141zM814 183v29q0 136 -111 136q-110 0 -110 -136v-29q0 -135 110 -135q111 0 111 135zM301 0l224 714h68l-224 -714h-68z" />
    <glyph glyph-name="afii61289" unicode="&#x2113;" 
d="M174 218q-58 -64 -71 -64q-5 0 -10 8t-5 16q0 13 21 33q34 31 72 76q44 254 85.5 349t107.5 95q35 0 56.5 -26t21.5 -67q0 -100 -79 -217q-40 -58 -116 -136q-29 -160 -29 -208q0 -37 26 -37q16 0 26.5 11t29.5 47q12 24 26 24q15 0 15 -18q0 -36 -38 -81
q-35 -39 -78 -39q-74 0 -74 95q0 43 13 139zM266 354q60 69 91 125q47 88 47 153q0 20 -7.5 32t-20.5 12q-32 0 -55.5 -68.5t-54.5 -253.5z" />
    <glyph glyph-name="afii61352" unicode="&#x2116;" horiz-adv-x="1152" 
d="M104 0v714h80l352 -572v572h81v-714h-80l-352 572v-572h-81zM731 351v33q0 100 44 148.5t136 48.5q91 0 135 -48.5t44 -148.5v-33q0 -100 -44 -148t-135 -48q-92 0 -136 48t-44 148zM1012 354v27q0 69 -24.5 101.5t-76.5 32.5q-53 0 -77.5 -32.5t-24.5 -101.5v-27
q0 -68 25 -100.5t77 -32.5t76.5 32.5t24.5 100.5zM731 0v66h359v-66h-359z" />
    <glyph glyph-name="trademark" unicode="&#x2122;" horiz-adv-x="873" 
d="M144 286v375h-131v53h327v-53h-130v-375h-66zM400 286v428h63l137 -262l137 262h63v-428h-64v304l-114 -218h-44l-114 218v-304h-64z" />
    <glyph glyph-name="uni2126" unicode="&#x2126;" horiz-adv-x="676" 
d="M75 0v61h149v31q-68 23 -104.5 91t-32.5 163v99q0 75 13.5 122t45.5 82q67 74 192 74q136 0 202 -86q49 -63 49 -192v-99q4 -95 -32.5 -163t-104.5 -91v-31h149v-61h-214v138q124 27 119 212v87q0 107 -39 159q-42 57 -129 57q-93 0 -136 -66q-32 -51 -32 -150v-87
q-5 -185 119 -212v-138h-214z" />
    <glyph glyph-name="estimated" unicode="&#x212e;" horiz-adv-x="600" 
d="M545 320h-393v-135q16 -52 35 -81q37 -54 118 -54q58 0 100.5 32t62.5 91h58q-23 -75 -49 -106q-63 -77 -171 -77q-118 0 -184.5 90t-66.5 249q0 160 67.5 254t182.5 94q75 0 131.5 -41.5t84.5 -117.5q24 -68 24 -198zM458 372v117q-10 35 -27 60q-26 37 -55.5 53
t-72.5 16q-56 0 -89.5 -28.5t-61.5 -99.5v-118h306z" />
    <glyph glyph-name="onethird" unicode="&#x2153;" horiz-adv-x="860" 
d="M147 286v363l-77 -30l-18 49l115 46h46v-428h-66zM224 0l224 714h75l-224 -714h-75zM579 202v47h44q33 0 55 19t22 48t-18.5 46.5t-48.5 17.5q-54 0 -68 -50l-60 8q8 50 39 72.5t92 22.5q130 0 130 -115q0 -34 -12 -55t-41 -37q65 -31 65 -107q0 -124 -145 -124
q-82 0 -118 39q-15 16 -23 57l63 12q13 -55 77 -55q37 0 58.5 19.5t21.5 53.5q0 35 -24 58t-61 23h-48z" />
    <glyph glyph-name="twothirds" unicode="&#x2154;" horiz-adv-x="860" 
d="M49 286v42l126 150q64 76 64 125q0 30 -17 47t-47 17q-59 0 -73 -63l-61 7q10 58 41.5 83.5t94.5 25.5q128 0 128 -119q0 -40 -17 -74t-66 -91l-81 -97h163v-53h-255zM623 202v47h44q32 0 54.5 19.5t22.5 47.5q0 29 -18.5 46.5t-48.5 17.5q-55 0 -69 -50l-59 8
q8 50 38.5 72.5t91.5 22.5q131 0 131 -115q0 -34 -12.5 -55t-41.5 -37q66 -32 66 -107q0 -124 -145 -124q-82 0 -118 39q-15 16 -23 57l62 12q14 -55 77 -55q37 0 59 19.5t22 53.5q0 35 -24.5 58t-61.5 23h-47zM281 0l224 714h75l-224 -714h-75z" />
    <glyph glyph-name="uni2155" unicode="&#x2155;" horiz-adv-x="860" 
d="M150 286v363l-77 -30l-18 49l115 46h46v-428h-66zM227 0l224 714h75l-224 -714h-75zM525 201l22 227h218v-53h-162l-13 -119q30 13 59 13q129 0 129 -136q0 -71 -34.5 -104.5t-107.5 -33.5q-119 0 -130 97l62 10q12 -54 71 -54q34 0 53.5 22t19.5 60q0 89 -70 89
q-39 0 -69 -27z" />
    <glyph glyph-name="uni2156" unicode="&#x2156;" horiz-adv-x="860" 
d="M51 286v42l126 150q64 76 64 125q0 30 -17 47t-47 17q-59 0 -73 -63l-61 7q10 58 41.5 83.5t94.5 25.5q128 0 128 -119q0 -40 -17 -74t-66 -91l-81 -97h163v-53h-255zM554 201l23 227h218v-53h-162l-13 -119q30 13 59 13q129 0 129 -136q0 -138 -142 -138q-119 0 -131 97
l63 10q12 -54 71 -54q34 0 53.5 22t19.5 60q0 89 -70 89q-40 0 -69 -27zM282 0l224 714h76l-224 -714h-76z" />
    <glyph glyph-name="uni2157" unicode="&#x2157;" horiz-adv-x="860" 
d="M118 487v47h44q32 0 54.5 20t22.5 48q0 29 -18.5 46.5t-48.5 17.5q-55 0 -69 -50l-59 7q8 50 38.5 73t91.5 23q131 0 131 -115q0 -35 -12.5 -56t-41.5 -37q66 -32 66 -107q0 -123 -145 -123q-82 0 -118 39q-15 16 -23 57l62 11q13 -54 77 -54q38 0 59.5 19.5t21.5 53.5
q0 35 -24 57.5t-62 22.5h-47zM550 201l23 227h218v-53h-162l-13 -119q30 13 59 13q129 0 129 -136q0 -138 -142 -138q-119 0 -131 97l63 10q11 -54 71 -54q34 0 53.5 22t19.5 60q0 89 -70 89q-40 0 -69 -27zM276 0l225 714h75l-224 -714h-76z" />
    <glyph glyph-name="uni2158" unicode="&#x2158;" horiz-adv-x="860" 
d="M221 286v81h-187v39l147 308h70l-141 -295h111v92h59v-92h45v-53h-45v-80h-59zM553 201l22 227h218v-53h-162l-13 -119q30 13 59 13q129 0 129 -136q0 -71 -34.5 -104.5t-107.5 -33.5q-118 0 -130 97l62 10q12 -54 71 -54q34 0 53.5 22t19.5 61q0 88 -70 88
q-40 0 -69 -27zM282 0l224 714h75l-224 -714h-75z" />
    <glyph glyph-name="uni2159" unicode="&#x2159;" horiz-adv-x="860" 
d="M157 286v363l-77 -30l-18 49l115 46h46v-428h-66zM243 0l224 714h75l-224 -714h-75zM722 428l-99 -164q21 5 37 5q57 0 90 -40q23 -29 23 -96q0 -72 -31.5 -105t-100.5 -33q-70 0 -101.5 32.5t-31.5 105.5q0 36 7 59.5t27 59.5l103 176h77zM641 220q-69 0 -69 -87
q0 -88 68 -88q69 0 69 88q0 87 -68 87z" />
    <glyph glyph-name="uni215A" unicode="&#x215a;" horiz-adv-x="860" 
d="M60 487l22 227h218v-53h-162l-13 -119q30 13 59 13q129 0 129 -136q0 -71 -34.5 -104.5t-107.5 -33.5q-59 0 -92.5 25.5t-37.5 71.5l62 10q12 -54 71 -54q34 0 53.5 22t19.5 60q0 88 -70 88q-40 0 -69 -26zM747 428l-98 -164q20 5 37 5q58 0 90 -40q23 -31 23 -96
q0 -72 -31.5 -105t-101.5 -33t-101.5 32.5t-31.5 105.5q0 36 6.5 59.5t28.5 59.5l102 176h77zM667 220q-70 0 -70 -87q0 -88 69 -88t69 88q0 87 -68 87zM285 0l225 714h75l-224 -714h-76z" />
    <glyph glyph-name="oneeighth" unicode="&#x215b;" horiz-adv-x="860" 
d="M154 286v363l-77 -30l-18 49l115 46h46v-428h-66zM231 0l224 714h75l-224 -714h-75zM558 227q-40 29 -40 90q0 60 31 88.5t96 28.5t95.5 -28.5t30.5 -88.5q0 -33 -8.5 -52.5t-30.5 -37.5q52 -28 52 -104q0 -68 -33 -98.5t-106 -30.5t-106 30.5t-33 98.5q0 77 52 104z
M645 386q-67 0 -67 -70q0 -71 67 -71q66 0 66 71q0 70 -66 70zM646 200q-76 0 -76 -78t75 -78t75 78t-74 78z" />
    <glyph glyph-name="threeeighths" unicode="&#x215c;" horiz-adv-x="860" 
d="M127 487v47h44q32 0 54.5 20t22.5 48q0 29 -18.5 46.5t-48.5 17.5q-55 0 -69 -50l-59 7q8 50 38.5 73t91.5 23q131 0 131 -115q0 -35 -12.5 -56t-41.5 -37q66 -32 66 -107q0 -123 -145 -123q-82 0 -118 39q-15 16 -23 57l62 11q13 -54 77 -54q38 0 59.5 19.5t21.5 53.5
q0 35 -24 57.5t-62 22.5h-47zM589 227q-39 29 -39 90q0 60 30.5 88.5t95.5 28.5t96 -28.5t31 -88.5q0 -32 -9 -52t-31 -38q53 -28 53 -104q0 -67 -33.5 -98t-106.5 -31t-106 30.5t-33 97.5q0 78 52 105zM677 386q-67 0 -67 -70q0 -71 66 -71q67 0 67 71q0 70 -66 70z
M677 200q-76 0 -76 -78t75 -78q76 0 76 78t-75 78zM281 0l224 714h75l-224 -714h-75z" />
    <glyph glyph-name="fiveeighths" unicode="&#x215d;" horiz-adv-x="860" 
d="M69 487l22 227h218v-53h-162l-13 -119q30 13 59 13q129 0 129 -136q0 -71 -34.5 -104.5t-107.5 -33.5q-59 0 -92.5 25.5t-37.5 71.5l62 10q12 -54 71 -54q34 0 53.5 22t19.5 60q0 88 -70 88q-40 0 -69 -26zM591 227q-39 31 -39 90q0 60 31 88.5t96 28.5t95.5 -28.5
t30.5 -88.5q0 -58 -39 -90q52 -28 52 -104q0 -67 -33.5 -98t-106.5 -31q-72 0 -105.5 30.5t-33.5 97.5q0 78 52 105zM679 386q-67 0 -67 -70q0 -71 67 -71q66 0 66 71q0 70 -66 70zM679 200q-76 0 -76 -78t75 -78q76 0 76 78t-75 78zM281 0l224 714h75l-224 -714h-75z" />
    <glyph glyph-name="seveneighths" unicode="&#x215e;" horiz-adv-x="860" 
d="M101 286l145 375h-181v53h253v-39l-145 -389h-72zM572 227q-40 30 -40 90t31 88.5t96 28.5t95.5 -28.5t30.5 -88.5q0 -58 -39 -90q52 -28 52 -104q0 -68 -33 -98.5t-106 -30.5t-106 30.5t-33 97.5q0 78 52 105zM659 386q-67 0 -67 -70q0 -71 67 -71q66 0 66 71
q0 70 -66 70zM660 200q-76 0 -76 -78t75 -78t75 78t-74 78zM253 0l224 714h75l-224 -714h-75z" />
    <glyph glyph-name="arrowleft" unicode="&#x2190;" horiz-adv-x="800" 
d="M734 328h-574l186 -185l-50 -50l-249 255v30l249 255l50 -50l-186 -185h574v-70z" />
    <glyph glyph-name="arrowup" unicode="&#x2191;" horiz-adv-x="800" 
d="M347 0v607l-185 -185l-49 50l254 250h31l254 -250l-49 -50l-185 185v-607h-71z" />
    <glyph glyph-name="arrowright" unicode="&#x2192;" horiz-adv-x="800" 
d="M66 328v70h574l-186 185l50 50l249 -255v-30l-249 -255l-50 50l186 185h-574z" />
    <glyph glyph-name="arrowdown" unicode="&#x2193;" horiz-adv-x="800" 
d="M347 107v607h71v-607l185 185l49 -50l-254 -250h-31l-254 250l49 50z" />
    <glyph glyph-name="arrowboth" unicode="&#x2194;" horiz-adv-x="800" 
d="M653 328h-506l170 -169l-49 -50l-234 239v30l234 239l49 -50l-170 -169h506l-169 169l49 50l234 -239v-30l-234 -239l-49 50z" />
    <glyph glyph-name="arrowupdn" unicode="&#x2195;" horiz-adv-x="800" 
d="M348 92v530l-170 -169l-49 50l239 233h30l239 -233l-50 -50l-169 169v-530l169 169l50 -50l-239 -233h-30l-239 233l49 50z" />
    <glyph glyph-name="uni2196" unicode="&#x2196;" horiz-adv-x="800" 
d="M624 95l-410 410v-262h-70v356l26 26h355v-70h-262l410 -411z" />
    <glyph glyph-name="uni2197" unicode="&#x2197;" horiz-adv-x="800" 
d="M175 95l-49 49l411 411h-263v70h356l26 -26v-356h-70v262z" />
    <glyph glyph-name="uni2198" unicode="&#x2198;" horiz-adv-x="800" 
d="M175 629l411 -410v262h70v-356l-26 -26h-356v70h263l-411 410z" />
    <glyph glyph-name="uni2199" unicode="&#x2199;" horiz-adv-x="800" 
d="M624 629l49 -50l-410 -410h262v-70h-355l-26 26v356h70v-262z" />
    <glyph glyph-name="partialdiff" unicode="&#x2202;" 
d="M362 473l-1 2l-8 15q-35 70 -39 76q-70 82 -174 100l10 53q145 -16 223 -120q101 -130 103 -317v-70q0 -113 -50.5 -167t-157.5 -54q-104 0 -154.5 54.5t-50.5 166.5v70q0 221 194 221q65 0 105 -30zM398 216v62q0 82 -31.5 121.5t-96.5 39.5q-129 0 -129 -161v-62
q0 -82 31.5 -121t97.5 -39q65 0 96.5 39t31.5 121z" />
    <glyph glyph-name="emptyset" unicode="&#x2205;" 
d="M354 580l92 166l46 -20l-93 -169q94 -71 94 -191q0 -102 -64 -167.5t-164 -65.5q-41 0 -86 15l-101 -185l-46 20l101 185q-102 69 -102 198q0 102 63 165q67 67 158 67q38 0 102 -18zM158 218l172 312q-50 15 -77 15q-67 0 -116 -49q-50 -48 -50 -129q0 -48 16 -81.5
t55 -67.5zM374 506l-170 -309q30 -11 62 -11q74 0 122.5 50.5t48.5 127.5q0 45 -14.5 77.5t-48.5 64.5z" />
    <glyph glyph-name="Delta" unicode="&#x2206;" 
d="M572 0h-601l266 714h70zM460 67l-188 530l-189 -530h377z" />
    <glyph glyph-name="product" unicode="&#x220f;" horiz-adv-x="583" 
d="M69 -206v920h444v-920h-81v848h-282v-848h-81z" />
    <glyph glyph-name="summation" unicode="&#x2211;" horiz-adv-x="561" 
d="M58 -206v51l210 437l-200 377v55h458v-70h-356l194 -362l-196 -418h369v-70h-479z" />
    <glyph glyph-name="minus" unicode="&#x2212;" 
d="M35 330v66h470v-66h-470z" />
    <glyph glyph-name="uni2215" unicode="&#x2215;" horiz-adv-x="161" 
d="M-62 0l224 714h76l-225 -714h-75z" />
    <glyph glyph-name="uni2218" unicode="&#x2218;" 
d="M270 532q74 0 124 -48.5t50 -120.5t-50 -121t-124 -49q-75 0 -125 49t-50 122q0 71 51 119.5t124 48.5zM270 488q-55 0 -91.5 -35.5t-36.5 -88.5q0 -55 36.5 -91t91.5 -36q54 0 90.5 36t36.5 90q0 53 -36.5 89t-90.5 36z" />
    <glyph glyph-name="uni2219" unicode="&#x2219;" horiz-adv-x="281" 
d="M100 314v99h83v-99h-83z" />
    <glyph glyph-name="radical" unicode="&#x221a;" 
d="M201 0l-105 298h-76v68h135l84 -259l203 763h256v-59h-192l-221 -811h-84z" />
    <glyph glyph-name="infinity" unicode="&#x221e;" horiz-adv-x="746" 
d="M373 415l7 9q21 30 31 40.5t28 22.5q43 28 100 28q70 0 111.5 -41.5t41.5 -110.5q0 -70 -41.5 -111t-112.5 -41q-72 0 -121 45q-10 9 -44 55q-4 -6 -7 -10q-30 -44 -58 -62q-44 -28 -100 -28q-70 0 -111.5 41t-41.5 111q0 69 41.5 110.5t111.5 41.5q71 0 122 -45
q7 -6 43 -55zM341 363l-6 10q-24 38 -56.5 60t-64.5 22q-42 0 -68 -25.5t-26 -66.5t26 -67t68 -26q64 0 120 82zM406 363l7 -11q55 -82 119 -82q43 0 69 26t26 67t-26 66.5t-68 25.5q-33 0 -65 -22t-56 -60z" />
    <glyph glyph-name="integral" unicode="&#x222b;" horiz-adv-x="434" 
d="M87 -93l14 64q24 -8 39 -8q44 0 57 33q8 21 8 88v503q0 100 18 141q29 63 111 63q32 0 68 -9l-14 -65q-24 8 -40 8q-42 0 -56 -33q-8 -21 -8 -85v-506q0 -100 -19 -142q-27 -62 -110 -62q-32 0 -68 10z" />
    <glyph glyph-name="similar" unicode="&#x223c;" 
d="M96 298l-52 12q21 68 51 96.5t79 28.5q29 0 51.5 -8.5t58.5 -33.5q56 -38 84 -38q49 0 77 71l51 -15q-21 -63 -51.5 -91t-79.5 -28q-27 0 -48.5 8.5t-56.5 32.5q-36 25 -51.5 32t-34.5 7q-51 0 -78 -74z" />
    <glyph glyph-name="uni2243" unicode="&#x2243;" 
d="M42 252v63h442v-63h-442zM89 383l-52 12q21 68 51 96.5t79 28.5q29 0 51 -8.5t59 -34.5q35 -24 51 -31.5t33 -7.5q49 0 77 72l51 -15q-21 -64 -51.5 -91.5t-79.5 -27.5q-27 0 -48.5 8.5t-56.5 33.5q-36 25 -51.5 32t-34.5 7q-50 0 -78 -74z" />
    <glyph glyph-name="approxequal" unicode="&#x2248;" 
d="M96 214l-52 12q21 68 51 96.5t79 28.5q29 0 51.5 -8.5t58.5 -33.5q56 -39 84 -39q49 0 77 71l51 -15q-21 -63 -51.5 -91t-79.5 -28q-27 0 -48.5 8.5t-56.5 33.5q-36 25 -51.5 32t-34.5 7q-50 0 -78 -74zM96 383l-52 12q21 68 51 96.5t79 28.5q29 0 51 -8.5t59 -34.5
q35 -24 51 -31.5t33 -7.5q49 0 77 72l51 -15q-21 -64 -51.5 -91.5t-79.5 -27.5q-27 0 -48.5 8.5t-56.5 33.5q-36 25 -51.5 32t-34.5 7q-50 0 -78 -74z" />
    <glyph glyph-name="notequal" unicode="&#x2260;" 
d="M49 252v63h163l45 97h-208v63h237l54 118l60 -27l-42 -91h134v-63h-163l-45 -97h208v-63h-237l-54 -118l-60 27l42 91h-134z" />
    <glyph glyph-name="lessequal" unicode="&#x2264;" 
d="M142 377l316 -150v-76l-409 200v51l409 201v-77zM49 0v66h409v-66h-409z" />
    <glyph glyph-name="greaterequal" unicode="&#x2265;" 
d="M398 377l-316 149v77l409 -201v-51l-409 -200v76zM82 0v66h409v-66h-409z" />
    <glyph glyph-name="dotmath" unicode="&#x22c5;" horiz-adv-x="281" 
d="M100 314v99h83v-99h-83z" />
    <glyph glyph-name="filledrect" unicode="&#x25ac;" 
d="M113 205v315h313v-315h-313z" />
    <glyph glyph-name="uni25B4" unicode="&#x25b4;" 
d="M80 200l190 379l189 -379h-379z" />
    <glyph glyph-name="uni25B8" unicode="&#x25b8;" 
d="M120 173v379l378 -190z" />
    <glyph glyph-name="uni25BE" unicode="&#x25be;" 
d="M80 525h379l-189 -379z" />
    <glyph glyph-name="uni25C2" unicode="&#x25c2;" 
d="M420 173l-378 189l378 190v-379z" />
    <glyph glyph-name="lozenge" unicode="&#x25ca;" 
d="M7 348l263 377l262 -377l-262 -376zM96 348l174 -253l173 253l-173 254z" />
    <glyph glyph-name="openbullet" unicode="&#x25e6;" 
d="M270 532q74 0 124 -48.5t50 -120.5t-50 -121t-124 -49q-75 0 -125 49t-50 122q0 71 51 119.5t124 48.5zM270 488q-55 0 -91.5 -35.5t-36.5 -88.5q0 -55 36.5 -91t91.5 -36q54 0 90.5 36t36.5 90q0 53 -36.5 89t-90.5 36z" />
    <glyph glyph-name="commaaccent" unicode="&#xf6c3;" horiz-adv-x="500" 
d="M185 -222l52 153h83l-79 -153h-56z" />
    <glyph glyph-name="Acute" unicode="&#xf6c9;" horiz-adv-x="500" 
d="M200 789l75 142h97l-112 -142h-60z" />
    <glyph glyph-name="Caron" unicode="&#xf6ca;" horiz-adv-x="500" 
d="M251 845l68 81h84l-127 -134h-51l-127 134h84z" />
    <glyph glyph-name="Dieresis" unicode="&#xf6cb;" horiz-adv-x="500" 
d="M116 797v104h72v-104h-72zM311 797v104h72v-104h-72z" />
    <glyph glyph-name="Grave" unicode="&#xf6ce;" horiz-adv-x="500" 
d="M303 789h-61l-111 142h97z" />
    <glyph glyph-name="Hungarumlaut" unicode="&#xf6cf;" horiz-adv-x="500" 
d="M147 789l60 142h90l-93 -142h-57zM282 789l60 142h89l-92 -142h-57z" />
    <glyph glyph-name="Macron" unicode="&#xf6d0;" horiz-adv-x="500" 
d="M122 827v58h257v-58h-257z" />
    <glyph glyph-name="zerooldstyle" unicode="&#xf730;" horiz-adv-x="513" 
d="M65 210v114q0 114 44 164q48 56 146 56q107 0 156 -66q37 -48 37 -154v-114q0 -113 -45 -164q-50 -55 -148 -55q-107 0 -154 66q-36 48 -36 153zM366 212v111q0 83 -26 119t-85 36q-58 0 -83 -36t-25 -119v-111q0 -83 25 -119t83 -36q59 0 85 36t26 119z" />
    <glyph glyph-name="oneoldstyle" unicode="&#xf731;" horiz-adv-x="340" 
d="M143 0v446l-123 -54l-26 66l175 76h57v-534h-83z" />
    <glyph glyph-name="twooldstyle" unicode="&#xf732;" horiz-adv-x="445" 
d="M17 0v53l173 165q60 58 91 104q24 37 24 69q0 42 -26 64.5t-74 22.5q-91 0 -112 -86l-75 17q31 135 189 135q86 0 132 -38.5t46 -111.5q0 -57 -38 -109q-23 -32 -98 -103l-121 -116h271v-66h-382z" />
    <glyph glyph-name="threeoldstyle" unicode="&#xf733;" horiz-adv-x="474" 
d="M125 176v67h65q56 0 90.5 33.5t34.5 88.5q0 53 -27 83t-74 30q-80 0 -99 -77l-74 20q23 67 63 95t113 28q87 0 134 -45.5t47 -130.5q0 -59 -23.5 -96t-76.5 -62q46 -18 65 -35q59 -49 59 -137q0 -83 -44 -138q-54 -63 -173 -63q-83 0 -130.5 27.5t-66.5 86.5l77 28
q7 -36 38 -56t80 -20q71 0 104 40q32 38 32 98t-40 97.5t-104 37.5h-70z" />
    <glyph glyph-name="fouroldstyle" unicode="&#xf734;" horiz-adv-x="462" 
d="M306 -154v154h-289v51l220 483h88l-219 -469h200v219h72v-219h71v-66h-71v-153h-72z" />
    <glyph glyph-name="fiveoldstyle" unicode="&#xf735;" horiz-adv-x="508" 
d="M75 177l32 357h314v-70h-245l-22 -217q41 19 59 24t47 5q101 0 148 -64q36 -49 36 -149q0 -107 -45 -161q-54 -65 -167 -65q-154 0 -191 114l77 28q7 -35 37.5 -55.5t76.5 -20.5q129 0 129 156q0 77 -28.5 114t-88.5 37q-61 0 -109 -45z" />
    <glyph glyph-name="sixoldstyle" unicode="&#xf736;" horiz-adv-x="531" 
d="M375 696l-160 -272l7 2l27 11q17 5 42 5q90 0 139 -67q35 -50 35 -157q0 -123 -48 -172q-53 -55 -150 -55q-108 0 -159 65q-39 48 -39 162q0 103 53 197l160 281h93zM269 379q-61 0 -89 -38.5t-28 -121.5t28 -122.5t87 -39.5t87 39t28 122q0 82 -27.5 121.5t-85.5 39.5z
" />
    <glyph glyph-name="sevenoldstyle" unicode="&#xf737;" horiz-adv-x="396" 
d="M55 -154l211 618h-273v70h360v-50l-210 -638h-88z" />
    <glyph glyph-name="eightoldstyle" unicode="&#xf738;" horiz-adv-x="546" 
d="M165 371q-41 25 -59 59t-18 90q0 186 185 186t185 -185q0 -79 -35 -116q-20 -22 -42 -34q52 -21 76 -62t24 -109q0 -107 -50.5 -158t-157.5 -51q-106 0 -157 51t-51 157q0 69 24 110t76 62zM274 642q-56 0 -81.5 -30t-25.5 -94q0 -63 25.5 -93t80.5 -30t80.5 30t25.5 93
q0 64 -25.5 94t-79.5 30zM275 333q-67 0 -97.5 -32t-30.5 -102q0 -74 30.5 -109t95.5 -35t95.5 35t30.5 109q0 68 -30 101t-94 33z" />
    <glyph glyph-name="nineoldstyle" unicode="&#xf739;" horiz-adv-x="531" 
d="M157 -154l159 264l-7 -2q-18 -6 -27 -10q-17 -5 -42 -5q-90 0 -139 68q-35 50 -35 156q0 123 48 172q53 55 150 55q108 0 159 -65q39 -49 39 -162q0 -107 -53 -197l-159 -274h-93zM264 478q-59 0 -87 -39t-28 -122q0 -82 27.5 -121.5t85.5 -39.5q61 0 89 38.5t28 122.5
q0 83 -28 122t-87 39z" />
    <glyph glyph-name="Dbreve" horiz-adv-x="678" 
d="M104 0v714h228q130 2 196.5 -67.5t62.5 -204.5v-170q4 -135 -62 -204.5t-197 -67.5h-228zM187 69h131q98 -2 144 49t46 162v154q0 111 -46 162t-144 49h-131v-576zM178 923h54q5 -43 24 -60t61 -17q43 0 61.5 17t23.5 60h55q-4 -59 -18 -85q-30 -53 -122 -53
q-97 0 -126 61q-10 24 -13 77z" />
    <glyph glyph-name="ahungarumlaut" horiz-adv-x="525" 
d="M361 295v35q0 54 -18 80q-27 36 -92 36q-75 0 -120 -51l-55 42q65 75 182 75q118 0 161 -73q21 -38 21 -121v-318h-63l-6 36q-24 -25 -56.5 -35t-89.5 -10q-97 0 -136.5 33.5t-39.5 115.5q0 87 42 121t149 34h121zM361 235h-113q-67 0 -95 -21.5t-28 -71.5
q0 -48 25.5 -66.5t92.5 -18.5q78 0 104 33q14 18 14 67v78zM160 582l60 142h90l-93 -142h-57zM295 582l60 142h89l-92 -142h-57z" />
    <glyph glyph-name="uni0204.sc" horiz-adv-x="477" 
d="M76 0v534h338v-66h-258v-165h219v-66h-219v-171h259v-66h-339zM355 610h-57l-92 142h89zM221 610h-57l-93 142h90z" />
    <glyph glyph-name="uni0206.sc" horiz-adv-x="477" 
d="M93 0v534h338v-66h-258v-165h220v-66h-220v-171h259v-66h-339zM402 614h-55q-5 43 -23.5 60t-60.5 17q-43 0 -62.5 -17t-23.5 -60h-54q4 62 18 85q30 53 121 53q98 0 126 -61q10 -23 14 -77z" />
    <glyph glyph-name="uni0208.sc" horiz-adv-x="266" 
d="M93 0v534h81v-534h-81zM236 610h-57l-92 142h89zM102 610h-57l-93 142h90z" />
    <glyph glyph-name="uni020A.sc" horiz-adv-x="266" 
d="M93 0v534h80v-534h-80zM273 614h-55q-5 43 -23.5 60t-60.5 17q-43 0 -62.5 -17t-23.5 -60h-54q4 62 18 85q30 53 121 53q98 0 126 -61q10 -23 14 -77z" />
    <glyph glyph-name="uni020C.sc" horiz-adv-x="558" 
d="M65 210v114q0 112 46 162q52 58 157 58q113 0 165 -67q38 -51 38 -153v-114q0 -111 -47 -162q-53 -57 -156 -57q-113 0 -165 67q-38 49 -38 152zM391 217v100q0 83 -29.5 122t-93.5 39t-93.5 -39t-29.5 -122v-100q0 -83 29.5 -121.5t93.5 -38.5t93.5 38.5t29.5 121.5z
M371 610h-57l-92 142h89zM237 610h-57l-93 142h90z" />
    <glyph glyph-name="uni020E.sc" horiz-adv-x="558" 
d="M76 210v114q0 112 46 162q52 58 157 58q113 0 165 -67q38 -51 38 -153v-114q0 -111 -47 -162q-53 -57 -156 -57q-113 0 -165 67q-38 49 -38 152zM402 217v100q0 83 -29.5 122t-93.5 39t-93.5 -39t-29.5 -122v-100q0 -83 29.5 -121.5t93.5 -38.5t93.5 38.5t29.5 121.5z
M419 614h-55q-5 43 -23.5 60t-60.5 17q-43 0 -62.5 -17t-23.5 -60h-54q4 62 18 85q30 53 121 53q98 0 126 -61q10 -23 14 -77z" />
    <glyph glyph-name="uni0210.sc" horiz-adv-x="537" 
d="M170 225v-225h-80v534h198q98 0 138 -39q41 -38 41 -112q0 -79 -43 -116q-22 -20 -70 -32l127 -235h-92l-113 225h-106zM170 286h118q98 0 98 93q0 90 -104 90h-112v-183zM354 610h-57l-92 142h89zM220 610h-57l-93 142h90z" />
    <glyph glyph-name="uni0212.sc" horiz-adv-x="537" 
d="M174 225v-225h-80v534h198q98 0 138 -39q41 -38 41 -112q0 -79 -43 -116q-22 -20 -70 -32l127 -235h-92l-113 225h-106zM174 286h118q98 0 98 93q0 90 -104 90h-112v-183zM389 614h-55q-5 43 -23.5 60t-60.5 17q-43 0 -62.5 -17t-23.5 -60h-54q4 62 18 85q30 53 121 53
q98 0 126 -61q10 -23 14 -77z" />
    <glyph glyph-name="uni0214.sc" horiz-adv-x="575" 
d="M77 534h80v-338q0 -68 19 -96q30 -43 98 -43q74 0 103 50q15 26 15 89v338h80v-338q0 -58 -7 -88.5t-27 -55.5q-51 -61 -163 -61q-122 0 -171 71q-27 40 -27 134v338zM377 610h-57l-92 142h89zM243 610h-57l-93 142h90z" />
    <glyph glyph-name="uni0216.sc" horiz-adv-x="575" 
d="M90 534h80v-338q0 -68 19 -96q30 -43 98 -43q74 0 103 50q15 26 15 89v338h80v-338q0 -58 -7 -88.5t-27 -55.5q-51 -61 -163 -61q-122 0 -171 71q-27 40 -27 134v338zM427 614h-55q-5 43 -23.5 60t-60.5 17q-43 0 -62.5 -17t-23.5 -60h-54q4 62 18 85q30 53 121 53
q98 0 126 -61q10 -23 14 -77z" />
    <glyph glyph-name="uni1E24.sc" horiz-adv-x="569" 
d="M93 0v534h80v-231h223v231h80v-534h-80v237h-223v-237h-80zM245 -193v104h78v-104h-78z" />
    <glyph glyph-name="uni1E5A.sc" horiz-adv-x="537" 
d="M174 225v-225h-80v534h198q98 0 138 -39q41 -38 41 -112q0 -79 -43 -116q-22 -20 -70 -32l127 -235h-92l-113 225h-106zM174 286h118q98 0 98 93q0 90 -104 90h-112v-183zM233 -193v104h78v-104h-78z" />
    <glyph glyph-name="uni1E62.sc" horiz-adv-x="467" 
d="M34 77l64 40q41 -60 134 -60q56 0 87.5 23t31.5 64q0 43 -32 62q-15 10 -27.5 14t-73.5 18q-88 20 -125.5 55.5t-37.5 98.5q0 72 47 112t131 40q126 0 175 -76l-63 -39q-23 27 -48 38t-63 11q-47 0 -73.5 -22t-26.5 -61q0 -36 27.5 -57t96.5 -37q58 -14 77.5 -20.5
t40.5 -19.5q54 -35 54 -113q0 -77 -50.5 -117t-146.5 -40q-144 0 -199 86zM194 -193v104h78v-104h-78z" />
    <glyph glyph-name="uni1E6C.sc" horiz-adv-x="437" 
d="M179 0v468h-160v66h399v-66h-159v-468h-80zM179 -193v104h78v-104h-78z" />
    <glyph glyph-name="uni1E92.sc" horiz-adv-x="438" 
d="M40 0v55l250 413h-236v66h329v-55l-250 -413h262v-66h-355zM183 -193v104h78v-104h-78z" />
    <glyph glyph-name="uni1E44.sc" horiz-adv-x="600" 
d="M93 0v534h76l260 -402v402h79v-534h-72l-264 405v-405h-79zM266 617v104h78v-104h-78z" />
    <glyph glyph-name="uni1E0C.sc" horiz-adv-x="562" 
d="M93 0v534h184q106 2 159 -51t50 -160v-111q6 -215 -209 -212h-184zM173 65h91q74 -2 108 34.5t34 118.5v98q0 82 -34 118.5t-108 34.5h-91v-404zM220 -193v104h78v-104h-78z" />
    <glyph glyph-name="uni1E02.sc" horiz-adv-x="526" 
d="M93 0v534h213q82 0 121 -32q44 -39 44 -108q0 -72 -60 -115q38 -22 54.5 -53t16.5 -80q0 -79 -51 -118q-38 -28 -115 -28h-223zM171 304h131q90 0 90 84q0 82 -90 82h-131v-166zM171 64h142q90 0 90 90q0 91 -90 91h-142v-181zM213 617v104h78v-104h-78z" />
    <glyph glyph-name="idotaccent" horiz-adv-x="255" 
d="M88 611v106h79v-106h-79zM88 0v502h79v-502h-79z" />
    <glyph glyph-name="one.fitted" horiz-adv-x="340" 
d="M143 0v626l-123 -54l-26 66l175 76h57v-714h-83z" />
    <glyph glyph-name="two.fitted" horiz-adv-x="495" 
d="M29 0v55l198 257q108 141 108 237q0 104 -107 104q-96 0 -120 -107l-75 7q8 81 60.5 125.5t139.5 44.5q89 0 137 -46t48 -132q0 -65 -27.5 -123t-108.5 -165l-143 -187h284v-70h-394z" />
    <glyph glyph-name="three.fitted" horiz-adv-x="485" 
d="M132 343v67h60q59 0 95 33.5t36 88.5q0 57 -29.5 89t-81.5 32q-44 0 -73 -22.5t-38 -62.5l-74 7q20 148 189 148q92 0 141 -48.5t49 -140.5q0 -59 -21 -94.5t-72 -62.5q59 -27 85 -70t26 -112q0 -100 -54 -152t-158 -52q-92 0 -144.5 39.5t-60.5 113.5l79 10
q18 -93 124 -93q62 0 96.5 35.5t34.5 100.5t-40 105.5t-104 40.5h-65z" />
    <glyph glyph-name="four.fitted" horiz-adv-x="536" 
d="M335 0v132h-290v52l228 530h88l-222 -513h196v219h76v-219h71v-70h-71v-131h-76z" />
    <glyph glyph-name="five.fitted" horiz-adv-x="528" 
d="M78 344l34 370h322v-70h-253l-24 -227q49 27 107 27q103 0 153 -69q38 -51 38 -157q0 -112 -46 -162q-56 -65 -166 -65q-176 0 -196 153l79 10q8 -45 39 -69t80 -24q62 0 94.5 39t32.5 113q0 84 -29.5 123.5t-91.5 39.5q-65 0 -113 -45z" />
    <glyph glyph-name="six.fitted" horiz-adv-x="534" 
d="M378 714l-160 -290q28 18 74 18q92 0 141 -68q35 -50 35 -156q0 -122 -48 -173q-52 -54 -150 -54q-108 0 -159 65q-39 48 -39 162q0 58 10.5 97.5t42.5 99.5l160 299h93zM272 376q-61 0 -89 -37.5t-28 -119.5t28 -120t87 -38t87 38t28 119t-27.5 119.5t-85.5 38.5z" />
    <glyph glyph-name="seven.fitted" horiz-adv-x="396" 
d="M55 0l211 644h-273v70h360v-50l-210 -664h-88z" />
    <glyph glyph-name="eight.fitted" horiz-adv-x="550" 
d="M155 378q-39 28 -54 62t-15 92q0 97 46.5 144t142.5 47q188 0 188 -191q0 -58 -15.5 -91.5t-53.5 -62.5q47 -23 68 -64.5t21 -112.5q0 -108 -50.5 -159t-157.5 -51t-158 51.5t-51 158.5q0 71 21 112.5t68 64.5zM276 657q-58 0 -84.5 -30t-26.5 -95t26.5 -95.5t83.5 -30.5
q56 0 82.5 30.5t26.5 95.5q0 125 -108 125zM276 340q-66 0 -96.5 -33.5t-30.5 -106.5q0 -71 30.5 -105t95.5 -34q64 0 94.5 34t30.5 105q0 140 -124 140z" />
    <glyph glyph-name="nine.fitted" horiz-adv-x="534" 
d="M157 0l161 313q-39 -12 -76 -12q-72 0 -118 38q-58 48 -58 170q0 111 48 162.5t151 51.5q106 0 157 -60q40 -49 40 -151q0 -54 -8 -87.5t-32 -81.5l-172 -343h-93zM266 653q-117 0 -117 -143q0 -144 115 -144t115 143q0 144 -113 144z" />
    <glyph glyph-name="zero.fitted" horiz-adv-x="553" 
d="M76 252v210q0 135 44 192q53 69 157 69q111 0 164 -81q36 -57 36 -180v-210q0 -135 -44 -192q-53 -69 -156 -69q-112 0 -165 81q-36 57 -36 180zM395 260v194q0 106 -27.5 152.5t-90.5 46.5q-64 0 -91.5 -46t-27.5 -153v-194q0 -107 27.5 -153t91.5 -46q63 0 90.5 46.5
t27.5 152.5z" />
    <glyph glyph-name="sterling.fitted" horiz-adv-x="547" 
d="M63 0v60q50 18 82.5 66t32.5 104q0 32 -14 75h-103v70h71q-31 58 -40.5 86.5t-9.5 64.5q0 92 53 144.5t145 52.5t144 -43t74 -137l-70 -19q-13 51 -33 79q-40 52 -110 52q-55 0 -87.5 -33t-32.5 -89q0 -32 12 -65t46 -93h171v-70h-148q11 -41 11 -70q0 -97 -78 -165h330
v-70h-446z" />
    <glyph glyph-name="dollar.fitted" horiz-adv-x="574" 
d="M38 112l64 42q48 -77 178 -77q78 0 120.5 31t42.5 87q0 59 -44 87q-20 13 -37 18.5t-96 24.5q-109 25 -157.5 71.5t-48.5 124.5q0 52 23 93.5t64 63.5q35 20 101 26v108h79v-110q119 -13 162 -86l-63 -41q-44 62 -148 62q-64 0 -100.5 -29t-36.5 -81t37 -81t129 -51
q70 -16 96.5 -25.5t52.5 -26.5q68 -45 68 -141q0 -170 -197 -191v-144h-79v142q-74 4 -129 31t-81 72z" />
    <glyph glyph-name="cent.fitted" horiz-adv-x="487" 
d="M236 32v115q-81 7 -124 67t-41 163v42q-3 221 165 242v109h79v-111q81 -14 120 -76l-60 -34q-37 51 -100 51q-64 0 -95 -43t-31 -132v-56q0 -79 32.5 -120t94.5 -41q73 0 110 49l59 -34q-43 -62 -130 -75v-116h-79z" />
    <glyph glyph-name="Euro.fitted" horiz-adv-x="556" 
d="M96 300v57h-93l23 58h70v16q0 148 49 214q58 77 172 77q95 0 148.5 -47t57.5 -135l-77 -6q-6 56 -39.5 87t-88.5 31q-73 0 -106 -52.5t-33 -168.5v-16h276l-23 -58h-253v-57h228l-23 -58h-204q5 -95 39.5 -139t106.5 -44q57 0 91.5 26.5t42.5 76.5l72 -9
q-5 -79 -59.5 -121.5t-149.5 -42.5q-148 0 -200 118q-23 51 -26 135h-91l23 58h67z" />
    <glyph glyph-name="yen.fitted" horiz-adv-x="564" 
d="M241 0v151h-154v58h154v51h-154v58h130l-195 396h88l173 -361l171 361h89l-195 -396h129v-58h-153v-51h153v-58h-153v-151h-83z" />
    <glyph glyph-name="one.numerator" horiz-adv-x="349" 
d="M151 286v363l-77 -30l-18 49l115 46h46v-428h-66z" />
    <glyph glyph-name="two.numerator" horiz-adv-x="349" 
d="M49 286v42l126 150q64 76 64 125q0 30 -17 47t-47 17q-59 0 -73 -63l-61 7q10 58 41.5 83.5t94.5 25.5q128 0 128 -119q0 -40 -17 -74t-66 -91l-81 -97h163v-53h-255z" />
    <glyph glyph-name="three.numerator" horiz-adv-x="349" 
d="M113 487v47h44q32 0 54.5 20t22.5 48q0 29 -18.5 46.5t-48.5 17.5q-55 0 -69 -50l-59 7q8 50 38.5 73t91.5 23q131 0 131 -115q0 -35 -12.5 -56t-41.5 -37q66 -32 66 -107q0 -123 -145 -123q-82 0 -118 39q-15 16 -23 57l62 11q13 -54 77 -54q38 0 59.5 19.5t21.5 53.5
q0 35 -24 57.5t-62 22.5h-47z" />
    <glyph glyph-name="four.numerator" horiz-adv-x="349" 
d="M216 286v81h-187v39l147 308h70l-141 -295h111v92h59v-92h45v-53h-45v-80h-59z" />
    <glyph glyph-name="five.numerator" horiz-adv-x="349" 
d="M55 487l22 227h218v-53h-162l-13 -119q30 13 59 13q129 0 129 -136q0 -71 -34.5 -104.5t-107.5 -33.5q-59 0 -92.5 25.5t-37.5 71.5l62 10q12 -54 71 -54q34 0 53.5 22t19.5 60q0 88 -70 88q-40 0 -69 -26z" />
    <glyph glyph-name="six.numerator" horiz-adv-x="349" 
d="M257 714l-99 -164q21 5 38 5q57 0 90 -41q23 -29 23 -95q0 -72 -31.5 -105t-101.5 -33t-101.5 32.5t-31.5 105.5q0 36 7 59.5t28 59.5l102 176h77zM177 506q-70 0 -70 -87q0 -88 69 -88t69 88q0 87 -68 87z" />
    <glyph glyph-name="seven.numerator" horiz-adv-x="349" 
d="M85 286l145 375h-181v53h253v-39l-145 -389h-72z" />
    <glyph glyph-name="eight.numerator" horiz-adv-x="349" 
d="M87 513q-39 31 -39 90q0 60 30.5 88.5t95.5 28.5t96 -28.5t31 -88.5q0 -32 -8.5 -51.5t-31.5 -38.5q28 -16 40 -39.5t12 -64.5q0 -68 -33 -98.5t-106 -30.5q-72 0 -105.5 30.5t-33.5 97.5q0 77 52 105zM175 672q-67 0 -67 -70q0 -71 67 -71q66 0 66 71q0 70 -66 70z
M175 486q-76 0 -76 -78t75 -78t75 78t-74 78z" />
    <glyph glyph-name="nine.numerator" horiz-adv-x="349" 
d="M93 286l102 180q-27 -4 -42 -4q-112 0 -112 127q0 67 32 98.5t101 31.5t101 -31t32 -97q0 -35 -5 -53.5t-22 -49.5l-110 -202h-77zM175 669q-70 0 -70 -80t69 -80t69 80t-68 80z" />
    <glyph glyph-name="zero.numerator" horiz-adv-x="349" 
d="M41 439v122q0 82 32 120t102 38t102 -38t32 -120v-122q0 -82 -32 -120t-102 -38t-102 38t-32 120zM245 444v112q0 113 -70 113t-70 -113v-112q0 -113 70 -113t70 113z" />
    <glyph glyph-name="one.denominator" horiz-adv-x="349" 
d="M151 0v363l-77 -30l-18 49l115 46h46v-428h-66z" />
    <glyph glyph-name="two.denominator" horiz-adv-x="349" 
d="M49 0v42l126 150q64 75 64 125q0 30 -17 47t-47 17q-59 0 -73 -63l-61 7q10 58 42 83.5t94 25.5q128 0 128 -119q0 -40 -17 -74t-66 -91l-81 -97h163v-53h-255z" />
    <glyph glyph-name="three.denominator" horiz-adv-x="349" 
d="M113 202v47h44q32 0 54.5 19.5t22.5 47.5q0 29 -18.5 46.5t-48.5 17.5q-55 0 -69 -50l-59 8q8 50 38.5 72.5t91.5 22.5q131 0 131 -115q0 -34 -12.5 -55t-41.5 -37q66 -31 66 -107q0 -124 -145 -124q-82 0 -118 39q-15 16 -23 57l62 12q13 -55 77 -55q37 0 59 19.5
t22 53.5q0 35 -24.5 58t-61.5 23h-47z" />
    <glyph glyph-name="four.denominator" horiz-adv-x="349" 
d="M216 0v80h-187v39l147 309h70l-141 -296h111v93h59v-93h45v-53h-45v-79h-59z" />
    <glyph glyph-name="five.denominator" horiz-adv-x="349" 
d="M55 201l22 227h218v-53h-162l-13 -119q30 13 59 13q129 0 129 -136q0 -71 -34.5 -104.5t-107.5 -33.5q-59 0 -92.5 25.5t-37.5 71.5l62 10q12 -54 71 -54q34 0 53.5 22t19.5 60q0 89 -70 89q-40 0 -69 -27z" />
    <glyph glyph-name="six.denominator" horiz-adv-x="349" 
d="M257 428l-99 -164q21 5 38 5q57 0 90 -40q23 -29 23 -96q0 -72 -31.5 -105t-101.5 -33t-101.5 32.5t-31.5 105.5q0 36 7 59.5t28 59.5l102 176h77zM177 220q-70 0 -70 -87q0 -88 69 -88t69 88q0 87 -68 87z" />
    <glyph glyph-name="seven.denominator" horiz-adv-x="349" 
d="M85 0l145 375h-181v53h253v-39l-145 -389h-72z" />
    <glyph glyph-name="eight.denominator" horiz-adv-x="349" 
d="M87 227q-39 29 -39 90q0 60 30.5 88.5t95.5 28.5t96 -28.5t31 -88.5q0 -32 -9 -52t-31 -38q52 -28 52 -104q0 -68 -33 -98.5t-106 -30.5q-72 0 -105.5 30.5t-33.5 97.5q0 78 52 105zM175 386q-67 0 -67 -70q0 -71 67 -71q66 0 66 71q0 70 -66 70zM175 200q-76 0 -76 -78
t75 -78t75 78t-74 78z" />
    <glyph glyph-name="nine.denominator" horiz-adv-x="349" 
d="M93 0l102 180q-27 -4 -42 -4q-112 0 -112 127q0 68 31.5 99t101.5 31q69 0 101 -31t32 -97q0 -35 -5 -53.5t-22 -49.5l-110 -202h-77zM175 383q-70 0 -70 -79q0 -80 69 -80t69 79q0 80 -68 80z" />
    <glyph glyph-name="zero.denominator" horiz-adv-x="349" 
d="M41 153v122q0 82 32 120t102 38t102 -38t32 -120v-122q0 -82 -32 -120t-102 -38t-102 38t-32 120zM245 158v112q0 113 -70 113t-70 -113v-112q0 -113 70 -113t70 113z" />
    <glyph glyph-name="oneone" horiz-adv-x="860" 
d="M161 286v363l-77 -30l-18 49l115 46h46v-428h-66zM241 0l225 714h75l-224 -714h-76zM632 0v363l-77 -30l-18 49l115 46h46v-428h-66z" />
    <glyph glyph-name="Dotaccent" horiz-adv-x="500" 
d="M211 797v104h78v-104h-78z" />
    <glyph glyph-name="Ring" horiz-adv-x="500" 
d="M252 984q47 0 75 -27.5t28 -73.5t-29 -74t-76 -28t-76 28t-29 74q0 47 29 74t78 27zM251 942q-51 0 -51 -60q0 -59 50 -59t50 59q0 60 -49 60z" />
    <glyph glyph-name="Circumflex" horiz-adv-x="500" 
d="M250 874l-68 -80h-84l127 133h51l127 -133h-84z" />
    <glyph glyph-name="Breve" horiz-adv-x="500" 
d="M111 923h54q5 -43 24 -60t61 -17q43 0 61.5 17t23.5 60h55q-4 -59 -18 -85q-30 -53 -122 -53q-97 0 -126 61q-10 24 -13 77z" />
    <glyph glyph-name="Tilde" horiz-adv-x="500" 
d="M143 804h-51q13 52 25 71q25 43 72 43q37 0 73 -32t53 -32q27 0 41 56h51q-12 -50 -23 -73q-23 -41 -71 -41q-38 0 -75 34q-34 30 -52 30q-29 0 -43 -56z" />
    <glyph glyph-name="Cedilla" horiz-adv-x="500" 
d="M185 -222l52 153h83l-79 -153h-56z" />
    <glyph glyph-name="Ogonek" horiz-adv-x="500" 
d="M293 0h72q-97 -55 -97 -105q0 -41 51 -41q25 0 58 10l8 -46q-39 -14 -80 -14q-109 0 -109 79q0 73 97 117z" />
    <glyph glyph-name="Commaaccent" horiz-adv-x="500" 
d="M185 -222l52 153h83l-79 -153h-56z" />
    <glyph glyph-name="Comma.high" horiz-adv-x="116" 
d="M2 492l26 230h82l-52 -230h-56z" />
    <glyph glyph-name="Croatumlaut" horiz-adv-x="500" 
d="M353 789h-57l-92 142h89zM219 789h-57l-93 142h90z" />
    <glyph glyph-name="Croatbreve" horiz-adv-x="500" 
d="M390 793h-55q-4 43 -23 60t-61 17q-43 0 -62.5 -17t-23.5 -60h-54q4 62 18 85q30 53 121 53q98 0 126 -61q10 -23 14 -77z" />
    <glyph glyph-name="Cicumflexacute" horiz-adv-x="500" 
d="M352 848l74 139h91l-111 -142h-52l49 -51h-84l-69 80l-68 -80h-84l127 133h51z" />
    <glyph glyph-name="Ringacute" horiz-adv-x="500" 
d="M252 877q47 0 75 -27.5t28 -73.5t-29 -74t-76 -28t-76 28t-29 74q0 47 29 74t78 27zM251 835q-51 0 -51 -60q0 -59 50 -59t50 59q0 60 -49 60zM214 896l55 117h94l-98 -117h-51z" />
    <glyph glyph-name="croatumlaut" horiz-adv-x="500" 
d="M353 582h-57l-92 142h89zM219 582h-57l-93 142h90z" />
    <glyph glyph-name="croatbreve" horiz-adv-x="500" 
d="M390 586h-55q-5 43 -23.5 60t-60.5 17q-43 0 -62.5 -17t-23.5 -60h-54q4 62 18 85q30 53 121 53q98 0 126 -61q10 -23 14 -77z" />
    <glyph glyph-name="cicumflexacute" horiz-adv-x="500" 
d="M352 640l74 139h91l-111 -142h-52l49 -51h-84l-69 80l-68 -80h-84l127 133h51z" />
    <glyph glyph-name="ringacute" horiz-adv-x="500" 
d="M251 777q47 0 75.5 -28t28.5 -73q0 -46 -29 -74.5t-76 -28.5t-76 28.5t-29 74.5t28.5 73.5t77.5 27.5zM251 735q-51 0 -51 -60t50 -60t50 60t-49 60zM214 795l55 118h94l-98 -118h-51z" />
    <glyph glyph-name="Ohorn.sc" horiz-adv-x="582" 
d="M522 544h72q6 -19 6 -40q0 -47 -27 -81t-91 -70q1 -18 1 -38v-105q0 -111 -47 -162q-51 -57 -156 -57q-114 0 -166 67q-38 49 -38 152v114q0 112 47 162q52 58 153 58q85 0 133.5 -33t66.5 -103l6 4l17 12q35 25 35 72q0 25 -12 48zM403 217v100q0 83 -30 122t-94 39
t-93.5 -39t-29.5 -122v-100q0 -83 29.5 -121.5t93.5 -38.5q65 0 94.5 38.5t29.5 121.5z" />
    <glyph glyph-name="Uhorn.sc" horiz-adv-x="616" 
d="M90 534h80v-339q0 -67 19 -95q30 -43 98 -43q74 0 103 50q15 26 15 88v339h80v-149q53 25 74 49.5t21 60.5q0 25 -12 49h72q6 -19 6 -40q0 -72 -75 -125q-25 -19 -86 -49v-135q0 -58 -7 -88t-27 -55q-51 -61 -163 -61q-122 0 -171 71q-27 40 -27 133v339z" />
    <glyph glyph-name="uni1EA0.sc" horiz-adv-x="468" 
d="M353 112h-236l-40 -112h-88l207 534h78l207 -534h-89zM334 175l-99 272l-99 -272h198zM195 -193v104h78v-104h-78z" />
    <glyph glyph-name="uni1EA2.sc" horiz-adv-x="468" 
d="M353 112h-236l-40 -112h-88l207 534h78l207 -534h-89zM334 175l-99 272l-99 -272h198zM269 603h-58q1 34 4.5 45t22.5 39q10 13 10 26q0 24 -31 24q-21 0 -48 -13l-14 47q41 14 74 14q41 0 63.5 -18t22.5 -50q0 -16 -5.5 -27t-22.5 -34q-12 -16 -14.5 -24t-3.5 -29z" />
    <glyph glyph-name="uni1EA4.sc" horiz-adv-x="468" 
d="M353 112h-236l-40 -112h-88l207 534h78l207 -534h-89zM334 175l-99 272l-99 -272h198zM197 716l57 114h76l-85 -114h-48zM234 639l-67 -57h-81l124 107h49l124 -107h-81z" />
    <glyph glyph-name="uni1EA6.sc" horiz-adv-x="468" 
d="M353 112h-236l-40 -112h-88l207 534h78l207 -534h-89zM334 175l-99 272l-99 -272h198zM270 716h-47l-85 114h76zM234 639l-67 -57h-81l124 107h49l123 -107h-80z" />
    <glyph glyph-name="uni1EA8.sc" horiz-adv-x="468" 
d="M353 112h-236l-40 -112h-88l207 534h78l207 -534h-89zM334 175l-99 272l-99 -272h198zM260 701h-52q1 31 16 50q17 20 17 30q0 14 -27 14q-16 0 -42 -10l-13 39q32 11 66 11q75 0 75 -53q0 -19 -25 -44q-14 -15 -15 -37zM232 637l-68 -55h-80l123 102h49l124 -102h-81z
" />
    <glyph glyph-name="uni1EAA.sc" horiz-adv-x="468" 
d="M353 112h-236l-40 -112h-88l207 534h78l207 -534h-89zM334 175l-99 272l-99 -272h198zM150 723h-45q14 55 33.5 77.5t52.5 22.5q31 0 59 -29q26 -29 42 -29q21 0 32 51h45q-13 -58 -29.5 -79t-48.5 -21q-34 0 -61 30q-24 27 -40 27q-27 0 -40 -50zM239 639l-68 -57h-80
l123 107h49l124 -107h-81z" />
    <glyph glyph-name="uni1EAC.sc" horiz-adv-x="468" 
d="M353 112h-236l-40 -112h-88l207 534h78l207 -534h-89zM334 175l-99 272l-99 -272h198zM234 694l-68 -80h-84l127 133h51l127 -133h-84zM195 -193v104h78v-104h-78z" />
    <glyph glyph-name="uni1EAE.sc" horiz-adv-x="468" 
d="M353 112h-236l-40 -112h-88l207 534h78l207 -534h-89zM334 175l-99 272l-99 -272h198zM197 716l57 114h76l-85 -114h-48zM99 704h52q4 -37 23 -52.5t60 -15.5q42 0 60.5 15t23.5 53h52q-4 -54 -18 -77q-29 -48 -118 -48q-95 0 -122 56q-10 21 -13 69z" />
    <glyph glyph-name="uni1EB0.sc" horiz-adv-x="468" 
d="M353 112h-236l-40 -112h-88l207 534h78l207 -534h-89zM334 175l-99 272l-99 -272h198zM276 716h-48l-84 114h76zM99 704h52q4 -37 23 -52.5t60 -15.5q42 0 60.5 15t23.5 53h52q-4 -54 -18 -77q-29 -48 -118 -48q-95 0 -122 56q-10 21 -13 69z" />
    <glyph glyph-name="uni1EB2.sc" horiz-adv-x="468" 
d="M353 112h-236l-40 -112h-88l207 534h78l207 -534h-89zM334 175l-99 272l-99 -272h198zM259 692h-52q1 31 16 53q17 22 17 31q0 19 -28 19q-17 0 -41 -10l-13 39q32 11 65 11q36 0 56 -15t20 -42q0 -18 -23 -43q-17 -18 -17 -38v-5zM99 704h51q5 -39 23.5 -54t61.5 -15
q41 0 60 15.5t23 53.5h52q-4 -54 -18 -77q-29 -48 -118 -48q-95 0 -122 56q-10 21 -13 69z" />
    <glyph glyph-name="uni1EB4.sc" horiz-adv-x="468" 
d="M353 112h-236l-40 -112h-88l207 534h78l207 -534h-89zM334 175l-99 272l-99 -272h198zM145 732h-44q14 56 33 78t53 22q31 0 58 -28q28 -29 42 -29q22 0 32 50h45q-13 -58 -29.5 -79t-48.5 -21q-33 0 -60 30q-26 27 -41 27q-27 0 -40 -50zM99 698h50q5 -36 23.5 -50
t60.5 -14q40 0 58.5 14.5t23.5 49.5h49q-3 -50 -16 -73q-29 -45 -116 -45q-71 0 -100 25.5t-33 92.5z" />
    <glyph glyph-name="uni1EB6.sc" horiz-adv-x="468" 
d="M353 112h-236l-40 -112h-88l207 534h78l207 -534h-89zM334 175l-99 272l-99 -272h198zM95 743h54q5 -43 24 -60t61 -17q43 0 62 17t24 60h54q-4 -59 -18 -85q-30 -53 -122 -53q-97 0 -126 61q-10 23 -13 77zM195 -193v104h78v-104h-78z" />
    <glyph glyph-name="uni1EB8.sc" horiz-adv-x="477" 
d="M93 0v534h338v-66h-258v-165h220v-66h-220v-171h259v-66h-339zM226 -193v104h78v-104h-78z" />
    <glyph glyph-name="uni1EBA.sc" horiz-adv-x="477" 
d="M93 0v534h338v-66h-258v-165h220v-66h-220v-171h259v-66h-339zM297 603h-59q1 32 4.5 43.5t23.5 40.5q10 14 10 26q0 24 -31 24q-21 0 -48 -13l-14 47q39 14 74 14q41 0 63.5 -18t22.5 -50q0 -16 -5.5 -27t-22.5 -34q-12 -15 -15 -23.5t-3 -29.5z" />
    <glyph glyph-name="uni1EBC.sc" horiz-adv-x="477" 
d="M93 0v534h338v-66h-258v-165h220v-66h-220v-171h259v-66h-339zM156 624h-52q14 53 25 72q25 43 72 43q38 0 73 -32q37 -32 53 -32q28 0 42 56h51q-12 -54 -24 -73q-22 -42 -70 -42q-39 0 -76 34q-34 30 -51 30q-30 0 -43 -56z" />
    <glyph glyph-name="uni1EBE.sc" horiz-adv-x="477" 
d="M93 0v534h338v-66h-258v-165h220v-66h-220v-171h259v-66h-339zM224 716l57 114h75l-84 -114h-48zM261 639l-67 -57h-81l123 107h49l124 -107h-81z" />
    <glyph glyph-name="uni1EC0.sc" horiz-adv-x="477" 
d="M93 0v534h338v-66h-258v-165h220v-66h-220v-171h259v-66h-339zM298 716h-48l-85 114h76zM262 639l-67 -57h-81l124 107h49l123 -107h-81z" />
    <glyph glyph-name="uni1EC2.sc" horiz-adv-x="477" 
d="M93 0v534h338v-66h-258v-165h220v-66h-220v-171h259v-66h-339zM288 701h-52q0 31 16 50q17 20 17 30q0 14 -27 14q-18 0 -42 -10l-14 39q33 11 67 11q35 0 55 -14t20 -39q0 -19 -25 -44q-15 -16 -15 -37zM259 637l-67 -55h-81l124 102h49l124 -102h-81z" />
    <glyph glyph-name="uni1EC4.sc" horiz-adv-x="477" 
d="M93 0v534h338v-66h-258v-165h220v-66h-220v-171h259v-66h-339zM178 723h-45q14 56 33 78t53 22q33 0 59 -29t42 -29q22 0 32 51h45q-13 -58 -29.5 -79t-48.5 -21q-34 0 -61 30q-26 27 -40 27q-28 0 -40 -50zM266 639l-67 -57h-81l124 107h49l124 -107h-81z" />
    <glyph glyph-name="uni1EC6.sc" horiz-adv-x="477" 
d="M91 0v534h338v-66h-258v-165h220v-66h-220v-171h259v-66h-339zM259 694l-68 -80h-84l126 133h52l126 -133h-84zM223 -193v104h78v-104h-78z" />
    <glyph glyph-name="uni1EC8.sc" horiz-adv-x="266" 
d="M93 0v534h81v-534h-81zM165 603h-58q1 34 4.5 45t22.5 39q10 14 10 26q0 24 -31 24q-21 0 -47 -13l-15 47q41 14 74 14q41 0 63.5 -18t22.5 -50q0 -16 -5.5 -27t-22.5 -34q-12 -16 -14.5 -24t-3.5 -29z" />
    <glyph glyph-name="uni1ECA.sc" horiz-adv-x="266" 
d="M92 0v534h80v-534h-80zM93 -193v104h78v-104h-78z" />
    <glyph glyph-name="uni1ECC.sc" horiz-adv-x="558" 
d="M76 210v114q0 112 47 162q51 58 157 58q111 0 165 -67q38 -49 38 -153v-114q0 -111 -47 -162q-51 -57 -156 -57q-114 0 -166 67q-38 49 -38 152zM403 217v100q0 83 -30 122t-94 39t-93.5 -39t-29.5 -122v-100q0 -83 29.5 -121.5t93.5 -38.5q65 0 94.5 38.5t29.5 121.5z
M240 -193v104h78v-104h-78z" />
    </font>
</defs>
</svg>
